<?xml version="1.0"?>
<svg xmlns="http://www.w3.org/2000/svg" xmlns:xlink="http://www.w3.org/1999/xlink" xmlns:svgjs="http://svgjs.com/svgjs" version="1.1" width="512" height="512" x="0" y="0" viewBox="0 0 511.879 511.879" style="enable-background:new 0 0 512 512" xml:space="preserve" class=""><g>
<g xmlns="http://www.w3.org/2000/svg">
	<g>
		<path d="M415.902,275.935c-22.05,0-39.991,17.941-39.991,39.991c0,22.049,17.941,39.99,39.991,39.99    c22.049,0,39.99-17.942,39.99-39.99C455.892,293.877,437.951,275.935,415.902,275.935z M415.902,347.918    c-17.644,0-31.993-14.348-31.993-31.992c0-17.644,14.348-31.993,31.993-31.993c17.643,0,31.992,14.349,31.992,31.993    C447.894,333.569,433.546,347.918,415.902,347.918z" fill="#386641" data-original="#000000" style="" class=""/>
	</g>
</g>
<g xmlns="http://www.w3.org/2000/svg">
	<g>
		<path d="M416.144,311.926h-0.086c-2.203,0-3.953,1.789-3.953,4c0,2.21,1.828,3.998,4.039,3.998c2.202,0,3.998-1.788,3.998-3.998    C420.142,313.715,418.346,311.926,416.144,311.926z" fill="#386641" data-original="#000000" style="" class=""/>
	</g>
</g>
<g xmlns="http://www.w3.org/2000/svg">
	<g>
		<path d="M415.902,291.931c-2.211,0-4,1.789-4,3.999v7.998c0,2.211,1.789,3.999,4,3.999c2.21,0,3.998-1.788,3.998-3.999v-7.998    C419.9,293.72,418.112,291.931,415.902,291.931z" fill="#386641" data-original="#000000" style="" class=""/>
	</g>
</g>
<g xmlns="http://www.w3.org/2000/svg">
	<g>
		<path d="M415.902,323.924c-2.211,0-4,1.788-4,3.998v7.998c0,2.211,1.789,4,4,4c2.21,0,3.998-1.789,3.998-4v-7.998    C419.9,325.712,418.112,323.924,415.902,323.924z" fill="#386641" data-original="#000000" style="" class=""/>
	</g>
</g>
<g xmlns="http://www.w3.org/2000/svg">
	<g>
		<path d="M410.246,304.616l-5.655-5.654c-1.562-1.562-4.092-1.562-5.654,0c-1.562,1.561-1.562,4.092,0,5.654l5.654,5.655    c0.781,0.78,1.805,1.171,2.828,1.171c1.023,0,2.046-0.391,2.827-1.171C411.808,308.708,411.808,306.178,410.246,304.616z" fill="#386641" data-original="#000000" style="" class=""/>
	</g>
</g>
<g xmlns="http://www.w3.org/2000/svg">
	<g>
		<path d="M432.866,327.236l-5.654-5.655c-1.562-1.562-4.093-1.562-5.655,0s-1.562,4.093,0,5.655l5.655,5.654    c0.78,0.781,1.804,1.172,2.827,1.172c1.023,0,2.046-0.391,2.827-1.172C434.428,331.328,434.428,328.798,432.866,327.236z" fill="#386641" data-original="#000000" style="" class=""/>
	</g>
</g>
<g xmlns="http://www.w3.org/2000/svg">
	<g>
		<path d="M403.904,311.926h-7.998c-2.21,0-3.999,1.789-3.999,4c0,2.21,1.789,3.998,3.999,3.998h7.998c2.211,0,4-1.788,4-3.998    C407.904,313.715,406.115,311.926,403.904,311.926z" fill="#386641" data-original="#000000" style="" class=""/>
	</g>
</g>
<g xmlns="http://www.w3.org/2000/svg">
	<g>
		<path d="M435.896,311.926h-7.998c-2.21,0-3.998,1.789-3.998,4c0,2.21,1.788,3.998,3.998,3.998h7.998c2.211,0,4-1.788,4-3.998    C439.896,313.715,438.107,311.926,435.896,311.926z" fill="#386641" data-original="#000000" style="" class=""/>
	</g>
</g>
<g xmlns="http://www.w3.org/2000/svg">
	<g>
		<path d="M410.246,321.581c-1.562-1.562-4.093-1.562-5.655,0l-5.654,5.655c-1.562,1.561-1.562,4.092,0,5.654    c0.78,0.781,1.804,1.172,2.827,1.172c1.024,0,2.046-0.391,2.827-1.172l5.655-5.654    C411.808,325.674,411.808,323.143,410.246,321.581z" fill="#386641" data-original="#000000" style="" class=""/>
	</g>
</g>
<g xmlns="http://www.w3.org/2000/svg">
	<g>
		<path d="M432.865,298.962c-1.561-1.562-4.092-1.562-5.654,0l-5.655,5.654c-1.562,1.562-1.562,4.093,0,5.655    c0.781,0.78,1.805,1.171,2.828,1.171s2.046-0.391,2.827-1.171l5.654-5.655C434.427,303.054,434.427,300.524,432.865,298.962z" fill="#386641" data-original="#000000" style="" class=""/>
	</g>
</g>
<g xmlns="http://www.w3.org/2000/svg">
	<g>
		<path d="M103.975,275.935c-22.05,0-39.99,17.941-39.99,39.991c0,22.049,17.94,39.99,39.99,39.99s39.99-17.942,39.99-39.99    C143.965,293.877,126.025,275.935,103.975,275.935z M103.975,347.918c-17.644,0-31.992-14.348-31.992-31.992    c0-17.644,14.347-31.993,31.992-31.993s31.992,14.349,31.992,31.993C135.967,333.569,121.619,347.918,103.975,347.918z" fill="#386641" data-original="#000000" style="" class=""/>
	</g>
</g>
<g xmlns="http://www.w3.org/2000/svg">
	<g>
		<path d="M104.217,311.926h-0.086c-2.202,0-3.952,1.789-3.952,4c0,2.21,1.828,3.998,4.038,3.998c2.203,0,3.999-1.788,3.999-3.998    C108.216,313.715,106.42,311.926,104.217,311.926z" fill="#386641" data-original="#000000" style="" class=""/>
	</g>
</g>
<g xmlns="http://www.w3.org/2000/svg">
	<g>
		<path d="M103.975,291.931c-2.21,0-3.999,1.789-3.999,3.999v7.998c0,2.211,1.789,3.999,3.999,3.999    c2.211,0,3.999-1.788,3.999-3.999v-7.998C107.974,293.72,106.185,291.931,103.975,291.931z" fill="#386641" data-original="#000000" style="" class=""/>
	</g>
</g>
<g xmlns="http://www.w3.org/2000/svg">
	<g>
		<path d="M103.975,323.924c-2.21,0-3.999,1.788-3.999,3.998v7.998c0,2.211,1.789,4,3.999,4c2.211,0,3.999-1.789,3.999-4v-7.998    C107.974,325.712,106.185,323.924,103.975,323.924z" fill="#386641" data-original="#000000" style="" class=""/>
	</g>
</g>
<g xmlns="http://www.w3.org/2000/svg">
	<g>
		<path d="M98.32,304.616l-5.654-5.654c-1.562-1.562-4.093-1.562-5.655,0c-1.562,1.561-1.562,4.092,0,5.654l5.655,5.655    c0.781,0.78,1.804,1.171,2.827,1.171s2.046-0.391,2.827-1.171C99.882,308.708,99.882,306.178,98.32,304.616z" fill="#386641" data-original="#000000" style="" class=""/>
	</g>
</g>
<g xmlns="http://www.w3.org/2000/svg">
	<g>
		<path d="M120.939,327.236l-5.655-5.655c-1.561-1.562-4.092-1.562-5.654,0c-1.562,1.562-1.562,4.093,0,5.655l5.654,5.654    c0.782,0.781,1.805,1.172,2.828,1.172c1.023,0,2.047-0.391,2.827-1.172C122.501,331.328,122.501,328.798,120.939,327.236z" fill="#386641" data-original="#000000" style="" class=""/>
	</g>
</g>
<g xmlns="http://www.w3.org/2000/svg">
	<g>
		<path d="M91.978,311.926H83.98c-2.21,0-3.999,1.789-3.999,4c0,2.21,1.789,3.998,3.999,3.998h7.998c2.21,0,3.999-1.788,3.999-3.998    C95.977,313.715,94.188,311.926,91.978,311.926z" fill="#386641" data-original="#000000" style="" class=""/>
	</g>
</g>
<g xmlns="http://www.w3.org/2000/svg">
	<g>
		<path d="M123.97,311.926h-7.998c-2.21,0-3.999,1.789-3.999,4c0,2.21,1.789,3.998,3.999,3.998h7.998    c2.211,0,3.999-1.788,3.999-3.998C127.969,313.715,126.18,311.926,123.97,311.926z" fill="#386641" data-original="#000000" style="" class=""/>
	</g>
</g>
<g xmlns="http://www.w3.org/2000/svg">
	<g>
		<path d="M98.319,321.581c-1.561-1.562-4.092-1.562-5.654,0l-5.655,5.655c-1.562,1.561-1.562,4.092,0,5.654    c0.782,0.781,1.805,1.172,2.828,1.172s2.046-0.391,2.827-1.172l5.654-5.654C99.881,325.674,99.881,323.143,98.319,321.581z" fill="#386641" data-original="#000000" style="" class=""/>
	</g>
</g>
<g xmlns="http://www.w3.org/2000/svg">
	<g>
		<path d="M120.94,298.962c-1.562-1.562-4.093-1.562-5.655,0l-5.654,5.654c-1.562,1.562-1.562,4.093,0,5.655    c0.781,0.78,1.804,1.171,2.827,1.171s2.046-0.391,2.827-1.171l5.655-5.655C122.502,303.054,122.502,300.524,120.94,298.962z" fill="#386641" data-original="#000000" style="" class=""/>
	</g>
</g>
<g xmlns="http://www.w3.org/2000/svg">
	<g>
		<path d="M485.151,252.145c-23.69-7.897-95.915-22.417-103.858-24.002c-5.507-3.007-50.871-27.572-88.097-39.983    c-22.619-7.529-136.687-24.767-242.505,35.922l-31.196,3.897c-1.632,0.203-2.976,1.398-3.382,2.999l-7.889,31.562l-7.802,15.606    C0.148,278.7,0,279.317,0,279.934c0,12.77,0.992,42.959,10.209,47.566c8.42,4.211,42.942,4.422,49.777,4.422    c2.21,0,3.999-1.789,3.999-4c0-2.21-1.789-3.998-3.999-3.998c-15.098,0-40.99-0.969-46.153-3.555    c-3.054-2.108-5.741-20.433-5.835-39.498l7.577-15.145c0.133-0.258,0.234-0.539,0.304-0.82l7.334-29.329l29.274-3.663    c0.523-0.063,1.039-0.235,1.5-0.508c103.445-59.682,214.7-42.998,236.679-35.656c38.795,12.927,86.824,39.428,87.308,39.694    c0.358,0.203,0.749,0.344,1.155,0.422c0.789,0.156,79.411,15.84,103.491,23.869c16.199,5.397,20.933,40.412,21.245,61.915    c-6.139,1.414-26.534,2.273-43.974,2.273c-2.211,0-3.999,1.788-3.999,3.998c0,2.211,1.788,4,3.999,4    c51.987,0,51.987-4.07,51.988-7.997C511.879,309.177,509.95,260.416,485.151,252.145z" fill="#386641" data-original="#000000" style="" class=""/>
	</g>
</g>
<g xmlns="http://www.w3.org/2000/svg">
	<g>
		<path d="M371.911,323.924H147.964c-2.21,0-3.999,1.788-3.999,3.998c0,2.211,1.789,4,3.999,4h223.948c2.211,0,3.999-1.789,3.998-4    C375.91,325.711,374.122,323.924,371.911,323.924z" fill="#386641" data-original="#000000" style="" class=""/>
	</g>
</g>
<g xmlns="http://www.w3.org/2000/svg">
	<g>
		<path d="M239.834,223.026l-7.998-33.758c-0.508-2.156-2.64-3.507-4.812-2.968c-2.148,0.508-3.476,2.664-2.968,4.812l7.998,33.757    c0.438,1.844,2.078,3.078,3.89,3.078c0.305,0,0.609-0.031,0.922-0.109C239.014,227.33,240.342,225.174,239.834,223.026z" fill="#386641" data-original="#000000" style="" class=""/>
	</g>
</g>
<g xmlns="http://www.w3.org/2000/svg">
	<g>
		<path d="M363.914,227.947H99.976c-2.21,0-3.999,1.788-3.999,3.999c0,2.21,1.789,3.999,3.999,3.999h263.938    c2.211,0,3.999-1.789,3.999-3.999C367.913,229.734,366.125,227.947,363.914,227.947z" fill="#386641" data-original="#000000" style="" class=""/>
	</g>
</g>
<g xmlns="http://www.w3.org/2000/svg">
	<g>
		<path d="M135.185,197.578c-1.304-1.773-3.812-2.156-5.592-0.844c-1.007,0.742-24.783,18.348-33.109,33.258    c-1.078,1.929-0.382,4.366,1.539,5.444c0.617,0.344,1.289,0.508,1.953,0.508c1.399,0,2.757-0.742,3.49-2.046    c7.482-13.395,30.642-30.555,30.876-30.727C136.114,201.867,136.497,199.359,135.185,197.578z" fill="#386641" data-original="#000000" style="" class=""/>
	</g>
</g>
<g xmlns="http://www.w3.org/2000/svg">
	<g>
		<path d="M499.006,267.937h-23.119c-2.21,0-3.999,1.788-3.999,3.999s1.789,3.999,3.999,3.999h23.119    c2.211,0,3.999-1.788,3.999-3.999S501.217,267.937,499.006,267.937z" fill="#386641" data-original="#000000" style="" class=""/>
	</g>
</g>
<g xmlns="http://www.w3.org/2000/svg">
	<g>
		<path d="M478.714,269.108l-15.996-15.996c-1.562-1.562-4.092-1.562-5.654,0c-1.562,1.561-1.562,4.092,0,5.654l15.996,15.997    c0.781,0.78,1.804,1.171,2.827,1.171c1.024,0,2.046-0.391,2.827-1.171C480.276,273.201,480.276,270.67,478.714,269.108z" fill="#386641" data-original="#000000" style="" class=""/>
	</g>
</g>
<g xmlns="http://www.w3.org/2000/svg">
	<g>
		<path d="M51.995,244.044l-35.992-0.102h-0.008c-2.202,0-3.991,1.781-3.999,3.991c-0.008,2.202,1.781,3.999,3.991,4.007    l35.992,0.102h0.008c2.203,0,3.992-1.782,3.999-3.991C55.994,245.849,54.205,244.052,51.995,244.044z" fill="#386641" data-original="#000000" style="" class=""/>
	</g>
</g>
<g xmlns="http://www.w3.org/2000/svg">
	<g>
		<path d="M54.823,245.224c-1.547-1.562-4.077-1.578-5.655-0.016l-15.996,15.895c-1.562,1.553-1.578,4.085-0.016,5.654    c0.781,0.789,1.804,1.18,2.835,1.18c1.015,0,2.039-0.391,2.82-1.163l15.996-15.895C56.369,249.325,56.385,246.794,54.823,245.224z    " fill="#386641" data-original="#000000" style="" class=""/>
	</g>
</g>
<g xmlns="http://www.w3.org/2000/svg">
	<g>
		<path d="M35.992,259.939H11.997c-2.21,0-3.999,1.788-3.999,3.999s1.789,3.999,3.999,3.999h23.994c2.211,0,4-1.788,4-3.999    S38.202,259.939,35.992,259.939z" fill="#386641" data-original="#000000" style="" class=""/>
	</g>
</g>
<g xmlns="http://www.w3.org/2000/svg">
	<g>
		<path d="M507.45,307.927h-7.568c-2.21,0-3.999,1.789-3.999,3.999c0,2.211,1.789,4,3.999,4h7.568c2.211,0,3.999-1.789,3.999-4    C511.449,309.716,509.661,307.927,507.45,307.927z" fill="#386641" data-original="#000000" style="" class=""/>
	</g>
</g>
<g xmlns="http://www.w3.org/2000/svg">
	<g>
		<path d="M179.957,259.939h-15.996c-2.21,0-3.999,1.788-3.999,3.999v15.996c0,2.211,1.789,3.999,3.999,3.999h15.996    c2.211,0,4-1.788,4-3.999v-15.996C183.957,261.727,182.167,259.939,179.957,259.939z M175.958,275.935h-7.998v-7.998h7.998    V275.935z" fill="#386641" data-original="#000000" style="" class=""/>
	</g>
</g>
<g xmlns="http://www.w3.org/2000/svg">
	<g>
		<path d="M195.954,275.935h-15.997c-2.21,0-3.999,1.789-3.999,3.999v15.996c0,2.211,1.789,3.999,3.999,3.999h15.997    c2.21,0,3.999-1.788,3.999-3.999v-15.996C199.953,277.724,198.164,275.935,195.954,275.935z M191.955,291.93h-7.998v-7.998h7.998    V291.93z" fill="#386641" data-original="#000000" style="" class=""/>
	</g>
</g>
<g xmlns="http://www.w3.org/2000/svg">
	<g>
		<path d="M211.95,259.939h-15.996c-2.211,0-3.999,1.788-3.999,3.999v15.996c0,2.211,1.788,3.999,3.999,3.999h15.996    c2.21,0,3.999-1.788,3.999-3.999v-15.996C215.949,261.727,214.16,259.939,211.95,259.939z M207.951,275.935h-7.998v-7.998h7.998    V275.935z" fill="#386641" data-original="#000000" style="" class=""/>
	</g>
</g>
<g xmlns="http://www.w3.org/2000/svg">
	<g>
		<path d="M227.946,275.935H211.95c-2.21,0-3.999,1.789-3.999,3.999v15.996c0,2.211,1.789,3.999,3.999,3.999h15.996    c2.21,0,3.999-1.788,3.999-3.999v-15.996C231.945,277.724,230.156,275.935,227.946,275.935z M223.947,291.93h-7.998v-7.998h7.998    V291.93z" fill="#386641" data-original="#000000" style="" class=""/>
	</g>
</g>
<g xmlns="http://www.w3.org/2000/svg">
	<g>
		<path d="M243.942,259.939h-15.996c-2.21,0-3.999,1.788-3.999,3.999v15.996c0,2.211,1.789,3.999,3.999,3.999h15.996    c2.21,0,3.999-1.788,3.999-3.999v-15.996C247.941,261.727,246.152,259.939,243.942,259.939z M239.943,275.935h-7.998v-7.998h7.998    V275.935z" fill="#386641" data-original="#000000" style="" class=""/>
	</g>
</g>
<g xmlns="http://www.w3.org/2000/svg">
	<g>
		<path d="M259.938,275.935h-15.996c-2.21,0-3.999,1.789-3.999,3.999v15.996c0,2.211,1.789,3.999,3.999,3.999h15.996    c2.211,0,3.999-1.788,3.999-3.999v-15.996C263.937,277.724,262.149,275.935,259.938,275.935z M255.939,291.93h-7.998v-7.998h7.998    V291.93z" fill="#386641" data-original="#000000" style="" class=""/>
	</g>
</g>
<g xmlns="http://www.w3.org/2000/svg">
	<g>
		<path d="M275.934,259.939h-15.996c-2.21,0-3.999,1.788-3.999,3.999v15.996c0,2.211,1.789,3.999,3.999,3.999h15.996    c2.211,0,3.999-1.788,3.999-3.999v-15.996C279.933,261.727,278.145,259.939,275.934,259.939z M271.935,275.935h-7.998v-7.998    h7.998V275.935z" fill="#386641" data-original="#000000" style="" class=""/>
	</g>
</g>
<g xmlns="http://www.w3.org/2000/svg">
	<g>
		<path d="M291.931,275.935h-15.997c-2.21,0-3.999,1.789-3.999,3.999v15.996c0,2.211,1.789,3.999,3.999,3.999h15.997    c2.21,0,3.998-1.788,3.998-3.999v-15.996C295.929,277.724,294.141,275.935,291.931,275.935z M287.931,291.93h-7.998v-7.998h7.998    V291.93z" fill="#386641" data-original="#000000" style="" class=""/>
	</g>
</g>
<g xmlns="http://www.w3.org/2000/svg">
	<g>
		<path d="M307.927,259.939h-15.996c-2.211,0-4,1.788-4,3.999v15.996c0,2.211,1.789,3.999,4,3.999h15.996    c2.21,0,3.999-1.788,3.999-3.999v-15.996C311.926,261.727,310.137,259.939,307.927,259.939z M303.927,275.935h-7.998v-7.998h7.998    V275.935z" fill="#386641" data-original="#000000" style="" class=""/>
	</g>
</g>
<g xmlns="http://www.w3.org/2000/svg">
	<g>
		<path d="M323.923,275.935h-15.996c-2.211,0-4,1.789-4,3.999v15.996c0,2.211,1.789,3.999,4,3.999h15.996    c2.21,0,3.999-1.788,3.999-3.999v-15.996C327.922,277.724,326.133,275.935,323.923,275.935z M319.924,291.93h-7.998v-7.998h7.998    V291.93z" fill="#386641" data-original="#000000" style="" class=""/>
	</g>
</g>
<g xmlns="http://www.w3.org/2000/svg">
	<g>
		<path d="M339.919,259.939h-15.996c-2.211,0-3.999,1.788-3.999,3.999v15.996c0,2.211,1.788,3.999,3.999,3.999h15.996    c2.21,0,3.999-1.788,3.999-3.999v-15.996C343.918,261.727,342.129,259.939,339.919,259.939z M335.92,275.935h-7.998v-7.998h7.998    V275.935z" fill="#386641" data-original="#000000" style="" class=""/>
	</g>
</g>
<g xmlns="http://www.w3.org/2000/svg">
	<g>
		<path d="M239.826,174.991l-3.999-15.996c-0.539-2.148-2.757-3.43-4.851-2.914c-2.147,0.539-3.444,2.711-2.913,4.851l3.999,15.996    c0.453,1.82,2.086,3.03,3.882,3.03c0.32,0,0.648-0.039,0.969-0.116C239.06,179.302,240.357,177.13,239.826,174.991z" fill="#386641" data-original="#000000" style="" class=""/>
	</g>
</g>
<g xmlns="http://www.w3.org/2000/svg">
	<g>
		<path d="M216.918,156.08c-2.172-0.507-4.32,0.766-4.851,2.914l-3.999,15.996c-0.531,2.141,0.765,4.312,2.913,4.851    c0.328,0.078,0.649,0.117,0.969,0.117c1.796,0,3.428-1.21,3.882-3.031l3.999-15.996    C220.362,158.789,219.065,156.619,216.918,156.08z" fill="#386641" data-original="#000000" style="" class=""/>
	</g>
</g>
<g xmlns="http://www.w3.org/2000/svg">
	<g>
		<path d="M231.945,155.963h-15.996c-2.21,0-3.999,1.789-3.999,3.999c0,2.211,1.789,3.999,3.999,3.999h15.996    c2.21,0,3.999-1.788,3.999-3.999C235.944,157.752,234.155,155.963,231.945,155.963z" fill="#386641" data-original="#000000" style="" class=""/>
	</g>
</g>
<g xmlns="http://www.w3.org/2000/svg">
</g>
<g xmlns="http://www.w3.org/2000/svg">
</g>
<g xmlns="http://www.w3.org/2000/svg">
</g>
<g xmlns="http://www.w3.org/2000/svg">
</g>
<g xmlns="http://www.w3.org/2000/svg">
</g>
<g xmlns="http://www.w3.org/2000/svg">
</g>
<g xmlns="http://www.w3.org/2000/svg">
</g>
<g xmlns="http://www.w3.org/2000/svg">
</g>
<g xmlns="http://www.w3.org/2000/svg">
</g>
<g xmlns="http://www.w3.org/2000/svg">
</g>
<g xmlns="http://www.w3.org/2000/svg">
</g>
<g xmlns="http://www.w3.org/2000/svg">
</g>
<g xmlns="http://www.w3.org/2000/svg">
</g>
<g xmlns="http://www.w3.org/2000/svg">
</g>
<g xmlns="http://www.w3.org/2000/svg">
</g>
</g></svg>
