<?xml version="1.0" encoding="utf-8"?>
<!-- Generator: Adobe Illustrator 24.0.1, SVG Export Plug-In . SVG Version: 6.00 Build 0)  -->
<svg version="1.1" id="Layer_1" xmlns:svgjs="http://svgjs.com/svgjs"
	 xmlns="http://www.w3.org/2000/svg" xmlns:xlink="http://www.w3.org/1999/xlink" x="0px" y="0px" viewBox="0 0 512 512"
	 style="enable-background:new 0 0 512 512;" xml:space="preserve">
<style type="text/css">
	.st0{fill:#386641;}
</style>
<g>
	<g>
		<g>
			<path class="st0" d="M120,328c0,11,9,20,20,20c11,0,20-9,20-20c0-11-9-20-20-20C129,308,120,317,120,328z M128,328
				c0-6.6,5.4-12,12-12s12,5.4,12,12c0,6.6-5.4,12-12,12C133.4,340,128,334.6,128,328z"/>
		</g>
	</g>
	<g>
		<g>
			<path class="st0" d="M104,328c0,19.9,16.1,36,36,36c19.9,0,36-16.1,36-36s-16.1-36-36-36S104,308.1,104,328z M112,328
				c0-15.4,12.6-28,28-28c15.4,0,28,12.6,28,28c0,15.4-12.6,28-28,28S112,343.4,112,328z"/>
		</g>
	</g>
	<g>
		<g>
			<path class="st0" d="M416,328c0,11,9,20,20,20c11,0,20-9,20-20c0-11-9-20-20-20C425,308,416,317,416,328z M424,328
				c0-6.6,5.4-12,12-12c6.6,0,12,5.4,12,12c0,6.6-5.4,12-12,12C429.4,340,424,334.6,424,328z"/>
		</g>
	</g>
	<g>
		<g>
			<path class="st0" d="M400,328c0,19.9,16.1,36,36,36s36-16.1,36-36s-16.1-36-36-36S400,308.1,400,328z M408,328
				c0-15.4,12.6-28,28-28s28,12.6,28,28c0,15.4-12.6,28-28,28S408,343.4,408,328z"/>
		</g>
	</g>
	<g>
		<g>
			<path class="st0" d="M176,336c0,2.2,1.8,4,4,4h216c2.2,0,4-1.8,4-4c0-2.2-1.8-4-4-4H180C177.8,332,176,333.8,176,336z"/>
		</g>
	</g>
	<g>
		<g>
			<path class="st0" d="M8,336c0,2.2,1.8,4,4,4h88.3c2.2,0,4-1.8,4-4c0-2.2-1.8-4-4-4H12C9.8,332,8,333.8,8,336z"/>
		</g>
	</g>
	<g>
		<g>
			<path class="st0" d="M8,272v64c0,2.2,1.8,4,4,4s4-1.8,4-4v-64c0-2.2-1.8-4-4-4S8,269.8,8,272z"/>
		</g>
	</g>
	<g>
		<g>
			<path class="st0" d="M8,272c0,2.2,1.8,4,4,4s4-1.8,4-4c0-15.4,15.7-86.4,15.9-87.1c0.5-2.2-0.9-4.3-3-4.8c-2.2-0.5-4.3,0.9-4.8,3
				C23.4,186.1,8,255.8,8,272z"/>
		</g>
	</g>
	<g>
		<g>
			<path class="st0" d="M56,168c0,2.2,1.8,4,4,4h430.7c2.2,0,4-1.8,4-4c0-2.2-1.8-4-4-4H60C57.8,164,56,165.8,56,168z"/>
		</g>
	</g>
	<g>
		<g>
			<path class="st0" d="M352,152v7.3c0,2.2,1.8,4,4,4c2.2,0,4-1.8,4-4V152c0-2.2-1.8-4-4-4S352,149.8,352,152z"/>
		</g>
	</g>
	<g>
		<g>
			<path class="st0" d="M240,152c0,2.2,1.8,4,4,4h112c2.2,0,4-1.8,4-4c0-2.2-1.8-4-4-4H244C241.8,148,240,149.8,240,152z"/>
		</g>
	</g>
	<g>
		<g>
			<path class="st0" d="M224.4,161.8c0.7,1.4,2.1,2.2,3.6,2.2c0.6,0,1.2-0.1,1.8-0.4l16-8c2-1,2.8-3.4,1.8-5.4c-1-2-3.4-2.8-5.4-1.8
				l-16,8C224.2,157.4,223.4,159.8,224.4,161.8z"/>
		</g>
	</g>
	<g>
		<g>
			<path class="st0" d="M152,152c0,2.2,1.8,4,4,4h40c2.2,0,4-1.8,4-4c0-2.2-1.8-4-4-4h-40C153.8,148,152,149.8,152,152z"/>
		</g>
	</g>
	<g>
		<g>
			<path class="st0" d="M384,152c0,2.2,1.8,4,4,4h40c2.2,0,4-1.8,4-4c0-2.2-1.8-4-4-4h-40C385.8,148,384,149.8,384,152z"/>
		</g>
	</g>
	<g>
		<g>
			<path class="st0" d="M0.4,193.8c0.7,1.4,2.1,2.2,3.6,2.2c0.6,0,1.2-0.1,1.8-0.4l16-8c2-1,2.8-3.4,1.8-5.4c-1-2-3.4-2.8-5.4-1.8
				l-16,8C0.2,189.4-0.6,191.8,0.4,193.8z"/>
		</g>
	</g>
	<g>
		<g>
			<path class="st0" d="M0,192l0,24c0,2.2,1.8,4,4,4c2.2,0,4-1.8,4-4v-24c0-2.2-1.8-4-4-4C1.8,188,0,189.8,0,192z"/>
		</g>
	</g>
	<g>
		<g>
			<path class="st0" d="M312,240c0,2.2,1.8,4,4,4h48c2.2,0,4-1.8,4-4c0-2.2-1.8-4-4-4h-48C313.8,236,312,237.8,312,240z"/>
		</g>
	</g>
	<g>
		<g>
			<path class="st0" d="M312,240v88c0,2.2,1.8,4,4,4c2.2,0,4-1.8,4-4v-88c0-2.2-1.8-4-4-4C313.8,236,312,237.8,312,240z"/>
		</g>
	</g>
	<g>
		<g>
			<path class="st0" d="M360,240v88c0,2.2,1.8,4,4,4c2.2,0,4-1.8,4-4v-88c0-2.2-1.8-4-4-4C361.8,236,360,237.8,360,240z"/>
		</g>
	</g>
	<g>
		<g>
			<path class="st0" d="M160,288c0,2.2,1.8,4,4,4h144c2.2,0,4-1.8,4-4c0-2.2-1.8-4-4-4H164C161.8,284,160,285.8,160,288z"/>
		</g>
	</g>
	<g>
		<g>
			<path class="st0" d="M240,290.2V328c0,2.2,1.8,4,4,4c2.2,0,4-1.8,4-4v-37.8c0-2.2-1.8-4-4-4C241.8,286.2,240,288,240,290.2z"/>
		</g>
	</g>
	<g>
		<g>
			<path class="st0" d="M200,312c0,2.2,1.8,4,4,4h16c2.2,0,4-1.8,4-4c0-2.2-1.8-4-4-4h-16C201.8,308,200,309.8,200,312z"/>
		</g>
	</g>
	<g>
		<g>
			<path class="st0" d="M264,312c0,2.2,1.8,4,4,4h16c2.2,0,4-1.8,4-4c0-2.2-1.8-4-4-4h-16C265.8,308,264,309.8,264,312z"/>
		</g>
	</g>
	<g>
		<g>
			<path class="st0" d="M72,176v151.8c0,2.2,1.8,4,4,4c2.2,0,4-1.8,4-4V176c0-2.2-1.8-4-4-4C73.8,172,72,173.8,72,176z"/>
		</g>
	</g>
	<g>
		<g>
			<path class="st0" d="M29,240c0,2.2,1.8,4,4,4h43c2.2,0,4-1.8,4-4c0-2.2-1.8-4-4-4H33C30.8,236,29,237.8,29,240z"/>
		</g>
	</g>
	<g>
		<g>
			<path class="st0" d="M34,216c0,2.2,1.8,4,4,4h38c2.2,0,4-1.8,4-4c0-2.2-1.8-4-4-4H38C35.8,212,34,213.8,34,216z"/>
		</g>
	</g>
	<g>
		<g>
			<path class="st0" d="M27,187.9c0.3,0.1,0.6,0.1,1,0.1c1.8,0,3.4-1.2,3.9-3c2.6-10.3,19.5-13,28.1-13c2.2,0,4-1.8,4-4
				c0-2.2-1.8-4-4-4c-3.2,0-31.3,0.5-35.9,19C23.6,185.2,24.9,187.3,27,187.9z"/>
		</g>
	</g>
	<g>
		<g>
			<path class="st0" d="M24,272v56c0,2.2,1.8,4,4,4s4-1.8,4-4v-56c0-9.1,9.5-64.9,15.8-86.9c0.6-2.1-0.6-4.3-2.7-4.9
				c-2.1-0.7-4.3,0.6-4.9,2.7C33.6,206,24,262.3,24,272z"/>
		</g>
	</g>
	<g>
		<g>
			<path class="st0" d="M56,288.2v7.8c0,2.2,1.8,4,4,4c2.2,0,4-1.8,4-4v-7.8c0-2.2-1.8-4-4-4C57.8,284.2,56,286,56,288.2z"/>
		</g>
	</g>
	<g>
		<g>
			<path class="st0" d="M328,256c0,2.2,1.8,4,4,4h16c2.2,0,4-1.8,4-4c0-2.2-1.8-4-4-4h-16C329.8,252,328,253.8,328,256z"/>
		</g>
	</g>
	<g>
		<g>
			<path class="st0" d="M80,240c0,2.2,1.8,4,4,4h224c2.2,0,4-1.8,4-4c0-2.2-1.8-4-4-4H84C81.8,236,80,237.8,80,240z"/>
		</g>
	</g>
	<g>
		<g>
			<path class="st0" d="M368,240c0,2.2,1.8,4,4,4h112c2.2,0,4-1.8,4-4c0-2.2-1.8-4-4-4H372C369.8,236,368,237.8,368,240z"/>
		</g>
	</g>
	<g>
		<g>
			<path class="st0" d="M168,176v56c0,2.2,1.8,4,4,4c2.2,0,4-1.8,4-4v-56c0-2.2-1.8-4-4-4C169.8,172,168,173.8,168,176z"/>
		</g>
	</g>
	<g>
		<g>
			<path class="st0" d="M272,176v56c0,2.2,1.8,4,4,4s4-1.8,4-4v-56c0-2.2-1.8-4-4-4S272,173.8,272,176z"/>
		</g>
	</g>
	<g>
		<g>
			<path class="st0" d="M376,176v56c0,2.2,1.8,4,4,4c2.2,0,4-1.8,4-4v-56c0-2.2-1.8-4-4-4C377.8,172,376,173.8,376,176z"/>
		</g>
	</g>
	<g>
		<g>
			<path class="st0" d="M480,176v56c0,2.2,1.8,4,4,4c2.2,0,4-1.8,4-4v-56c0-2.2-1.8-4-4-4C481.8,172,480,173.8,480,176z"/>
		</g>
	</g>
	<g>
		<g>
			<path class="st0" d="M504,185.3V320c0,2.2,1.8,4,4,4c2.2,0,4-1.8,4-4V185.3c0-2.2-1.8-4-4-4C505.8,181.3,504,183.1,504,185.3z"/>
		</g>
	</g>
	<g>
		<g>
			<path class="st0" d="M472,336c0,2.2,1.8,4,4,4h16c2.2,0,4-1.8,4-4c0-2.2-1.8-4-4-4h-16C473.8,332,472,333.8,472,336z"/>
		</g>
	</g>
	<g>
		<g>
			<path class="st0" d="M384.4,225.8c0.7,1.4,2.1,2.2,3.6,2.2c0.6,0,1.2-0.1,1.8-0.4c17.7-8.9,18.2-47.2,18.2-51.6c0-2.2-1.8-4-4-4
				c-2.2,0-4,1.8-4,4c0,10.4-2.5,38.8-13.8,44.4C384.2,221.4,383.4,223.8,384.4,225.8z"/>
		</g>
	</g>
	<g>
		<g>
			<path class="st0" d="M385.2,226.8l8,8c0.8,0.8,1.8,1.2,2.8,1.2c1,0,2-0.4,2.8-1.2c1.6-1.6,1.6-4.1,0-5.7l-8-8
				c-1.6-1.6-4.1-1.6-5.7,0C383.6,222.7,383.6,225.3,385.2,226.8z"/>
		</g>
	</g>
	<g>
		<g>
			<path class="st0" d="M280.4,225.8c0.7,1.4,2.1,2.2,3.6,2.2c0.6,0,1.2-0.1,1.8-0.4c17.7-8.9,18.2-47.2,18.2-51.6c0-2.2-1.8-4-4-4
				c-2.2,0-4,1.8-4,4c0,10.4-2.5,38.8-13.8,44.4C280.2,221.4,279.4,223.8,280.4,225.8z"/>
		</g>
	</g>
	<g>
		<g>
			<path class="st0" d="M281.2,226.8l8,8c0.8,0.8,1.8,1.2,2.8,1.2c1,0,2-0.4,2.8-1.2c1.6-1.6,1.6-4.1,0-5.7l-8-8
				c-1.6-1.6-4.1-1.6-5.7,0C279.6,222.7,279.6,225.3,281.2,226.8z"/>
		</g>
	</g>
	<g>
		<g>
			<path class="st0" d="M176.4,225.8c0.7,1.4,2.1,2.2,3.6,2.2c0.6,0,1.2-0.1,1.8-0.4c17.7-8.9,18.2-47.2,18.2-51.6c0-2.2-1.8-4-4-4
				c-2.2,0-4,1.8-4,4c0,10.4-2.5,38.8-13.8,44.4C176.2,221.4,175.4,223.8,176.4,225.8z"/>
		</g>
	</g>
	<g>
		<g>
			<path class="st0" d="M177.2,226.8l8,8c0.8,0.8,1.8,1.2,2.8,1.2c1,0,2-0.4,2.8-1.2c1.6-1.6,1.6-4.1,0-5.7l-8-8
				c-1.6-1.6-4.1-1.6-5.7,0C175.6,222.7,175.6,225.3,177.2,226.8z"/>
		</g>
	</g>
	<g>
		<g>
			<path class="st0" d="M80.4,225.8c0.7,1.4,2.1,2.2,3.6,2.2c0.6,0,1.2-0.1,1.8-0.4c17.7-8.9,18.2-47.2,18.2-51.6c0-2.2-1.8-4-4-4
				c-2.2,0-4,1.8-4,4c0,10.4-2.5,38.8-13.8,44.4C80.2,221.4,79.4,223.8,80.4,225.8z"/>
		</g>
	</g>
	<g>
		<g>
			<path class="st0" d="M81.2,226.8l8,8C90,235.6,91,236,92,236c1,0,2-0.4,2.8-1.2c1.6-1.6,1.6-4.1,0-5.7l-8-8
				c-1.6-1.6-4.1-1.6-5.7,0C79.6,222.7,79.6,225.3,81.2,226.8z"/>
		</g>
	</g>
	<g>
		<g>
			<path class="st0" d="M144,176c0,4.3,0.5,42.7,18.2,51.6c0.6,0.3,1.2,0.4,1.8,0.4c1.5,0,2.9-0.8,3.6-2.2c1-2,0.2-4.4-1.8-5.4
				c-11.3-5.6-13.8-34-13.8-44.4c0-2.2-1.8-4-4-4C145.8,172,144,173.8,144,176z"/>
		</g>
	</g>
	<g>
		<g>
			<path class="st0" d="M153.2,234.8c0.8,0.8,1.8,1.2,2.8,1.2s2-0.4,2.8-1.2l8-8c1.6-1.6,1.6-4.1,0-5.7c-1.6-1.6-4.1-1.6-5.7,0l-8,8
				C151.6,230.7,151.6,233.3,153.2,234.8z"/>
		</g>
	</g>
	<g>
		<g>
			<path class="st0" d="M248,176c0,4.3,0.5,42.7,18.2,51.6c0.6,0.3,1.2,0.4,1.8,0.4c1.5,0,2.9-0.8,3.6-2.2c1-2,0.2-4.4-1.8-5.4
				c-11.3-5.6-13.8-34-13.8-44.4c0-2.2-1.8-4-4-4C249.8,172,248,173.8,248,176z"/>
		</g>
	</g>
	<g>
		<g>
			<path class="st0" d="M257.2,234.8c0.8,0.8,1.8,1.2,2.8,1.2c1,0,2-0.4,2.8-1.2l8-8c1.6-1.6,1.6-4.1,0-5.7c-1.6-1.6-4.1-1.6-5.7,0
				l-8,8C255.6,230.7,255.6,233.3,257.2,234.8z"/>
		</g>
	</g>
	<g>
		<g>
			<path class="st0" d="M352,176c0,4.3,0.5,42.7,18.2,51.6c0.6,0.3,1.2,0.4,1.8,0.4c1.5,0,2.9-0.8,3.6-2.2c1-2,0.2-4.4-1.8-5.4
				c-11.3-5.6-13.8-34-13.8-44.4c0-2.2-1.8-4-4-4S352,173.8,352,176z"/>
		</g>
	</g>
	<g>
		<g>
			<path class="st0" d="M361.2,234.8c0.8,0.8,1.8,1.2,2.8,1.2c1,0,2-0.4,2.8-1.2l8-8c1.6-1.6,1.6-4.1,0-5.7c-1.6-1.6-4.1-1.6-5.7,0
				l-8,8C359.6,230.7,359.6,233.3,361.2,234.8z"/>
		</g>
	</g>
	<g>
		<g>
			<path class="st0" d="M456,176c0,4.3,0.5,42.7,18.2,51.6c0.6,0.3,1.2,0.4,1.8,0.4c1.5,0,2.9-0.8,3.6-2.2c1-2,0.2-4.4-1.8-5.4
				c-11.3-5.6-13.8-34-13.8-44.4c0-2.2-1.8-4-4-4C457.8,172,456,173.8,456,176z"/>
		</g>
	</g>
	<g>
		<g>
			<path class="st0" d="M465.2,234.8c0.8,0.8,1.8,1.2,2.8,1.2c1,0,2-0.4,2.8-1.2l8-8c1.6-1.6,1.6-4.1,0-5.7c-1.6-1.6-4.1-1.6-5.7,0
				l-8,8C463.6,230.7,463.6,233.3,465.2,234.8z"/>
		</g>
	</g>
	<g>
		<g>
			<path class="st0" d="M488,336c0,2.2,1.8,4,4,4c11,0,20-9,20-20c0-2.2-1.8-4-4-4c-2.2,0-4,1.8-4,4c0,6.6-5.4,12-12,12
				C489.8,332,488,333.8,488,336z"/>
		</g>
	</g>
	<g>
		<g>
			<path class="st0" d="M486.7,168c0,2.2,1.8,4,4,4c7.4,0,13.3,6,13.3,13.3c0,2.2,1.8,4,4,4c2.2,0,4-1.8,4-4
				c0-11.8-9.6-21.3-21.3-21.3C488.5,164,486.7,165.8,486.7,168z"/>
		</g>
	</g>
</g>
</svg>
