<?xml version="1.0" encoding="utf-8"?>
<!-- Generator: Adobe Illustrator 24.0.1, SVG Export Plug-In . SVG Version: 6.00 Build 0)  -->
<svg version="1.1" id="Layer_1" xmlns:svgjs="http://svgjs.com/svgjs"
	 xmlns="http://www.w3.org/2000/svg" xmlns:xlink="http://www.w3.org/1999/xlink" x="0px" y="0px" viewBox="0 0 512 512"
	 style="enable-background:new 0 0 512 512;" xml:space="preserve">
<style type="text/css">
	.st0{fill:#386641;}
</style>
<g>
	<g>
		<g>
			<path class="st0" d="M16,320c0,1.1,0.4,2.1,1.2,2.8l6.8,6.8V376c0,2.2,1.8,4,4,4h48c2.2,0,4-1.8,4-4c0-1.5,0.4-36,28-36h56
				c2.2,0,4-1.8,4-4V208c0-2.2-1.8-4-4-4h-48c-27,0-49.2,8.5-66,25.4C16.3,263.1,16,317.7,16,320z M24,318.4
				c0.2-6.3,1.7-29.8,11.7-53C50.9,230,78,212,116,212h44v120h-52c-26.1,0-34.6,24.2-35.8,40H32v-44c0-1.1-0.4-2.1-1.2-2.8L24,318.4
				z"/>
		</g>
	</g>
	<g>
		<g>
			<path class="st0" d="M8,328v16c0,2.2,1.8,4,4,4s4-1.8,4-4v-16c0-2.2-1.8-4-4-4S8,325.8,8,328z"/>
		</g>
	</g>
	<g>
		<g>
			<path class="st0" d="M0,352c0,2.2,1.8,4,4,4h15.9c2.2,0,4-1.8,4-4c0-2.2-1.8-4-4-4H4C1.8,348,0,349.8,0,352z"/>
		</g>
	</g>
	<g>
		<g>
			<path class="st0" d="M0,352l0,24c0,2.2,1.8,4,4,4c2.2,0,4-1.8,4-4v-24c0-2.2-1.8-4-4-4C1.8,348,0,349.8,0,352z"/>
		</g>
	</g>
	<g>
		<g>
			<path class="st0" d="M0,376c0,2.2,1.8,4,4,4h16c2.2,0,4-1.8,4-4s-1.8-4-4-4H4C1.8,372,0,373.8,0,376z"/>
		</g>
	</g>
	<g>
		<g>
			<path class="st0" d="M88,388c0,22.1,17.9,40,40,40s40-17.9,40-40c0-22.1-17.9-40-40-40C105.9,348,88,365.9,88,388z M96,388
				c0-17.6,14.4-32,32-32s32,14.4,32,32c0,17.6-14.4,32-32,32C110.4,420,96,405.6,96,388z"/>
		</g>
	</g>
	<g>
		<g>
			<path class="st0" d="M104,388c0,13.2,10.8,24,24,24s24-10.8,24-24c0-13.2-10.8-24-24-24C114.8,364,104,374.8,104,388z M112,388
				c0-8.8,7.2-16,16-16s16,7.2,16,16c0,8.8-7.2,16-16,16S112,396.8,112,388z"/>
		</g>
	</g>
	<g>
		<g>
			<path class="st0" d="M123.8,376c0,2.2,1.8,4,4,4c2.2,0,4-1.8,4-4s-1.8-4-4-4h-0.1C125.6,372,123.8,373.8,123.8,376z"/>
		</g>
	</g>
	<g>
		<g>
			<path class="st0" d="M123.8,400c0,2.2,1.8,4,4,4c2.2,0,4-1.8,4-4s-1.8-4-4-4h-0.1C125.6,396,123.8,397.8,123.8,400z"/>
		</g>
	</g>
	<g>
		<g>
			<path class="st0" d="M134.1,382c0,2.2,1.8,4,4,4c2.2,0,4-1.8,4-4c0-2.2-1.7-4-4-4h-0.1C135.9,378,134.1,379.8,134.1,382z"/>
		</g>
	</g>
	<g>
		<g>
			<path class="st0" d="M113.4,394c0,2.2,1.8,4,4,4c2.2,0,4-1.8,4-4c0-2.2-1.7-4-4-4h-0.1C115.2,390,113.4,391.8,113.4,394z"/>
		</g>
	</g>
	<g>
		<g>
			<path class="st0" d="M134.1,394c0,2.2,1.8,4,4,4c2.2,0,4-1.8,4-4c0-2.2-1.7-4-4-4h-0.1C135.9,390,134.1,391.8,134.1,394z"/>
		</g>
	</g>
	<g>
		<g>
			<path class="st0" d="M113.4,382c0,2.2,1.8,4,4,4c2.2,0,4-1.8,4-4c0-2.2-1.7-4-4-4h-0.1C115.2,378,113.4,379.8,113.4,382z"/>
		</g>
	</g>
	<g>
		<g>
			<path class="st0" d="M123.8,388c0,2.2,1.8,4,4,4c2.2,0,4-1.8,4-4c0-2.2-1.8-4-4-4h-0.1C125.6,384,123.8,385.8,123.8,388z"/>
		</g>
	</g>
	<g>
		<g>
			<path class="st0" d="M384,388c0,22.1,17.9,40,40,40c22.1,0,40-17.9,40-40c0-22.1-17.9-40-40-40C401.9,348,384,365.9,384,388z
				 M392,388c0-17.6,14.4-32,32-32c17.6,0,32,14.4,32,32c0,17.6-14.4,32-32,32C406.4,420,392,405.6,392,388z"/>
		</g>
	</g>
	<g>
		<g>
			<path class="st0" d="M400,388c0,13.2,10.8,24,24,24s24-10.8,24-24c0-13.2-10.8-24-24-24S400,374.8,400,388z M408,388
				c0-8.8,7.2-16,16-16s16,7.2,16,16c0,8.8-7.2,16-16,16C415.2,404,408,396.8,408,388z"/>
		</g>
	</g>
	<g>
		<g>
			<path class="st0" d="M419.8,376c0,2.2,1.8,4,4,4c2.2,0,4-1.8,4-4s-1.7-4-4-4h-0.1C421.6,372,419.8,373.8,419.8,376z"/>
		</g>
	</g>
	<g>
		<g>
			<path class="st0" d="M419.8,400c0,2.2,1.8,4,4,4c2.2,0,4-1.8,4-4s-1.7-4-4-4h-0.1C421.6,396,419.8,397.8,419.8,400z"/>
		</g>
	</g>
	<g>
		<g>
			<path class="st0" d="M430.2,382c0,2.2,1.8,4,4,4c2.2,0,4-1.8,4-4c0-2.2-1.8-4-4-4h-0.1C431.9,378,430.2,379.8,430.2,382z"/>
		</g>
	</g>
	<g>
		<g>
			<path class="st0" d="M409.4,394c0,2.2,1.8,4,4,4c2.2,0,4-1.8,4-4c0-2.2-1.8-4-4-4h-0.1C411.2,390,409.4,391.8,409.4,394z"/>
		</g>
	</g>
	<g>
		<g>
			<path class="st0" d="M430.2,394c0,2.2,1.8,4,4,4c2.2,0,4-1.8,4-4c0-2.2-1.8-4-4-4h-0.1C431.9,390,430.2,391.8,430.2,394z"/>
		</g>
	</g>
	<g>
		<g>
			<path class="st0" d="M409.4,382c0,2.2,1.8,4,4,4c2.2,0,4-1.8,4-4c0-2.2-1.8-4-4-4h-0.1C411.2,378,409.4,379.8,409.4,382z"/>
		</g>
	</g>
	<g>
		<g>
			<path class="st0" d="M419.8,388c0,2.2,1.8,4,4,4c2.2,0,4-1.8,4-4c0-2.2-1.7-4-4-4h-0.1C421.6,384,419.8,385.8,419.8,388z"/>
		</g>
	</g>
	<g>
		<g>
			<path class="st0" d="M32,304c0,2.2,1.8,4,4,4c18.3,0,25.3-11.7,31.4-21.9C73.2,276.4,78.3,268,92,268h56c2.2,0,4-1.8,4-4
				c0-2.2-1.8-4-4-4H92c-18.3,0-25.3,11.7-31.4,21.9C54.8,291.6,49.7,300,36,300C33.8,300,32,301.8,32,304z"/>
		</g>
	</g>
	<g>
		<g>
			<path class="st0" d="M128,296c0,2.2,1.8,4,4,4h16c2.2,0,4-1.8,4-4c0-2.2-1.8-4-4-4h-16C129.8,292,128,293.8,128,296z"/>
		</g>
	</g>
	<g>
		<g>
			<path class="st0" d="M160.6,337.6l16,24.6c0.8,1.2,2,1.8,3.4,1.8c0.8,0,1.5-0.2,2.2-0.6c1.9-1.2,2.4-3.7,1.2-5.5l-16-24.6
				c-1.2-1.9-3.7-2.4-5.5-1.2C160,333.2,159.4,335.7,160.6,337.6z"/>
		</g>
	</g>
	<g>
		<g>
			<path class="st0" d="M176,360v40c0,2.2,1.8,4,4,4c2.2,0,4-1.8,4-4v-40c0-2.2-1.8-4-4-4C177.8,356,176,357.8,176,360z"/>
		</g>
	</g>
	<g>
		<g>
			<path class="st0" d="M184,384c0,2.2,1.8,4,4,4h192c2.2,0,4-1.8,4-4c0-2.2-1.8-4-4-4H188C185.8,380,184,381.8,184,384z"/>
		</g>
	</g>
	<g>
		<g>
			<path class="st0" d="M184,360c0,2.2,1.8,4,4,4h200c2.2,0,4-1.8,4-4c0-2.2-1.8-4-4-4H188C185.8,356,184,357.8,184,360z"/>
		</g>
	</g>
	<g>
		<g>
			<path class="st0" d="M176,88v248c0,2.2,1.8,4,4,4c2.2,0,4-1.8,4-4V88c0-2.2-1.8-4-4-4C177.8,84,176,85.8,176,88z"/>
		</g>
	</g>
	<g>
		<g>
			<path class="st0" d="M176,88c0,2.2,1.8,4,4,4h328c2.2,0,4-1.8,4-4c0-2.2-1.8-4-4-4H180C177.8,84,176,85.8,176,88z"/>
		</g>
	</g>
	<g>
		<g>
			<path class="st0" d="M504,88v272c0,2.2,1.8,4,4,4c2.2,0,4-1.8,4-4V88c0-2.2-1.8-4-4-4C505.8,84,504,85.8,504,88z"/>
		</g>
	</g>
	<g>
		<g>
			<path class="st0" d="M456,360c0,2.2,1.8,4,4,4h48c2.2,0,4-1.8,4-4c0-2.2-1.8-4-4-4h-48C457.8,356,456,357.8,456,360z"/>
		</g>
	</g>
	<g>
		<g>
			<path class="st0" d="M465.2,386.8c0.8,0.8,1.8,1.2,2.8,1.2c1,0,2-0.4,2.8-1.2l16-16c1.6-1.6,1.6-4.1,0-5.7
				c-1.6-1.6-4.1-1.6-5.7,0l-16,16C463.6,382.7,463.6,385.3,465.2,386.8z"/>
		</g>
	</g>
	<g>
		<g>
			<path class="st0" d="M472,376c0,2.2,1.8,4,4,4h24c2.2,0,4-1.8,4-4s-1.8-4-4-4h-24C473.8,372,472,373.8,472,376z"/>
		</g>
	</g>
	<g>
		<g>
			<path class="st0" d="M336,376v8c0,2.2,1.8,4,4,4c2.2,0,4-1.8,4-4v-8c0-2.2-1.8-4-4-4C337.8,372,336,373.8,336,376z"/>
		</g>
	</g>
	<g>
		<g>
			<path class="st0" d="M288,376v8c0,2.2,1.8,4,4,4c2.2,0,4-1.8,4-4v-8c0-2.2-1.8-4-4-4S288,373.8,288,376z"/>
		</g>
	</g>
	<g>
		<g>
			<path class="st0" d="M240,376v8c0,2.2,1.8,4,4,4c2.2,0,4-1.8,4-4v-8c0-2.2-1.8-4-4-4C241.8,372,240,373.8,240,376z"/>
		</g>
	</g>
	<g>
		<g>
			<path class="st0" d="M64,232v24c0,2.2,1.8,4,4,4c2.2,0,4-1.8,4-4v-24c0-2.2-1.8-4-4-4C65.8,228,64,229.8,64,232z"/>
		</g>
	</g>
	<g>
		<g>
			<path class="st0" d="M321.2,242.8c0.8,0.8,1.8,1.2,2.8,1.2c1,0,2-0.4,2.8-1.2l32-32c1.6-1.6,1.6-4.1,0-5.7
				c-1.6-1.6-4.1-1.6-5.7,0l-32,32C319.6,238.7,319.6,241.3,321.2,242.8z"/>
		</g>
	</g>
	<g>
		<g>
			<path class="st0" d="M273.2,130.8l80,80c0.8,0.8,1.8,1.2,2.8,1.2c1,0,2-0.4,2.8-1.2c1.6-1.6,1.6-4.1,0-5.7l-80-80
				c-1.6-1.6-4.1-1.6-5.7,0C271.6,126.7,271.6,129.3,273.2,130.8z"/>
		</g>
	</g>
	<g>
		<g>
			<path class="st0" d="M320.2,154.6c0.5,2.2,2.7,3.5,4.8,3c4.9-1.1,10-1.7,15.1-1.7c37.5,0,68,30.5,68,68
				c0,19.4-8.3,37.9-22.8,50.8c-1.7,1.5-1.8,4-0.3,5.6c0.8,0.9,1.9,1.3,3,1.3c0.9,0,1.9-0.3,2.7-1c16.2-14.4,25.5-35.1,25.5-56.8
				c0-41.9-34.1-76-76-76c-5.7,0-11.3,0.6-16.8,1.9C321,150.4,319.7,152.5,320.2,154.6z"/>
		</g>
	</g>
	<g>
		<g>
			<path class="st0" d="M264,224c0,41.9,34.1,76,76,76c5.7,0,11.4-0.6,16.9-1.9c2.2-0.5,3.5-2.6,3-4.8c-0.5-2.2-2.6-3.5-4.8-3
				c-4.9,1.1-10,1.7-15.1,1.7c-37.5,0-68-30.5-68-68c0-19.3,8.3-37.8,22.7-50.7c1.6-1.5,1.8-4,0.3-5.6c-1.5-1.6-4-1.8-5.6-0.3
				C273.2,181.8,264,202.4,264,224z"/>
		</g>
	</g>
	<g>
		<g>
			<path class="st0" d="M321.2,242.8l72,72c0.8,0.8,1.8,1.2,2.8,1.2c1,0,2-0.4,2.8-1.2c1.6-1.6,1.6-4.1,0-5.7l-72-72
				c-1.6-1.6-4.1-1.6-5.7,0C319.6,238.7,319.6,241.3,321.2,242.8z"/>
		</g>
	</g>
</g>
</svg>
