<?xml version="1.0" encoding="utf-8"?>
<!-- Generator: Adobe Illustrator 24.0.1, SVG Export Plug-In . SVG Version: 6.00 Build 0)  -->
<svg version="1.1" id="Layer_1" xmlns="http://www.w3.org/2000/svg" xmlns:xlink="http://www.w3.org/1999/xlink" x="0px" y="0px"
	 viewBox="0 0 58.4 56.6" style="enable-background:new 0 0 58.4 56.6;" xml:space="preserve">
<style type="text/css">
	.st0{display:none;}
	.st1{display:inline;}
	.st2{fill:none;}
	.st3{fill-rule:evenodd;clip-rule:evenodd;fill:#396742;}
	.st4{fill:#396742;}
	.st5{display:none;fill:#396742;}
	.st6{fill:#FFFFFF;}
</style>
<g id="Layer_1_1_" class="st0">
	
		<image style="display:inline;overflow:visible;enable-background:new    ;" width="1365" height="768" xlink:href="B25A09EA.jpeg"  transform="matrix(1.4676 0 0 1.4676 -416.6544 -493.4856)">
	</image>
</g>
<g id="Layer_2_1_">
	<g class="st0">
		<g class="st1">
			<g>
				<g>
					<g>
						<polygon class="st2" points="-437.8,-160.1 -432.6,-161.7 -434.3,-166.8 -439.4,-165.2 						"/>
						<path class="st3" d="M-433.5-164.2c0.4,1.4-0.3,2.9-1.7,3.4s-2.9-0.3-3.4-1.7c-0.4-1.4,0.3-2.9,1.7-3.4
							C-435.4-166.4-433.9-165.7-433.5-164.2z"/>
					</g>
				</g>
				<g>
					<g>
						<polygon class="st2" points="-425.7,-163.9 -420.6,-165.5 -422.2,-170.6 -427.3,-169 						"/>
						<path class="st3" d="M-421.4-168.1c0.4,1.4-0.4,2.9-1.8,3.4s-2.9-0.3-3.4-1.8s0.3-2.9,1.8-3.4
							C-423.3-170.3-421.8-169.5-421.4-168.1z"/>
					</g>
				</g>
				<g>
					<g>
						<polygon class="st2" points="-415.9,-166.9 -410.8,-168.5 -412.4,-173.6 -417.5,-172.1 						"/>
						<path class="st3" d="M-411.6-171.1c0.4,1.4-0.4,2.9-1.8,3.4c-1.4,0.5-2.9-0.4-3.4-1.8c-0.4-1.4,0.4-2.9,1.8-3.4
							S-412-172.5-411.6-171.1z"/>
					</g>
				</g>
				<g>
					<g>
						<polygon class="st2" points="-406.2,-169.9 -401,-171.5 -402.6,-176.6 -407.7,-175.1 						"/>
						<path class="st3" d="M-401.8-174.1c0.4,1.4-0.4,2.9-1.8,3.3c-1.4,0.4-2.9-0.4-3.4-1.8c-0.4-1.3,0.4-2.8,1.8-3.3
							C-403.7-176.3-402.2-175.5-401.8-174.1z"/>
					</g>
				</g>
				<g>
					<g>
						<polygon class="st2" points="-396.4,-172.9 -391.2,-174.4 -392.8,-179.6 -397.9,-178 						"/>
						<path class="st3" d="M-392-177c0.4,1.4-0.4,2.9-1.8,3.3c-1.4,0.4-2.9-0.4-3.3-1.8c-0.4-1.4,0.4-2.9,1.8-3.3
							C-393.9-179.2-392.4-178.4-392-177z"/>
					</g>
				</g>
				<g>
					<g>
						<polygon class="st2" points="-386.6,-175.8 -381.4,-177.3 -382.9,-182.5 -388.1,-181 						"/>
						<path class="st3" d="M-382.2-179.9c0.4,1.4-0.4,2.9-1.8,3.3c-1.4,0.4-2.9-0.4-3.3-1.8c-0.4-1.4,0.4-2.9,1.8-3.3
							S-382.6-181.3-382.2-179.9z"/>
					</g>
				</g>
				<g>
					<g>
						<polygon class="st2" points="-376.8,-178.6 -371.6,-180.1 -373.1,-185.3 -378.3,-183.8 						"/>
						<path class="st3" d="M-372.4-182.7c0.4,1.4-0.4,2.9-1.8,3.3s-2.9-0.4-3.3-1.8s0.4-2.9,1.8-3.3
							C-374.2-185-372.8-184.1-372.4-182.7z"/>
					</g>
				</g>
				<g>
					<g>
						<polygon class="st2" points="-366.9,-181.4 -361.8,-182.9 -363.2,-188.1 -368.4,-186.6 						"/>
						<path class="st3" d="M-362.5-185.5c0.4,1.4-0.4,2.9-1.9,3.3s-2.9-0.4-3.3-1.9s0.4-2.9,1.9-3.3
							C-364.4-187.7-362.9-186.9-362.5-185.5z"/>
					</g>
				</g>
				<g>
					<g>
						<polygon class="st2" points="-357.1,-184.2 -351.9,-185.6 -353.3,-190.8 -358.5,-189.4 						"/>
						<path class="st3" d="M-352.6-188.2c0.4,1.4-0.5,2.9-1.9,3.3s-2.9-0.4-3.3-1.9c-0.4-1.4,0.4-2.9,1.9-3.3
							C-354.5-190.5-353-189.6-352.6-188.2z"/>
					</g>
				</g>
				<g>
					<g>
						<polygon class="st2" points="-347.2,-186.8 -342.1,-188.2 -343.4,-193.4 -348.6,-192 						"/>
						<path class="st3" d="M-342.7-190.8c0.4,1.4-0.5,2.9-1.9,3.3s-2.9-0.5-3.3-1.9c-0.4-1.4,0.5-2.9,1.9-3.3
							C-344.6-193.1-343.1-192.2-342.7-190.8z"/>
					</g>
				</g>
				<g>
					<g>
						<polygon class="st2" points="-337.4,-189.4 -332.2,-190.7 -333.5,-195.9 -338.7,-194.6 						"/>
						<path class="st3" d="M-332.8-193.3c0.4,1.4-0.5,2.9-1.9,3.3s-2.9-0.5-3.3-1.9c-0.4-1.4,0.5-2.9,1.9-3.3
							S-333.2-194.8-332.8-193.3z"/>
					</g>
				</g>
				<g>
					<g>
						<polygon class="st2" points="-327.5,-191.9 -322.3,-193.2 -323.5,-198.4 -328.8,-197.1 						"/>
						<path class="st3" d="M-322.9-195.8c0.3,1.4-0.5,2.9-2,3.3s-2.9-0.5-3.2-2c-0.4-1.4,0.5-2.9,2-3.3
							C-324.7-198.1-323.2-197.3-322.9-195.8z"/>
					</g>
				</g>
				<g>
					<g>
						<polygon class="st2" points="-317.6,-194.3 -312.3,-195.6 -313.6,-200.8 -318.8,-199.6 						"/>
						<path class="st3" d="M-313-198.2c0.3,1.4-0.6,2.9-2,3.2c-1.4,0.3-2.9-0.6-3.2-2c-0.3-1.4,0.6-2.9,2-3.2
							C-314.8-200.5-313.3-199.6-313-198.2z"/>
					</g>
				</g>
				<g>
					<g>
						<polygon class="st2" points="-307.6,-196.7 -302.4,-197.8 -303.6,-203.1 -308.8,-201.9 						"/>
						<path class="st3" d="M-303-200.4c0.3,1.4-0.6,2.9-2,3.2s-2.9-0.6-3.2-2c-0.3-1.4,0.6-2.9,2-3.2
							C-304.8-202.7-303.3-201.9-303-200.4z"/>
					</g>
				</g>
				<g>
					<g>
						<path class="st2" d="M-297.6-198.9c1.7-0.4,3.5-0.8,5.2-1.1l-1.1-5.3c-1.8,0.4-3.5,0.7-5.3,1.1L-297.6-198.9z"/>
						<path class="st3" d="M-293-202.6c0.3,1.4-0.6,2.9-2.1,3.2c-1.4,0.3-2.9-0.6-3.2-2.1s0.6-2.9,2.1-3.2S-293.3-204.1-293-202.6z"
							/>
					</g>
				</g>
				<g>
					<g>
						<polygon class="st2" points="-287.7,-201 -282.4,-202 -283.5,-207.3 -288.7,-206.2 						"/>
						<path class="st3" d="M-283-204.7c0.3,1.4-0.7,2.9-2.1,3.2c-1.4,0.3-2.9-0.6-3.2-2.1c-0.3-1.5,0.6-2.9,2.1-3.2
							C-284.7-207.1-283.2-206.1-283-204.7z"/>
					</g>
				</g>
				<g>
					<g>
						<polygon class="st2" points="-277.7,-202.9 -272.4,-203.9 -273.4,-209.2 -278.7,-208.2 						"/>
						<path class="st3" d="M-272.9-206.6c0.3,1.5-0.7,2.9-2.1,3.1c-1.4,0.2-2.9-0.7-3.1-2.1c-0.3-1.4,0.7-2.9,2.1-3.1
							C-274.5-209-273.1-208-272.9-206.6z"/>
					</g>
				</g>
				<g>
					<g>
						<polygon class="st2" points="-267.6,-204.8 -262.4,-205.6 -263.2,-210.9 -268.6,-210.1 						"/>
						<path class="st3" d="M-262.8-208.3c0.2,1.5-0.8,2.9-2.2,3.1s-2.8-0.7-3.1-2.2c-0.3-1.5,0.7-2.8,2.2-3.1
							S-263-209.8-262.8-208.3z"/>
					</g>
				</g>
				<g>
					<g>
						<polygon class="st2" points="-257.6,-206.4 -252.3,-207.2 -253.1,-212.5 -258.4,-211.7 						"/>
						<path class="st3" d="M-252.7-209.9c0.2,1.5-0.8,2.8-2.3,3.1c-1.5,0.3-2.8-0.8-3.1-2.3c-0.2-1.5,0.8-2.8,2.3-3.1
							C-254.3-212.3-252.9-211.3-252.7-209.9z"/>
					</g>
				</g>
				<g>
					<g>
						<polygon class="st2" points="-247.5,-207.9 -242.2,-208.6 -242.9,-213.9 -248.2,-213.2 						"/>
						<path class="st3" d="M-242.5-211.2c0.2,1.5-0.9,2.8-2.3,3s-2.8-0.9-3-2.3c-0.2-1.4,0.8-2.8,2.3-3
							C-244-213.7-242.7-212.7-242.5-211.2z"/>
					</g>
				</g>
				<g>
					<g>
						<polygon class="st2" points="-237.4,-209.1 -232.1,-209.7 -232.6,-215 -238,-214.5 						"/>
						<path class="st3" d="M-232.4-212.4c0.1,1.5-0.9,2.8-2.4,2.9c-1.5,0.1-2.8-0.9-2.9-2.4c-0.2-1.5,0.9-2.8,2.4-2.9
							C-233.8-214.9-232.5-213.8-232.4-212.4z"/>
					</g>
				</g>
				<g>
					<g>
						<polygon class="st2" points="-227.3,-210.1 -222,-210.5 -222.4,-215.9 -227.8,-215.5 						"/>
						<path class="st3" d="M-222.2-213.2c0.1,1.5-1,2.8-2.5,2.9c-1.5,0.1-2.8-1-2.9-2.5c-0.1-1.5,1-2.8,2.5-2.9
							C-223.6-215.8-222.3-214.7-222.2-213.2z"/>
					</g>
				</g>
				<g>
					<g>
						<path class="st2" d="M-217.2-210.8c1.8-0.1,3.5-0.2,5.3-0.2l-0.1-5.4c-1.8,0-3.6,0.2-5.4,0.2L-217.2-210.8z"/>
						<path class="st3" d="M-212-213.7c0,1.5-1.1,2.7-2.6,2.8s-2.7-1.1-2.8-2.6s1.1-2.7,2.6-2.8C-213.3-216.3-212-215.2-212-213.7z"
							/>
					</g>
				</g>
				<g>
					<g>
						<path class="st2" d="M-207.1-211.1c1.8-0.1,3.5,0,5.3,0l0.1-5.4c-1.8,0-3.6-0.1-5.4,0L-207.1-211.1z"/>
						<path class="st3" d="M-201.7-213.7c0,1.5-1.2,2.7-2.7,2.6c-1.5,0-2.7-1.2-2.7-2.7s1.2-2.7,2.7-2.7
							C-202.9-216.4-201.7-215.2-201.7-213.7z"/>
					</g>
				</g>
				<g>
					<g>
						<polygon class="st2" points="-197,-210.9 -191.7,-210.6 -191.3,-215.9 -196.8,-216.3 						"/>
						<path class="st3" d="M-191.5-213.2c-0.1,1.5-1.4,2.6-2.9,2.5c-1.4-0.1-2.6-1.4-2.5-2.8c0.1-1.5,1.3-2.6,2.9-2.5
							C-192.5-216-191.4-214.7-191.5-213.2z"/>
					</g>
				</g>
				<g>
					<g>
						<polygon class="st2" points="-187,-210.1 -185.7,-209.9 -184.4,-209.7 -181.8,-209.4 -180.9,-214.6 -183.6,-215.1 
							-185,-215.3 -186.4,-215.4 						"/>
						<path class="st3" d="M-181.4-212c-0.3,1.5-1.6,2.5-3,2.3c-1.4-0.3-2.5-1.5-2.3-3s1.5-2.6,3-2.3
							C-182.1-214.8-181.1-213.4-181.4-212z"/>
					</g>
				</g>
				<g>
					<g>
						<path class="st2" d="M-177.2-208.5c1.7,0.3,3.4,0.8,5,1.3l1.5-5.2c-1.8-0.5-3.6-1-5.4-1.4L-177.2-208.5z"/>
						<path class="st3" d="M-171.4-209.8c-0.4,1.4-1.9,2.3-3.2,1.9c-1.4-0.4-2.3-1.7-2-3.2c0.3-1.4,1.8-2.4,3.3-2
							C-171.8-212.7-171-211.2-171.4-209.8z"/>
					</g>
				</g>
				<g>
					<g>
						<path class="st2" d="M-167.7-205.8c0.8,0.3,1.6,0.6,2.4,1c0.8,0.4,1.6,0.6,2.3,1l2.4-4.8c-0.8-0.4-1.7-0.8-2.6-1.1
							c-0.9-0.4-1.7-0.8-2.6-1.1L-167.7-205.8z"/>
						<path class="st3" d="M-161.8-206.2c-0.6,1.3-2.2,1.9-3.5,1.4c-0.6-0.3-1.1-0.8-1.4-1.4c-0.3-0.6-0.3-1.3-0.1-2
							c0.3-0.7,0.8-1.2,1.4-1.5s1.4-0.3,2.1,0.1C-161.8-209.1-161.1-207.5-161.8-206.2z"/>
					</g>
				</g>
				<g>
					<g>
						<path class="st2" d="M-159-201.5c0.7,0.5,1.4,0.9,2.1,1.4l1.9,1.5l3.5-4.1l-2.3-1.8c-0.8-0.6-1.6-1.1-2.4-1.6L-159-201.5z"/>
						<path class="st3" d="M-153.3-200.6c-1,1.1-2.6,1.3-3.7,0.5c-1.1-0.8-1.4-2.4-0.6-3.7c0.8-1.2,2.5-1.6,3.8-0.6
							C-152.5-203.4-152.3-201.7-153.3-200.6z"/>
					</g>
				</g>
				<g>
					<g>
						<path class="st2" d="M-151.9-195.4l0.8,0.9c0.3,0.3,0.5,0.7,0.7,1c0.5,0.7,0.9,1.3,1.3,2.1l4.7-2.6c-0.4-0.9-1-1.7-1.6-2.5
							c-0.3-0.4-0.5-0.8-0.8-1.2l-0.9-1.1L-151.9-195.4z"/>
						<path class="st3" d="M-146.8-192.7c-0.6,0.4-1.4,0.4-2,0.3s-1.3-0.5-1.6-1s-0.5-1.2-0.4-1.9c0.1-0.6,0.4-1.3,1-1.8
							s1.3-0.7,2-0.6s1.4,0.5,1.8,1.2c0.5,0.7,0.6,1.4,0.5,2.1C-145.8-193.7-146.2-193.1-146.8-192.7z"/>
					</g>
				</g>
				<g>
					<g>
						<path class="st2" d="M-147.3-187.4l0.8,2.4c0.2,0.8,0.4,1.6,0.6,2.4l5.2-1.2c-0.2-0.9-0.5-1.9-0.7-2.8l-0.9-2.7L-147.3-187.4z
							"/>
						<path class="st3" d="M-143.2-183.2c-1.5,0.3-2.9-0.5-3.3-1.8c-0.4-1.3,0.3-2.8,1.7-3.3s2.9,0.3,3.4,1.8
							C-140.9-185-141.8-183.5-143.2-183.2z"/>
					</g>
				</g>
				<g>
					<g>
						<path class="st2" d="M-145.1-178.1c0.2,1.7,0.3,3.4,0.4,5.1l5.4-0.2c-0.1-1.9-0.2-3.7-0.5-5.6L-145.1-178.1z"/>
						<path class="st3" d="M-141.9-173c-1.5,0-2.8-1.1-2.8-2.5c-0.1-1.4,0.9-2.7,2.4-2.9s2.8,0.9,3,2.4
							C-139.3-174.4-140.5-173.1-141.9-173z"/>
					</g>
				</g>
				<g>
					<g>
						<path class="st2" d="M-144.6-168.3c0,1.7-0.2,3.4-0.3,5.2l5.3,0.6c0.1-1.8,0.3-3.7,0.4-5.5L-144.6-168.3z"/>
						<path class="st3" d="M-142.3-162.8c-1.5-0.2-2.6-1.4-2.5-2.9s1.3-2.5,2.8-2.5s2.7,1.3,2.5,2.9
							C-139.5-163.8-140.8-162.7-142.3-162.8z"/>
					</g>
				</g>
				<g>
					<g>
						<path class="st2" d="M-145.6-158.4c-0.3,1.7-0.6,3.4-1,5.1l5.2,1.1c0.4-1.8,0.7-3.6,1-5.4L-145.6-158.4z"/>
						<path class="st3" d="M-143.9-152.7c-1.4-0.3-2.4-1.7-2.1-3.1c0.3-1.4,1.6-2.4,3.1-2.1c1.5,0.2,2.5,1.6,2.2,3.1
							C-141.1-153.4-142.5-152.4-143.9-152.7z"/>
					</g>
				</g>
				<g>
					<g>
						<polygon class="st2" points="-147.7,-148.7 -148.4,-146.2 -149.2,-143.7 -144.1,-142 -143.3,-144.6 -142.5,-147.3 						"/>
						<path class="st3" d="M-146.6-142.9c-1.4-0.5-2.2-2-1.8-3.3c0.4-1.4,1.9-2.2,3.3-1.8s2.3,1.9,1.8,3.4
							C-143.7-143.2-145.3-142.4-146.6-142.9z"/>
					</g>
				</g>
				<g>
					<g>
						<path class="st2" d="M-150.8-139.2c-0.6,1.6-1.3,3.2-2,4.8l4.9,2.2c0.8-1.7,1.5-3.4,2.1-5.1L-150.8-139.2z"/>
						<path class="st3" d="M-150.4-133.3c-1.4-0.6-2-2.2-1.4-3.5c0.5-1.3,2.1-2,3.5-1.5s2,2.1,1.5,3.5
							C-147.4-133.4-149-132.7-150.4-133.3z"/>
					</g>
				</g>
				<g>
					<g>
						<path class="st2" d="M-154.9-130.2l-1.2,2.3c-0.4,0.8-0.9,1.5-1.3,2.2l4.6,2.8c0.5-0.8,1-1.6,1.4-2.4l1.3-2.4L-154.9-130.2z"
							/>
						<path class="st3" d="M-155.1-124.3c-1.3-0.8-1.7-2.4-1-3.6c0.7-1.3,2.3-1.7,3.6-1c1.3,0.7,1.8,2.3,1,3.7
							C-152.2-123.9-153.9-123.5-155.1-124.3z"/>
					</g>
				</g>
				<g>
					<g>
						<path class="st2" d="M-160-121.8c-1,1.4-2.1,2.7-3.2,4l4,3.6c1.2-1.4,2.4-2.9,3.5-4.4L-160-121.8z"/>
						<path class="st3" d="M-161.2-116.1c-1.1-1-1.3-2.7-0.4-3.7c0.9-1.1,2.5-1.3,3.7-0.5c1.2,0.9,1.5,2.6,0.5,3.8
							C-158.4-115.2-160.1-115-161.2-116.1z"/>
					</g>
				</g>
				<g>
					<g>
						<path class="st2" d="M-166.4-114.7c-0.6,0.6-1.3,1-1.9,1.5c-0.6,0.5-1.3,0.9-2,1.3l2.7,4.6c0.8-0.5,1.7-1.1,2.5-1.6
							c0.8-0.6,1.6-1.2,2.3-1.8L-166.4-114.7z"/>
						<path class="st3" d="M-169-109.5c-0.7-1.3-0.4-2.9,0.7-3.6c1-0.8,2.7-0.6,3.7,0.5s0.8,2.8-0.5,3.9
							C-166.5-107.8-168.3-108.2-169-109.5z"/>
					</g>
				</g>
				<g>
					<g>
						<path class="st2" d="M-174.2-110.2c-1.4,0.4-2.9,0.6-4.4,0.5l-0.3,5.4c2.1,0.1,4.2-0.1,6.2-0.7L-174.2-110.2z"/>
						<path class="st3" d="M-178.7-107c0-0.7,0.4-1.4,0.8-1.9c0.2-0.2,0.5-0.4,0.7-0.6c0.3-0.2,0.6-0.3,0.9-0.3
							c0.6,0,1.2,0.1,1.7,0.5s1,1,1.2,1.7s0.1,1.4-0.3,2c-0.4,0.6-1.1,1.1-2,1.1c-0.4,0-0.9,0-1.2-0.1c-0.4-0.1-0.7-0.3-1-0.6
							C-178.5-105.6-178.8-106.3-178.7-107z"/>
					</g>
				</g>
				<g>
					<g>
						<path class="st2" d="M-182.8-110.4c-1.5-0.4-3.1-1.1-4.5-1.8l-2.4,4.8c1.7,0.9,3.5,1.6,5.4,2.2L-182.8-110.4z"/>
						<path class="st3" d="M-188.5-109.9c0.7-1.3,2.2-1.9,3.4-1.4c0.6,0.2,1.1,0.7,1.4,1.3c0.3,0.6,0.4,1.3,0.2,2s-0.7,1.3-1.3,1.6
							s-1.4,0.3-2.2,0C-188.6-106.9-189.2-108.5-188.5-109.9z"/>
					</g>
				</g>
				<g>
					<g>
						<path class="st2" d="M-191.2-114.6c-1.4-0.9-2.8-2-4.1-3l-3.4,4.1c1.4,1.2,2.9,2.4,4.5,3.4L-191.2-114.6z"/>
						<path class="st3" d="M-197-115.5c1-1.1,2.6-1.3,3.7-0.5c1.1,0.9,1.4,2.4,0.6,3.7c-0.8,1.2-2.6,1.6-3.8,0.6
							C-197.8-112.6-197.9-114.4-197-115.5z"/>
					</g>
				</g>
				<g>
					<g>
						<path class="st2" d="M-198.7-120.7c-0.6-0.6-1.2-1.2-1.8-1.8c-0.6-0.6-1.1-1.3-1.7-1.9l-4.1,3.5c0.6,0.7,1.2,1.4,1.9,2.1
							c0.6,0.7,1.3,1.4,1.9,2L-198.7-120.7z"/>
						<path class="st3" d="M-204.2-122.7c1.1-0.9,2.8-0.9,3.8,0.2c1,1,0.9,2.7-0.1,3.8c-1,1.1-2.8,1-3.8-0.1
							C-205.5-120.1-205.4-121.8-204.2-122.7z"/>
					</g>
				</g>
				<g>
					<g>
						<path class="st2" d="M-205-128.1c-1-1.4-1.9-2.8-2.8-4.3l-4.7,2.7c0.9,1.6,2,3.2,3,4.7L-205-128.1z"/>
						<path class="st3" d="M-210.1-131.1c1.3-0.7,2.9-0.3,3.6,0.9c0.7,1.2,0.4,2.8-0.8,3.7c-1.2,0.9-2.9,0.6-3.8-0.8
							C-211.8-128.7-211.4-130.4-210.1-131.1z"/>
					</g>
				</g>
				<g>
					<g>
						<path class="st2" d="M-209.8-136.5c-0.4-0.8-0.6-1.6-0.9-2.3c-0.2-0.8-0.6-1.6-0.8-2.4l-5.2,1.4c0.2,0.9,0.6,1.8,0.9,2.8
							c0.4,0.9,0.7,1.8,1.1,2.6L-209.8-136.5z"/>
						<path class="st3" d="M-214.1-140.5c0.7-0.2,1.4-0.1,2,0.2c0.6,0.3,1.1,0.8,1.3,1.4c0.5,1.3-0.2,2.8-1.5,3.4
							c-1.4,0.6-3-0.1-3.5-1.6c-0.3-0.8-0.2-1.5,0.1-2.2C-215.4-139.8-214.8-140.3-214.1-140.5z"/>
					</g>
				</g>
				<g>
					<g>
						<path class="st2" d="M-212.3-145.5c-0.1-1.6-0.1-3.1,0.2-4.6l-5.3-1.1c-0.4,2.1-0.4,4.1-0.3,6.1L-212.3-145.5z"/>
						<path class="st3" d="M-214.8-150.6c0.7,0.1,1.3,0.6,1.7,1.1s0.7,1.1,0.6,1.7c-0.1,1.2-1.2,2.4-2.6,2.6
							c-1.5,0.2-2.8-1.1-2.7-2.8c0.1-0.9,0.4-1.6,1-2.1C-216.2-150.6-215.5-150.8-214.8-150.6z"/>
					</g>
				</g>
				<g>
					<g>
						<path class="st2" d="M-210.7-153.7l0.6-0.9c0.2-0.3,0.5-0.6,0.7-0.9c0.3-0.3,0.5-0.6,0.8-0.9l0.9-0.8l-3.6-4l-1.1,1
							c-0.4,0.4-0.7,0.8-1,1.1c-0.3,0.4-0.7,0.8-1,1.2l-0.9,1.3L-210.7-153.7z"/>
						<path class="st3" d="M-209.5-159.2c0.5,0.6,0.7,1.2,0.8,1.9c0,0.6-0.2,1.3-0.6,1.8c-0.2,0.2-0.5,0.4-0.8,0.6
							c-0.3,0.1-0.6,0.2-0.9,0.3c-0.6,0.1-1.4,0-2-0.4c-0.6-0.4-1-1-1.1-1.7c-0.1-0.4,0-0.8,0.1-1.1c0.1-0.4,0.3-0.7,0.6-1
							c0.6-0.7,1.3-1,2-1C-210.7-160-210-159.7-209.5-159.2z"/>
					</g>
				</g>
				<g>
					<g>
						<path class="st2" d="M-204.2-159.8c0.7-0.4,1.4-0.9,2.1-1.2c0.8-0.4,1.5-0.8,2.3-1.1l-2.2-4.9c-0.9,0.4-1.7,0.8-2.6,1.3
							c-0.9,0.4-1.7,0.9-2.5,1.4L-204.2-159.8z"/>
						<path class="st3" d="M-200.9-164.6c0.3,0.7,0.3,1.4,0.1,2c-0.2,0.6-0.6,1.2-1.2,1.5c-0.6,0.3-1.3,0.4-1.9,0.2
							c-0.6-0.2-1.3-0.6-1.6-1.2c-0.4-0.6-0.5-1.4-0.3-2c0.2-0.7,0.7-1.3,1.4-1.7c0.7-0.4,1.5-0.4,2.1-0.2
							C-201.8-165.8-201.2-165.3-200.9-164.6z"/>
					</g>
				</g>
				<g>
					<g>
						<path class="st2" d="M-195.5-163.9c0.8-0.3,1.6-0.5,2.4-0.8c0.8-0.3,1.6-0.5,2.5-0.7l-1.4-5.2c-0.9,0.2-1.8,0.5-2.7,0.8
							c-0.9,0.3-1.8,0.5-2.6,0.9L-195.5-163.9z"/>
						<path class="st3" d="M-191.3-168c0.4,1.4-0.4,2.9-1.8,3.3c-1.4,0.4-2.9-0.4-3.4-1.7c-0.5-1.4,0.3-2.9,1.8-3.4
							C-193.2-170.3-191.7-169.5-191.3-168z"/>
					</g>
				</g>
				<g>
					<g>
						<path class="st2" d="M-186-166.6c1.7-0.4,3.4-0.7,5.1-1l-0.9-5.3c-1.8,0.3-3.6,0.6-5.4,1.1L-186-166.6z"/>
						<path class="st3" d="M-181.3-170.2c0.2,1.4-0.7,2.9-2.1,3.1c-1.4,0.3-2.8-0.7-3.1-2.1s0.6-2.9,2.1-3.2
							S-181.5-171.7-181.3-170.2z"/>
					</g>
				</g>
				<g>
					<g>
						<polygon class="st2" points="-176.1,-168.3 -173.5,-168.6 -170.9,-168.8 -171.4,-174.2 -174.1,-173.9 -176.8,-173.6 						"/>
						<path class="st3" d="M-171.1-171.5c0.1,1.5-0.9,2.8-2.4,2.9c-1.4,0.2-2.8-0.9-3-2.3c-0.2-1.5,0.9-2.8,2.4-3
							S-171.3-173-171.1-171.5z"/>
					</g>
				</g>
				<g>
					<g>
						<path class="st2" d="M-166.1-169.2c1.8-0.1,3.5-0.2,5.3-0.2l-0.2-5.4c-1.8,0.1-3.6,0.1-5.5,0.3L-166.1-169.2z"/>
						<path class="st3" d="M-160.9-172.1c0,1.5-1.1,2.7-2.6,2.8c-1.5,0.1-2.7-1.1-2.8-2.5c-0.1-1.5,1-2.8,2.6-2.8
							C-162.2-174.8-161-173.6-160.9-172.1z"/>
					</g>
				</g>
				<g>
					<g>
						<path class="st2" d="M-156-169.5c1.8,0,3.5,0,5.3,0.1l0.1-5.4c-1.8-0.1-3.6,0-5.4-0.1V-169.5z"/>
						<path class="st3" d="M-150.7-172.1c0,1.5-1.3,2.6-2.7,2.6c-1.5,0-2.6-1.2-2.6-2.7s1.2-2.7,2.7-2.7S-150.6-173.6-150.7-172.1z"
							/>
					</g>
				</g>
				<g>
					<g>
						<path class="st2" d="M-146-169.3c1.8,0.1,3.5,0.2,5.3,0.3l0.4-5.4c-1.8-0.2-3.6-0.3-5.4-0.3L-146-169.3z"/>
						<path class="st3" d="M-140.5-171.6c-0.1,1.5-1.4,2.6-2.9,2.5c-1.5-0.1-2.6-1.4-2.5-2.8c0.1-1.5,1.4-2.6,2.9-2.5
							C-141.5-174.4-140.4-173.1-140.5-171.6z"/>
					</g>
				</g>
				<g>
					<g>
						<path class="st2" d="M-135.9-168.5c1.8,0.2,3.5,0.4,5.3,0.6l0.7-5.3c-1.8-0.2-3.6-0.4-5.4-0.6L-135.9-168.5z"/>
						<path class="st3" d="M-130.3-170.6c-0.2,1.5-1.5,2.5-3,2.3c-1.5-0.2-2.5-1.5-2.4-2.9c0.1-1.4,1.5-2.6,3-2.4
							C-131.2-173.4-130.1-172-130.3-170.6z"/>
					</g>
				</g>
				<g>
					<g>
						<path class="st2" d="M-125.9-167.2c1.8,0.2,3.5,0.6,5.2,0.9l1-5.3c-1.8-0.3-3.6-0.6-5.4-0.9L-125.9-167.2z"/>
						<path class="st3" d="M-120.2-169c-0.3,1.5-1.6,2.4-3.1,2.2c-1.4-0.3-2.4-1.6-2.2-3.1c0.2-1.4,1.6-2.5,3.1-2.2
							C-120.9-171.9-119.9-170.5-120.2-169z"/>
					</g>
				</g>
				<g>
					<g>
						<path class="st2" d="M-116-165.5c1.7,0.4,3.4,0.8,5.2,1.2l1.3-5.2c-1.8-0.4-3.5-0.8-5.3-1.2L-116-165.5z"/>
						<path class="st3" d="M-110.2-166.9c-0.4,1.4-1.8,2.3-3.2,2c-1.4-0.3-2.3-1.8-2-3.2c0.3-1.5,1.7-2.4,3.2-2
							C-110.7-169.8-109.8-168.4-110.2-166.9z"/>
					</g>
				</g>
				<g>
					<g>
						<path class="st2" d="M-106.2-163.1c1.7,0.5,3.4,0.9,5,1.5l1.6-5.1c-1.7-0.6-3.5-1-5.2-1.6L-106.2-163.1z"/>
						<path class="st3" d="M-100.3-164.2c-0.5,1.4-1.9,2.2-3.3,1.8c-1.4-0.4-2.2-1.9-1.8-3.3c0.4-1.4,1.9-2.3,3.3-1.8
							C-100.7-167.1-99.9-165.6-100.3-164.2z"/>
					</g>
				</g>
				<g>
					<g>
						<polygon class="st2" points="-96.6,-160.1 -91.7,-158.2 -89.7,-163.2 -94.8,-165.1 						"/>
						<path class="st3" d="M-90.7-160.7c-0.6,1.4-2.1,2.1-3.5,1.6s-2-2.1-1.6-3.5c0.5-1.4,2-2.1,3.5-1.6
							C-90.8-163.6-90.1-162.1-90.7-160.7z"/>
					</g>
				</g>
				<g>
					<g>
						<polygon class="st2" points="-87.3,-156.3 -82.5,-154.1 -80.2,-158.9 -85.1,-161.2 						"/>
						<path class="st3" d="M-81.3-156.6c-0.7,1.3-2.3,1.9-3.6,1.3c-1.3-0.6-1.9-2.2-1.3-3.6c0.6-1.4,2.2-1.9,3.6-1.3
							C-81.3-159.5-80.7-157.9-81.3-156.6z"/>
					</g>
				</g>
				<g>
					<g>
						<polygon class="st2" points="-78.3,-151.9 -73.7,-149.4 -71,-154 -75.8,-156.7 						"/>
						<path class="st3" d="M-72.3-151.7c-0.8,1.3-2.4,1.8-3.7,1.1c-1.3-0.7-1.7-2.3-1-3.6c0.7-1.3,2.3-1.8,3.7-1.1
							C-72-154.6-71.6-153-72.3-151.7z"/>
					</g>
				</g>
				<g>
					<g>
						<path class="st2" d="M-69.6-146.9c1.5,1,3,1.9,4.4,2.9l3-4.4c-1.5-1.1-3.1-2-4.6-3L-69.6-146.9z"/>
						<path class="st3" d="M-63.7-146.2c-0.4,0.6-1,1-1.7,1.1c-0.7,0.1-1.4,0-2-0.4c-1.2-0.8-1.6-2.4-0.8-3.7
							c0.8-1.3,2.5-1.6,3.8-0.8c0.6,0.4,1,1,1.2,1.7C-63.1-147.6-63.3-146.8-63.7-146.2z"/>
					</g>
				</g>
				<g>
					<g>
						<path class="st2" d="M-61.4-141.2c1.4,1,2.9,2,4.2,3.2l3.3-4.2c-1.4-1.2-2.9-2.2-4.4-3.3L-61.4-141.2z"/>
						<path class="st3" d="M-55.5-140.1c-0.9,1.2-2.5,1.3-3.7,0.5c-1.2-0.9-1.4-2.5-0.5-3.7s2.6-1.4,3.8-0.6
							C-54.7-143-54.6-141.2-55.5-140.1z"/>
					</g>
				</g>
				<g>
					<g>
						<path class="st2" d="M-53.5-134.9c0.7,0.6,1.4,1.1,2,1.7l1.9,1.8l3.6-4l-2-1.9c-0.7-0.6-1.4-1.2-2.1-1.8L-53.5-134.9z"/>
						<path class="st3" d="M-47.7-133.5c-1,1.1-2.7,1.2-3.7,0.2c-1.1-0.9-1.3-2.6-0.3-3.7c1-1.1,2.7-1.3,3.8-0.3
							C-46.8-136.3-46.7-134.6-47.7-133.5z"/>
					</g>
				</g>
				<g>
					<g>
						<path class="st2" d="M-46-128.2c0.7,0.6,1.3,1.2,1.9,1.8l1.9,1.9l3.8-3.8l-1.9-1.9c-0.6-0.7-1.3-1.3-2-1.9L-46-128.2z"/>
						<path class="st3" d="M-40.3-126.4c-1.1,1-2.8,1-3.8,0c-1-1.1-1.1-2.7,0-3.8c1-1.1,2.8-1.1,3.8,0S-39.3-127.4-40.3-126.4z"/>
					</g>
				</g>
				<g>
					<g>
						<polygon class="st2" points="-38.9,-121.1 -35.4,-117.1 -31.4,-120.6 -35,-124.7 						"/>
						<path class="st3" d="M-33.4-118.9c-1.1,1-2.8,0.9-3.8-0.2s-0.9-2.8,0.2-3.8s2.8-0.9,3.8,0.2
							C-32.2-121.6-32.3-119.9-33.4-118.9z"/>
					</g>
				</g>
				<g>
					<g>
						<polygon class="st2" points="-32.3,-113.5 -28.9,-109.4 -24.7,-112.7 -28.1,-116.9 						"/>
						<path class="st3" d="M-26.8-111c-1.2,0.9-2.9,0.7-3.8-0.4s-0.7-2.8,0.4-3.8c1.1-0.9,2.8-0.8,3.8,0.4
							C-25.5-113.6-25.7-111.9-26.8-111z"/>
					</g>
				</g>
				<g>
					<g>
						<polygon class="st2" points="-26,-105.6 -22.9,-101.3 -18.5,-104.4 -21.7,-108.8 						"/>
						<path class="st3" d="M-20.7-102.9c-1.2,0.9-2.9,0.6-3.8-0.6s-0.6-2.9,0.6-3.8s2.9-0.6,3.8,0.6
							C-19.2-105.4-19.5-103.7-20.7-102.9z"/>
					</g>
				</g>
				<g>
					<g>
						<polygon class="st2" points="-20.1,-97.3 -17.1,-93 -12.6,-95.9 -15.7,-100.4 						"/>
						<path class="st3" d="M-14.9-94.4c-1.2,0.8-2.9,0.5-3.7-0.7c-0.8-1.2-0.5-2.9,0.7-3.7s2.9-0.5,3.7,0.7
							C-13.3-96.9-13.6-95.2-14.9-94.4z"/>
					</g>
				</g>
				<g>
					<g>
						<path class="st2" d="M-14.6-88.9c0.9,1.5,1.9,3,2.8,4.5l4.6-2.8c-0.9-1.6-1.9-3.1-2.8-4.6L-14.6-88.9z"/>
						<path class="st3" d="M-9.5-85.7c-1.3,0.8-2.9,0.3-3.7-0.9c-0.8-1.2-0.4-2.9,0.9-3.7s2.9-0.4,3.7,0.9
							C-7.8-88.2-8.2-86.5-9.5-85.7z"/>
					</g>
				</g>
				<g>
					<g>
						<path class="st2" d="M-9.4-80.2c0.9,1.5,1.8,3.1,2.6,4.6l4.7-2.6c-0.9-1.6-1.7-3.2-2.6-4.7L-9.4-80.2z"/>
						<path class="st3" d="M-4.4-76.8c-1.3,0.7-2.9,0.2-3.6-1.1s-0.3-2.9,1-3.6c1.3-0.7,3-0.3,3.7,1C-2.6-79.2-3.1-77.5-4.4-76.8z"
							/>
					</g>
				</g>
				<g>
					<g>
						<path class="st2" d="M-4.5-71.3c0.8,1.6,1.6,3.2,2.4,4.7L2.7-69c-0.8-1.6-1.6-3.2-2.5-4.8L-4.5-71.3z"/>
						<path class="st3" d="M0.3-67.8C-1-67.1-2.6-67.7-3.3-69s-0.1-2.9,1.2-3.6c1.3-0.7,3-0.2,3.6,1.2C2.2-70,1.6-68.4,0.3-67.8z"/>
					</g>
				</g>
				<g>
					<g>
						<polygon class="st2" points="0.1,-62.2 2.3,-57.4 7.2,-59.7 4.9,-64.6 						"/>
						<path class="st3" d="M4.7-58.5c-1.4,0.6-3,0-3.6-1.3s0-2.9,1.3-3.6C3.7-64,5.3-63.5,6-62.1S6.1-59.2,4.7-58.5z"/>
					</g>
				</g>
				<g>
					<g>
						<polygon class="st2" points="4.3,-53 6.4,-48.1 11.4,-50.2 9.2,-55.2 						"/>
						<path class="st3" d="M8.9-49.2c-1.4,0.6-3,0-3.5-1.4s0-2.9,1.4-3.5s2.9,0,3.5,1.4C10.9-51.3,10.3-49.8,8.9-49.2z"/>
					</g>
				</g>
				<g>
					<g>
						<path class="st2" d="M8.3-43.7c0.7,1.6,1.4,3.3,2,5l5-2c-0.6-1.7-1.3-3.4-2-5L8.3-43.7z"/>
						<path class="st3" d="M12.7-39.7c-1.4,0.5-2.9-0.1-3.5-1.5s0.1-2.9,1.5-3.5s2.9,0.1,3.5,1.5C14.8-41.8,14.1-40.2,12.7-39.7z"/>
					</g>
				</g>
				<g>
					<g>
						<path class="st2" d="M12-34.2c0.6,1.7,1.2,3.3,1.8,5l5-1.8c-0.6-1.7-1.2-3.4-1.9-5.1L12-34.2z"/>
						<path class="st3" d="M16.3-30.1c-1.4,0.5-2.9-0.2-3.4-1.6c-0.5-1.4,0.2-2.9,1.6-3.4s3,0.2,3.5,1.6
							C18.4-32.2,17.7-30.6,16.3-30.1z"/>
					</g>
				</g>
				<g>
					<g>
						<polygon class="st2" points="15.4,-24.7 17.1,-19.6 22.2,-21.3 20.5,-26.4 						"/>
						<path class="st3" d="M19.6-20.5c-1.4,0.5-2.9-0.3-3.4-1.7c-0.5-1.4,0.3-2.9,1.7-3.4c1.4-0.5,2.9,0.3,3.4,1.7
							C21.8-22.4,21.1-20.9,19.6-20.5z"/>
					</g>
				</g>
				<g>
					<g>
						<path class="st2" d="M18.6-15c0.5,1.7,1.1,3.4,1.6,5.1l5.1-1.5c-0.5-1.7-1-3.5-1.6-5.2L18.6-15z"/>
						<path class="st3" d="M22.7-10.7c-1.4,0.4-2.9-0.4-3.3-1.8c-0.4-1.4,0.3-2.9,1.8-3.4c1.4-0.4,2.9,0.3,3.4,1.8
							C24.9-12.6,24.1-11.1,22.7-10.7z"/>
					</g>
				</g>
				<g>
					<g>
						<polygon class="st2" points="21.5,-5.3 22.9,-0.1 28.1,-1.5 26.7,-6.8 						"/>
						<path class="st3" d="M25.5-0.9c-1.4,0.4-2.9-0.5-3.3-1.9s0.4-2.9,1.9-3.3s2.9,0.4,3.3,1.9C27.8-2.7,27-1.2,25.5-0.9z"/>
					</g>
				</g>
				<g>
					<g>
						<polygon class="st2" points="24.2,4.5 25.5,9.7 30.7,8.4 29.4,3.2 						"/>
						<path class="st3" d="M28.1,9.1c-1.4,0.4-2.9-0.5-3.3-2c-0.4-1.4,0.5-2.9,2-3.3c1.4-0.4,2.9,0.5,3.3,2
							C30.4,7.2,29.5,8.7,28.1,9.1z"/>
					</g>
				</g>
				<g>
					<g>
						<path class="st2" d="M26.6,14.4c0.4,1.7,0.8,3.5,1.2,5.2l5.3-1.1c-0.4-1.8-0.8-3.5-1.2-5.3L26.6,14.4z"/>
						<path class="st3" d="M30.4,19c-1.5,0.3-2.9-0.6-3.2-2c-0.3-1.4,0.6-2.9,2-3.2s2.9,0.6,3.2,2C32.8,17.3,31.9,18.7,30.4,19z"/>
					</g>
				</g>
				<g>
					<g>
						<path class="st4" d="M16.1,27.1c0.2-0.9,0.5-1.6,1.1-2.3c0.4-0.4,1-0.8,1.6-0.9L43,18.8c0.6-0.1,1.3,0,1.9,0.2
							c0.5,0.3,1,0.6,1.4,1.1c0.8,0.9,1.4,2.1,1.6,3.5l0,0l-2.7,0.5c-0.1-0.7-0.4-1.3-0.7-1.7s-0.6-0.7-0.8-0.8c-0.1,0-0.1,0-0.2,0
							l-24.2,4.9c0,0-0.1,0-0.1,0.1c-0.1,0.1-0.2,0.3-0.3,0.5c-0.2,0.5-0.3,1.3-0.1,2.1l-2.7,0.5C15.9,28.9,15.9,28,16.1,27.1z"/>
					</g>
				</g>
			</g>
		</g>
	</g>
	<g class="st0">
		<g class="st1">
			<g>
				<g>
					<g>
						<path class="st2" d="M1170.9,381.4c1.2,1.3,2.4,2.7,3.7,4l3.9-3.7c-1.2-1.3-2.4-2.6-3.6-3.9L1170.9,381.4z"/>
						<path class="st3" d="M1176.5,383.5c-1.1,1-2.8,1-3.8-0.1s-0.9-2.8,0.2-3.8s2.8-0.9,3.8,0.2
							C1177.6,380.8,1177.5,382.5,1176.5,383.5z"/>
					</g>
				</g>
				<g>
					<g>
						<polygon class="st2" points="1179.5,390.6 1183.3,394.5 1187.1,390.7 1183.4,386.9 						"/>
						<path class="st3" d="M1185.2,392.6c-1,1-2.7,1-3.8,0s-1-2.8,0-3.8c1.1-1,2.8-1,3.8,0C1186.3,389.8,1186.3,391.5,1185.2,392.6z
							"/>
					</g>
				</g>
				<g>
					<g>
						<path class="st2" d="M1186.8,397.9c1.3,1.3,2.6,2.5,3.9,3.7l3.7-3.9c-1.3-1.2-2.6-2.4-3.8-3.7L1186.8,397.9z"/>
						<path class="st3" d="M1192.6,399.7c-1,1.1-2.7,1.1-3.8,0.1c-1.1-1-1.1-2.8-0.1-3.8c1-1.1,2.7-1.1,3.8-0.1
							C1193.5,396.9,1193.6,398.6,1192.6,399.7z"/>
					</g>
				</g>
				<g>
					<g>
						<polygon class="st2" points="1194.3,405 1198.3,408.5 1201.9,404.5 1197.9,401 						"/>
						<path class="st3" d="M1200.1,406.5c-1,1.1-2.7,1.2-3.8,0.2c-1.1-1-1.2-2.7-0.2-3.8s2.7-1.2,3.8-0.2
							C1201,403.7,1201.1,405.4,1200.1,406.5z"/>
					</g>
				</g>
				<g>
					<g>
						<path class="st2" d="M1202,411.7c1.4,1.2,2.7,2.3,4.1,3.5l3.4-4.2c-1.4-1.1-2.7-2.3-4.1-3.4L1202,411.7z"/>
						<path class="st3" d="M1207.9,413.1c-0.9,1.1-2.7,1.3-3.8,0.3c-1.1-1-1.3-2.7-0.3-3.8s2.7-1.3,3.8-0.3
							C1208.6,410.3,1208.8,412,1207.9,413.1z"/>
					</g>
				</g>
				<g>
					<g>
						<path class="st2" d="M1210,418.3c1.4,1.1,2.8,2.2,4.3,3.3l3.3-4.3c-1.4-1.1-2.8-2.1-4.2-3.2L1210,418.3z"/>
						<path class="st3" d="M1215.9,419.5c-0.9,1.2-2.6,1.4-3.8,0.5c-1.2-0.9-1.4-2.6-0.5-3.8s2.6-1.4,3.8-0.5
							C1216.5,416.6,1216.8,418.3,1215.9,419.5z"/>
					</g>
				</g>
				<g>
					<g>
						<path class="st2" d="M1218.2,424.5c1.5,1,2.9,2.1,4.4,3.2l3.1-4.4c-1.5-1-2.9-2-4.3-3.1L1218.2,424.5z"/>
						<path class="st3" d="M1224.1,425.5c-0.8,1.2-2.6,1.5-3.8,0.6c-1.2-0.9-1.5-2.6-0.6-3.8s2.5-1.5,3.7-0.6
							C1224.6,422.6,1224.9,424.2,1224.1,425.5z"/>
					</g>
				</g>
				<g>
					<g>
						<polygon class="st2" points="1226.6,430.4 1231.1,433.4 1234,428.9 1229.6,426 						"/>
						<path class="st3" d="M1232.6,431.1c-0.8,1.3-2.4,1.6-3.7,0.8c-1.3-0.8-1.6-2.5-0.8-3.7c0.8-1.2,2.5-1.6,3.7-0.8
							C1233,428.2,1233.4,429.9,1232.6,431.1z"/>
					</g>
				</g>
				<g>
					<g>
						<path class="st2" d="M1235.3,436c1.5,1,3.1,1.8,4.7,2.7l2.6-4.7c-1.5-0.9-3.1-1.7-4.6-2.7L1235.3,436z"/>
						<path class="st3" d="M1241.3,436.4c-0.7,1.3-2.4,1.7-3.7,1c-1.3-0.8-1.7-2.4-0.9-3.7c0.8-1.3,2.4-1.7,3.7-0.9
							C1241.6,433.4,1242,435.1,1241.3,436.4z"/>
					</g>
				</g>
				<g>
					<g>
						<path class="st2" d="M1244.3,441.1c1.6,0.8,3.2,1.7,4.8,2.5l2.4-4.8c-1.6-0.7-3.1-1.6-4.7-2.4L1244.3,441.1z"/>
						<path class="st3" d="M1250.3,441.1c-0.6,1.3-2.3,1.9-3.6,1.2c-1.3-0.7-1.8-2.3-1.1-3.6s2.3-1.8,3.6-1.1
							C1250.4,438.2,1251,439.8,1250.3,441.1z"/>
					</g>
				</g>
				<g>
					<g>
						<path class="st2" d="M1253.6,445.7c1.7,0.7,3.3,1.5,5,2.2l2.1-5c-1.6-0.7-3.2-1.4-4.8-2.1L1253.6,445.7z"/>
						<path class="st3" d="M1259.6,445.3c-0.6,1.4-2.2,2-3.5,1.4c-1.4-0.6-2-2.2-1.4-3.5s2.2-2,3.5-1.4S1260.2,444,1259.6,445.3z"/>
					</g>
				</g>
				<g>
					<g>
						<path class="st2" d="M1263.2,449.6c1.7,0.6,3.4,1.2,5.2,1.8l1.7-5.1c-1.7-0.5-3.3-1.2-4.9-1.7L1263.2,449.6z"/>
						<path class="st3" d="M1269.2,448.9c-0.5,1.4-2,2.2-3.4,1.7s-2.2-2-1.6-3.4c0.5-1.4,2.1-2.1,3.4-1.6
							C1268.9,446,1269.6,447.5,1269.2,448.9z"/>
					</g>
				</g>
				<g>
					<g>
						<path class="st2" d="M1273.1,452.9c1.8,0.4,3.5,1,5.3,1.3l1.2-5.2c-1.7-0.3-3.4-0.8-5.1-1.3L1273.1,452.9z"/>
						<path class="st3" d="M1279,451.6c-0.3,1.5-1.8,2.4-3.3,2s-2.3-1.8-1.9-3.3c0.4-1.4,1.9-2.3,3.2-1.9
							C1278.4,448.7,1279.3,450.1,1279,451.6z"/>
					</g>
				</g>
				<g>
					<g>
						<path class="st2" d="M1283.3,455.2c1.8,0.3,3.6,0.6,5.5,0.8l0.6-5.3c-1.7-0.1-3.4-0.4-5.1-0.7L1283.3,455.2z"/>
						<path class="st3" d="M1289,453.2c-0.1,1.5-1.5,2.6-3,2.3c-1.5-0.2-2.5-1.6-2.3-3.1s1.6-2.5,3-2.2
							C1288.2,450.5,1289.2,451.8,1289,453.2z"/>
					</g>
				</g>
				<g>
					<g>
						<path class="st2" d="M1293.8,456.3c1.8,0.1,3.7,0,5.6,0l-0.2-5.4c-1.7,0-3.4,0.1-5.1,0L1293.8,456.3z"/>
						<path class="st3" d="M1299.2,453.6c0.1,1.5-1.1,2.7-2.7,2.7c-0.8,0-1.5-0.3-1.9-0.8c-0.5-0.5-0.8-1.2-0.7-1.9s0.3-1.4,0.8-1.9
							s1.1-0.7,1.8-0.8C1297.9,450.9,1299.1,452.1,1299.2,453.6z"/>
					</g>
				</g>
				<g>
					<g>
						<path class="st2" d="M1304.4,455.9c1.8-0.3,3.7-0.5,5.5-1l-1.2-5.2c-1.6,0.4-3.3,0.6-5,0.9L1304.4,455.9z"/>
						<path class="st3" d="M1309.3,452.3c0.2,0.7,0,1.4-0.4,2s-1,1.1-1.8,1.2c-1.6,0.2-2.9-0.8-3.1-2.2s0.8-2.8,2.2-3
							c0.7-0.1,1.4,0,1.9,0.4C1308.7,450.9,1309.1,451.5,1309.3,452.3z"/>
					</g>
				</g>
				<g>
					<g>
						<path class="st2" d="M1314.8,453.5c0.9-0.3,1.8-0.7,2.7-1c0.9-0.4,1.8-0.7,2.6-1.1l-2.3-4.8c-0.7,0.4-1.5,0.7-2.3,1
							s-1.5,0.7-2.3,0.9L1314.8,453.5z"/>
						<path class="st3" d="M1318.9,448.9c0.3,0.7,0.3,1.4,0.1,2.1c-0.3,0.6-0.8,1.2-1.5,1.5s-1.5,0.3-2.1,0
							c-0.7-0.3-1.2-0.8-1.4-1.5s-0.2-1.4,0.1-2c0.3-0.6,0.7-1.2,1.4-1.4c0.6-0.3,1.3-0.2,2,0C1318,447.8,1318.6,448.3,1318.9,448.9
							z"/>
					</g>
				</g>
				<g>
					<g>
						<path class="st2" d="M1324.6,448.9c1.6-1,3.1-2.1,4.6-3.3l-3.3-4.2c-1.3,1.1-2.7,2-4.1,2.9L1324.6,448.9z"/>
						<path class="st3" d="M1327.5,443.5c0.9,1.2,0.7,2.9-0.6,3.8c-1.3,0.9-3,0.6-3.8-0.7s-0.5-2.9,0.7-3.7
							C1324.9,442.1,1326.6,442.3,1327.5,443.5z"/>
					</g>
				</g>
				<g>
					<g>
						<path class="st2" d="M1333,442.3c1.4-1.3,2.7-2.6,3.9-4l-4-3.6c-1.2,1.3-2.4,2.5-3.6,3.6L1333,442.3z"/>
						<path class="st3" d="M1334.9,436.6c1.1,1,1.1,2.7,0.1,3.8c-1.1,1.1-2.8,1.1-3.8,0s-1-2.8,0-3.7
							C1332.2,435.6,1333.9,435.6,1334.9,436.6z"/>
					</g>
				</g>
				<g>
					<g>
						<path class="st2" d="M1340.2,434.5c1.1-1.5,2.3-2.9,3.3-4.5l-4.4-3c-1,1.4-2,2.8-3.1,4.2L1340.2,434.5z"/>
						<path class="st3" d="M1341.3,428.6c1.2,0.8,1.5,2.5,0.6,3.8s-2.6,1.5-3.8,0.5c-1.2-0.9-1.4-2.6-0.5-3.7
							C1338.4,428,1340,427.7,1341.3,428.6z"/>
					</g>
				</g>
				<g>
					<g>
						<path class="st2" d="M1346.2,425.8c0.5-0.8,0.9-1.6,1.3-2.4c0.4-0.8,0.9-1.6,1.3-2.5l-4.8-2.3c-0.4,0.8-0.8,1.5-1.2,2.3
							c-0.4,0.8-0.8,1.5-1.3,2.2L1346.2,425.8z"/>
						<path class="st3" d="M1346.4,419.7c1.3,0.6,1.9,2.3,1.2,3.7c-0.7,1.4-2.4,1.8-3.7,1.1c-1.3-0.8-1.7-2.3-1.1-3.6
							C1343.5,419.6,1345,419.1,1346.4,419.7z"/>
					</g>
				</g>
				<g>
					<g>
						<path class="st2" d="M1350.8,416.3c0.7-1.7,1.3-3.5,1.8-5.3l-5.2-1.5c-0.5,1.6-1,3.2-1.7,4.8L1350.8,416.3z"/>
						<path class="st3" d="M1350,410.3c1.4,0.4,2.2,2,1.7,3.4c-0.5,1.5-2.1,2.2-3.5,1.6c-1.4-0.5-2.1-2-1.6-3.4
							C1347.1,410.6,1348.6,409.8,1350,410.3z"/>
					</g>
				</g>
				<g>
					<g>
						<path class="st2" d="M1353.8,406.1c0.2-0.9,0.3-1.8,0.5-2.8c0.1-0.9,0.2-1.9,0.3-2.8l-5.3-0.4c-0.1,0.8-0.2,1.7-0.3,2.5
							c-0.1,0.8-0.3,1.7-0.4,2.5L1353.8,406.1z"/>
						<path class="st3" d="M1351.9,400.2c1.5,0.1,2.6,1.5,2.4,3c-0.3,1.5-1.6,2.6-3.1,2.3c-1.4-0.3-2.4-1.6-2.2-3
							C1349.1,401.2,1350.4,400.1,1351.9,400.2z"/>
					</g>
				</g>
				<g>
					<g>
						<path class="st2" d="M1354.7,395.3c-0.1-1-0.1-1.9-0.2-2.8l-0.2-1.4l-0.2-1.4l-5.3,0.9l0.2,1.2l0.1,1.2
							c0.1,0.8,0.1,1.7,0.2,2.5L1354.7,395.3z"/>
						<path class="st3" d="M1351.5,390.1c1.4-0.3,2.9,0.8,3,2.4c0.2,1.6-1,2.9-2.5,2.9s-2.7-1-2.8-2.4
							C1349.1,391.7,1350,390.4,1351.5,390.1z"/>
					</g>
				</g>
				<g>
					<g>
						<path class="st2" d="M1352.9,384.6c-0.6-1.8-1.3-3.6-2.1-5.3l-4.8,2.3c0.7,1.5,1.3,3,1.8,4.6L1352.9,384.6z"/>
						<path class="st3" d="M1348.4,380.4c0.7-0.3,1.4-0.3,2.1-0.1c0.6,0.3,1.2,0.8,1.5,1.5c0.3,0.8,0.2,1.5-0.1,2.2
							c-0.3,0.6-0.9,1.1-1.6,1.3s-1.4,0.1-2-0.2s-1.1-0.8-1.3-1.4c-0.3-0.6-0.2-1.3,0-2C1347.3,381.3,1347.8,380.7,1348.4,380.4z"/>
					</g>
				</g>
				<g>
					<g>
						<path class="st2" d="M1348.4,374.7c-1-1.6-2.1-3.2-3.2-4.6l-4.2,3.3c1.1,1.3,2,2.7,2.9,4.1L1348.4,374.7z"/>
						<path class="st3" d="M1343,371.8c1.2-0.9,2.9-0.7,3.8,0.6s0.5,3-0.7,3.8c-1.3,0.8-2.9,0.4-3.7-0.7
							C1341.7,374.3,1341.9,372.7,1343,371.8z"/>
					</g>
				</g>
				<g>
					<g>
						<path class="st2" d="M1341.9,366.3c-1.3-1.4-2.6-2.7-4.1-3.9l-3.5,4c1.3,1.1,2.5,2.3,3.7,3.5L1341.9,366.3z"/>
						<path class="st3" d="M1336,364.4c1-1.1,2.7-1.2,3.8-0.1s1.1,2.8,0,3.8s-2.7,1-3.7,0C1335.2,367.2,1335.1,365.5,1336,364.4z"/>
					</g>
				</g>
				<g>
					<g>
						<path class="st2" d="M1333.8,359.2c-1.5-1.1-3.1-2.1-4.8-3l-2.6,4.7c1.5,0.8,2.9,1.7,4.3,2.7L1333.8,359.2z"/>
						<path class="st3" d="M1327.7,358.5c0.7-1.3,2.4-1.8,3.7-0.9c1.3,0.8,1.7,2.6,0.8,3.8c-0.9,1.2-2.5,1.5-3.7,0.8
							C1327.4,361.4,1327,359.9,1327.7,358.5z"/>
					</g>
				</g>
				<g>
					<g>
						<path class="st2" d="M1324.3,354c-1.8-0.7-3.7-1.2-5.7-1.5l-0.8,5.3c1.5,0.2,3.1,0.7,4.6,1.3L1324.3,354z"/>
						<path class="st3" d="M1318.2,355.1c0.2-1.5,1.7-2.5,3.3-2c0.8,0.2,1.4,0.7,1.7,1.4c0.3,0.6,0.4,1.4,0.1,2s-0.8,1.2-1.4,1.5
							s-1.3,0.4-1.9,0.2C1318.8,357.9,1318,356.6,1318.2,355.1z"/>
					</g>
				</g>
				<g>
					<g>
						<path class="st2" d="M1313,352.3c-2.1,0.3-4.3,1.1-6.1,2.3l3,4.4c1.1-0.8,2.4-1.2,3.8-1.4L1313,352.3z"/>
						<path class="st3" d="M1308.4,356.8c-0.4-0.6-0.5-1.3-0.3-2.1c0.3-0.7,0.9-1.4,1.7-1.7c0.4-0.2,0.9-0.2,1.3-0.2
							s0.8,0.1,1.1,0.3c0.6,0.4,1,1,1.1,1.7s-0.1,1.5-0.4,2c-0.2,0.3-0.3,0.5-0.5,0.7s-0.4,0.3-0.7,0.4c-0.5,0.2-1.1,0.2-1.7-0.1
							C1309.4,357.9,1308.8,357.5,1308.4,356.8z"/>
					</g>
				</g>
				<g>
					<g>
						<path class="st2" d="M1302.8,358.6c-1.2,1.6-2.2,3.3-3.1,5l4.8,2.3c0.7-1.5,1.5-2.9,2.5-4.1L1302.8,358.6z"/>
						<path class="st3" d="M1302.2,364.8c-1.3-0.6-1.9-2.3-1-3.7c0.4-0.7,1.1-1.2,1.8-1.3c0.7-0.2,1.4,0,2,0.5s0.9,1.1,1.1,1.7
							c0.1,0.6,0.1,1.3-0.3,1.9C1305,364.9,1303.5,365.4,1302.2,364.8z"/>
					</g>
				</g>
				<g>
					<g>
						<path class="st2" d="M1297.8,368.4c-0.6,1.8-1.1,3.6-1.6,5.4l5.2,1.3c0.4-1.7,0.9-3.3,1.4-4.9L1297.8,368.4z"/>
						<path class="st3" d="M1298.8,374.4c-1.4-0.3-2.3-1.8-1.9-3.3s2-2.3,3.4-1.8s2.2,2,1.8,3.3
							C1301.7,373.9,1300.3,374.7,1298.8,374.4z"/>
					</g>
				</g>
				<g>
					<g>
						<path class="st2" d="M1295.2,378.6c-0.3,1.8-0.6,3.6-0.8,5.4l5.3,0.6c0.2-1.7,0.4-3.4,0.8-5.1L1295.2,378.6z"/>
						<path class="st3" d="M1297,384.4c-1.5-0.2-2.5-1.5-2.3-3s1.6-2.5,3.1-2.3c1.5,0.3,2.4,1.6,2.2,3
							C1299.8,383.6,1298.5,384.6,1297,384.4z"/>
					</g>
				</g>
				<g>
					<g>
						<path class="st2" d="M1293.9,389c-0.1,1.8-0.2,3.6-0.3,5.5l5.4,0.2c0.1-1.8,0.2-3.5,0.3-5.2L1293.9,389z"/>
						<path class="st3" d="M1296.3,394.6c-1.5,0-2.7-1.3-2.6-2.8s1.4-2.6,2.8-2.5c1.5,0.1,2.6,1.4,2.5,2.8
							C1299,393.5,1297.8,394.6,1296.3,394.6z"/>
					</g>
				</g>
				<g>
					<g>
						<path class="st2" d="M1293.5,399.4c0,1.8,0.1,3.6,0.1,5.5l5.4-0.2c-0.1-1.8-0.1-3.5-0.1-5.3H1293.5z"/>
						<path class="st3" d="M1296.3,404.8c-1.5,0.1-2.7-1.1-2.8-2.6s1.2-2.7,2.7-2.7s2.7,1.2,2.7,2.6
							C1298.9,403.5,1297.8,404.7,1296.3,404.8z"/>
					</g>
				</g>
				<g>
					<g>
						<path class="st2" d="M1293.9,409.8c0.1,1.8,0.3,3.6,0.5,5.4l5.3-0.6c-0.2-1.7-0.3-3.5-0.5-5.2L1293.9,409.8z"/>
						<path class="st3" d="M1297,414.9c-1.5,0.2-2.8-0.9-2.9-2.4s1-2.8,2.5-2.9c1.5-0.1,2.8,1,2.9,2.4
							C1299.6,413.5,1298.5,414.8,1297,414.9z"/>
					</g>
				</g>
				<g>
					<g>
						<path class="st2" d="M1295,420.1c0.2,1.8,0.5,3.6,0.8,5.4l5.3-0.9c-0.3-1.7-0.6-3.5-0.8-5.2L1295,420.1z"/>
						<path class="st3" d="M1298.4,425c-1.5,0.3-2.8-0.8-3.1-2.2c-0.2-1.5,0.8-2.8,2.3-3s2.8,0.8,3,2.3
							C1300.9,423.4,1299.9,424.8,1298.4,425z"/>
					</g>
				</g>
				<g>
					<g>
						<path class="st2" d="M1296.7,430.3c0.3,1.8,0.7,3.5,1.1,5.3l5.2-1.2c-0.4-1.7-0.8-3.4-1.1-5.1L1296.7,430.3z"/>
						<path class="st3" d="M1300.4,435c-1.4,0.3-2.9-0.6-3.2-2c-0.3-1.5,0.6-2.9,2.1-3.2c1.4-0.3,2.9,0.6,3.2,2
							C1302.8,433.3,1301.9,434.7,1300.4,435z"/>
					</g>
				</g>
				<g>
					<g>
						<path class="st2" d="M1299,440.4c0.5,1.8,1,3.5,1.5,5.2l5.1-1.6c-0.5-1.7-1-3.4-1.4-5L1299,440.4z"/>
						<path class="st3" d="M1303,444.9c-1.4,0.4-2.9-0.4-3.3-1.8c-0.4-1.5,0.4-2.9,1.9-3.3c1.4-0.4,2.9,0.5,3.3,1.8
							C1305.3,443,1304.5,444.4,1303,444.9z"/>
					</g>
				</g>
				<g>
					<g>
						<path class="st2" d="M1302,450.3c0.6,1.7,1.2,3.4,1.9,5.1l5-1.9c-0.6-1.6-1.2-3.3-1.8-4.9L1302,450.3z"/>
						<path class="st3" d="M1306.4,454.5c-1.4,0.5-2.9-0.2-3.5-1.6c-0.5-1.4,0.2-3,1.6-3.4c1.4-0.5,2.9,0.3,3.4,1.6
							S1307.8,454,1306.4,454.5z"/>
					</g>
				</g>
				<g>
					<g>
						<path class="st2" d="M1305.8,460c0.7,1.7,1.5,3.3,2.3,5l4.8-2.3c-0.8-1.6-1.5-3.2-2.2-4.8L1305.8,460z"/>
						<path class="st3" d="M1310.4,463.8c-1.3,0.7-3,0.1-3.6-1.3c-0.6-1.4,0-3,1.3-3.6s2.9,0,3.5,1.3
							C1312.3,461.6,1311.8,463.2,1310.4,463.8z"/>
					</g>
				</g>
				<g>
					<g>
						<path class="st2" d="M1310.3,469.4c0.9,1.6,1.8,3.2,2.8,4.8l4.6-2.8c-0.9-1.5-1.8-3-2.6-4.5L1310.3,469.4z"/>
						<path class="st3" d="M1315.4,472.8c-1.3,0.8-2.9,0.4-3.7-1c-0.8-1.3-0.3-3,1-3.7s2.9-0.3,3.6,1S1316.6,472,1315.4,472.8z"/>
					</g>
				</g>
				<g>
					<g>
						<path class="st2" d="M1315.8,478.4c1,1.5,2.2,3,3.3,4.4l4.2-3.3c-1.1-1.4-2.1-2.7-3.1-4.2L1315.8,478.4z"/>
						<path class="st3" d="M1321.2,481.1c-1.2,0.9-2.9,0.7-3.8-0.5s-0.6-2.9,0.6-3.8c1.2-0.8,2.9-0.6,3.7,0.6
							C1322.6,478.5,1322.3,480.2,1321.2,481.1z"/>
					</g>
				</g>
				<g>
					<g>
						<polygon class="st2" points="1322.3,486.6 1326.2,490.6 1329.9,486.7 1326.3,483 						"/>
						<path class="st3" d="M1328.1,488.6c-1,1.1-2.7,1.1-3.8,0c-1.1-1.1-1.1-2.8,0.1-3.8c1.1-1,2.8-1,3.8,0
							C1329.1,485.9,1329.1,487.6,1328.1,488.6z"/>
					</g>
				</g>
				<g>
					<g>
						<path class="st2" d="M1330,493.9c0.7,0.6,1.4,1.2,2.1,1.8l2.2,1.6l3.2-4.3l-2.1-1.5c-0.7-0.5-1.3-1.1-2-1.7L1330,493.9z"/>
						<path class="st3" d="M1335.9,495.1c-0.9,1.2-2.6,1.5-3.8,0.5c-1.2-0.9-1.3-2.7-0.4-3.8c1-1.1,2.6-1.3,3.7-0.4
							C1336.5,492.3,1336.8,493.9,1335.9,495.1z"/>
					</g>
				</g>
				<g>
					<g>
						<path class="st2" d="M1338.4,500.1l2.3,1.5c0.8,0.5,1.6,1,2.4,1.4l2.6-4.7c-0.8-0.4-1.5-0.9-2.2-1.3l-2.2-1.4L1338.4,500.1z"
							/>
						<path class="st3" d="M1344.5,500.6c-0.4,0.7-0.9,1.1-1.6,1.3s-1.4,0.1-2.1-0.3c-1.3-0.8-1.7-2.5-0.9-3.7
							c0.8-1.2,2.4-1.6,3.7-0.9c0.6,0.4,1,1,1.2,1.6C1344.9,499.3,1344.8,500,1344.5,500.6z"/>
					</g>
				</g>
				<g>
					<g>
						<path class="st2" d="M1347.6,505.3c1.6,0.8,3.3,1.5,5,2.3l2.1-4.9c-1.6-0.7-3.2-1.3-4.8-2.1L1347.6,505.3z"/>
						<path class="st3" d="M1353.7,505.1c-0.6,1.4-2.2,2-3.6,1.4c-0.7-0.3-1.2-0.8-1.4-1.5c-0.2-0.7-0.2-1.4,0.1-2.1
							c0.3-0.7,0.9-1.1,1.5-1.3c0.6-0.3,1.4-0.3,2,0C1353.6,502.1,1354.2,503.7,1353.7,505.1z"/>
					</g>
				</g>
				<g>
					<g>
						<path class="st2" d="M1357.2,509.4c1.7,0.6,3.4,1.3,5.2,1.8l1.6-5.1c-1.7-0.5-3.3-1.1-4.9-1.7L1357.2,509.4z"/>
						<path class="st3" d="M1363.2,508.6c-0.4,1.4-2,2.3-3.4,1.7c-1.4-0.5-2.2-2.1-1.7-3.5s2-2.1,3.4-1.6
							C1362.9,505.7,1363.7,507.2,1363.2,508.6z"/>
					</g>
				</g>
				<g>
					<g>
						<path class="st2" d="M1367.2,512.6c1.8,0.5,3.5,0.9,5.3,1.3l1.2-5.2c-1.7-0.4-3.4-0.8-5.1-1.2L1367.2,512.6z"/>
						<path class="st3" d="M1373,511.2c-0.3,1.5-1.8,2.3-3.3,2c-0.7-0.2-1.3-0.6-1.7-1.2c-0.3-0.6-0.5-1.3-0.3-2s0.7-1.3,1.2-1.6
							c0.6-0.4,1.3-0.5,2-0.3C1372.5,508.3,1373.4,509.8,1373,511.2z"/>
					</g>
				</g>
				<g>
					<g>
						<path class="st2" d="M1377.3,514.8c1.8,0.3,3.6,0.7,5.4,1l0.8-5.3c-1.7-0.3-3.4-0.6-5.2-0.9L1377.3,514.8z"/>
						<path class="st3" d="M1383.1,513.1c-0.2,1.5-1.6,2.5-3.1,2.2s-2.5-1.7-2.2-3.1c0.3-1.5,1.7-2.4,3.1-2.2
							C1382.3,510.3,1383.3,511.7,1383.1,513.1z"/>
					</g>
				</g>
				<g>
					<g>
						<polygon class="st2" points="1387.5,516.4 1390.3,516.8 1392.9,517 1393.4,511.6 1390.8,511.4 1388.2,511.1 						"/>
						<path class="st3" d="M1393.2,514.3c-0.1,1.5-1.4,2.6-2.9,2.5c-1.5-0.2-2.6-1.5-2.4-3s1.5-2.5,2.9-2.3
							C1392.2,511.5,1393.3,512.8,1393.2,514.3z"/>
					</g>
				</g>
				<g>
					<g>
						<polygon class="st2" points="1397.9,517.4 1403.3,517.6 1403.4,512.2 1398.2,512 						"/>
						<path class="st3" d="M1403.4,514.9c0,1.5-1.3,2.6-2.8,2.6s-2.6-1.3-2.6-2.8c0.1-1.5,1.3-2.6,2.8-2.6
							C1402.3,512.2,1403.4,513.4,1403.4,514.9z"/>
					</g>
				</g>
				<g>
					<g>
						<polygon class="st2" points="1408.2,517.7 1413.6,517.6 1413.5,512.3 1408.2,512.3 						"/>
						<path class="st3" d="M1413.5,515c0,1.5-1.2,2.7-2.7,2.7s-2.7-1.2-2.7-2.7s1.2-2.7,2.7-2.7
							C1412.3,512.3,1413.5,513.5,1413.5,515z"/>
					</g>
				</g>
				<g>
					<g>
						<path class="st2" d="M1418.5,517.5c1.8-0.1,3.6-0.1,5.4-0.3l-0.3-5.4c-1.8,0.1-3.5,0.2-5.3,0.3L1418.5,517.5z"/>
						<path class="st3" d="M1423.7,514.5c0.1,1.5-1,2.8-2.5,2.8c-1.5,0.1-2.8-1.1-2.8-2.6c-0.1-1.5,1.1-2.7,2.5-2.8
							C1422.4,511.9,1423.6,513.1,1423.7,514.5z"/>
					</g>
				</g>
				<g>
					<g>
						<path class="st2" d="M1428.8,516.8c1.8-0.2,3.6-0.3,5.4-0.5l-0.6-5.3c-1.8,0.2-3.5,0.4-5.3,0.5L1428.8,516.8z"/>
						<path class="st3" d="M1433.9,513.6c0.2,1.5-0.9,2.8-2.4,3c-1.5,0.1-2.8-1-2.9-2.5s0.9-2.8,2.4-2.9
							C1432.4,511.1,1433.7,512.1,1433.9,513.6z"/>
					</g>
				</g>
				<g>
					<g>
						<path class="st2" d="M1439,515.7c1.8-0.2,3.6-0.5,5.3-0.7l-0.8-5.3c-1.8,0.3-3.5,0.5-5.3,0.7L1439,515.7z"/>
						<path class="st3" d="M1444,512.3c0.2,1.5-0.8,2.8-2.3,3.1c-1.5,0.2-2.8-0.9-3-2.3c-0.2-1.5,0.8-2.8,2.3-3
							C1442.4,509.9,1443.8,510.9,1444,512.3z"/>
					</g>
				</g>
				<g>
					<g>
						<path class="st2" d="M1449.2,514.2c1.8-0.2,3.5-0.6,5.3-0.9l-1-5.3c-1.7,0.3-3.5,0.7-5.2,0.9L1449.2,514.2z"/>
						<path class="st3" d="M1454.1,510.7c0.3,1.5-0.7,2.9-2.2,3.1c-1.5,0.3-2.9-0.8-3.1-2.2c-0.2-1.5,0.7-2.8,2.2-3.1
							C1452.4,508.2,1453.8,509.2,1454.1,510.7z"/>
					</g>
				</g>
				<g>
					<g>
						<path class="st2" d="M1459.3,512.4c1.8-0.3,3.5-0.8,5.3-1.1l-1.1-5.3c-1.7,0.4-3.4,0.8-5.2,1.1L1459.3,512.4z"/>
						<path class="st3" d="M1464,508.7c0.3,1.5-0.6,2.9-2.1,3.2c-1.5,0.3-2.9-0.6-3.2-2.1c-0.3-1.4,0.7-2.8,2.1-3.2
							C1462.3,506.3,1463.7,507.2,1464,508.7z"/>
					</g>
				</g>
				<g>
					<g>
						<polygon class="st2" points="1469.4,510.3 1474.6,509 1473.3,503.8 1468.2,505 						"/>
						<path class="st3" d="M1474,506.4c0.4,1.4-0.5,2.9-2,3.3c-1.4,0.4-2.9-0.5-3.2-2c-0.3-1.4,0.6-2.9,2-3.2
							C1472.2,504.1,1473.6,504.9,1474,506.4z"/>
					</g>
				</g>
				<g>
					<g>
						<polygon class="st2" points="1479.4,507.8 1484.6,506.4 1483.1,501.2 1478,502.6 						"/>
						<path class="st3" d="M1483.8,503.8c0.4,1.4-0.4,2.9-1.9,3.3c-1.4,0.4-2.9-0.4-3.3-1.9c-0.4-1.4,0.5-2.9,1.9-3.3
							C1482,501.5,1483.4,502.3,1483.8,503.8z"/>
					</g>
				</g>
				<g>
					<g>
						<polygon class="st2" points="1489.3,505 1494.4,503.5 1492.8,498.3 1487.8,499.9 						"/>
						<path class="st3" d="M1493.6,500.9c0.4,1.4-0.4,2.9-1.8,3.4s-2.9-0.4-3.3-1.8c-0.4-1.4,0.4-2.9,1.8-3.3
							C1491.7,498.7,1493.2,499.5,1493.6,500.9z"/>
					</g>
				</g>
				<g>
					<g>
						<polygon class="st2" points="1499.1,502 1504.2,500.3 1502.5,495.2 1497.4,496.9 						"/>
						<path class="st3" d="M1503.3,497.8c0.5,1.4-0.3,2.9-1.7,3.4c-1.4,0.5-2.9-0.3-3.4-1.7c-0.4-1.4,0.3-2.9,1.7-3.4
							C1501.3,495.6,1502.9,496.4,1503.3,497.8z"/>
					</g>
				</g>
				<g>
					<g>
						<path class="st2" d="M1508.8,498.8c1.7-0.6,3.4-1.2,5.1-1.8l-1.8-5c-1.7,0.6-3.3,1.2-5,1.8L1508.8,498.8z"/>
						<path class="st3" d="M1512.9,494.4c0.5,1.4-0.2,2.9-1.6,3.5c-1.4,0.5-2.9-0.2-3.4-1.6s0.3-2.9,1.6-3.4
							C1510.9,492.3,1512.4,493,1512.9,494.4z"/>
					</g>
				</g>
				<g>
					<g>
						<path class="st2" d="M1518.4,495.3c1.7-0.6,3.3-1.3,5-1.9l-1.9-5c-1.7,0.7-3.3,1.3-5,1.9L1518.4,495.3z"/>
						<path class="st3" d="M1522.5,490.8c0.5,1.4-0.1,2.9-1.5,3.5c-1.4,0.5-2.9-0.2-3.5-1.6c-0.5-1.4,0.2-2.9,1.5-3.5
							C1520.4,488.8,1521.9,489.4,1522.5,490.8z"/>
					</g>
				</g>
				<g>
					<g>
						<path class="st2" d="M1528,491.5c1.7-0.7,3.3-1.3,5-2l-2.1-5c-1.6,0.7-3.3,1.4-4.9,2L1528,491.5z"/>
						<path class="st3" d="M1531.9,487c0.6,1.4-0.1,3-1.4,3.5c-1.4,0.5-2.9-0.1-3.5-1.5s0.1-2.9,1.5-3.5
							C1529.8,485,1531.4,485.6,1531.9,487z"/>
					</g>
				</g>
				<g>
					<g>
						<path class="st2" d="M1537.5,487.6c1.7-0.7,3.3-1.4,4.9-2.1l-2.2-4.9c-1.6,0.8-3.3,1.4-4.9,2.1L1537.5,487.6z"/>
						<path class="st3" d="M1541.3,483c0.6,1.3,0,3-1.4,3.5c-1.4,0.6-2.9-0.1-3.5-1.4c-0.6-1.4,0-2.9,1.4-3.5
							C1539.2,481.1,1540.7,481.6,1541.3,483z"/>
					</g>
				</g>
				<g>
					<g>
						<polygon class="st2" points="1546.8,483.4 1551.7,481.2 1549.5,476.4 1544.6,478.6 						"/>
						<path class="st3" d="M1550.6,478.8c0.6,1.3,0,2.9-1.3,3.5s-2.9,0-3.6-1.3c-0.6-1.3,0-2.9,1.3-3.5
							C1548.4,476.9,1550,477.5,1550.6,478.8z"/>
					</g>
				</g>
				<g>
					<g>
						<polygon class="st2" points="1556.1,479.1 1561,476.8 1558.6,472 1553.8,474.3 						"/>
						<path class="st3" d="M1559.8,474.4c0.7,1.3,0.1,2.9-1.2,3.6c-1.3,0.6-2.9,0.1-3.6-1.3s-0.1-2.9,1.2-3.6
							C1557.5,472.5,1559.1,473.1,1559.8,474.4z"/>
					</g>
				</g>
				<g>
					<g>
						<polygon class="st2" points="1565.3,474.6 1570.1,472.2 1567.7,467.4 1562.9,469.8 						"/>
						<path class="st3" d="M1568.9,469.8c0.7,1.3,0.2,2.9-1.2,3.6c-1.3,0.7-2.9,0.2-3.6-1.2c-0.7-1.3-0.1-2.9,1.2-3.6
							C1566.6,467.9,1568.2,468.5,1568.9,469.8z"/>
					</g>
				</g>
				<g>
					<g>
						<polygon class="st2" points="1574.4,469.9 1579.2,467.4 1576.6,462.7 1571.9,465.2 						"/>
						<path class="st3" d="M1577.9,465c0.7,1.3,0.2,2.9-1.1,3.6c-1.3,0.7-2.9,0.2-3.6-1.1s-0.2-2.9,1.1-3.6
							C1575.6,463.2,1577.2,463.7,1577.9,465z"/>
					</g>
				</g>
				<g>
					<g>
						<path class="st2" d="M1583.5,465.1c1.6-0.8,3.1-1.8,4.7-2.6l-2.6-4.7c-1.6,0.9-3.1,1.8-4.6,2.6L1583.5,465.1z"/>
						<path class="st3" d="M1586.8,460.1c0.7,1.3,0.3,2.9-1,3.7s-2.9,0.3-3.6-1s-0.3-2.9,1-3.7
							C1584.5,458.4,1586.1,458.8,1586.8,460.1z"/>
					</g>
				</g>
				<g>
					<g>
						<path class="st4" d="M1599.1,471.2c-0.9,0.1-1.8,0.1-2.7-0.3c-0.6-0.3-1.1-0.7-1.4-1.3l-12.2-21.5c-0.3-0.6-0.4-1.2-0.4-1.8
							c0.1-0.6,0.2-1.1,0.5-1.6c0.6-1,1.4-1.9,2.6-2.5l0,0l1.4,2.4c-0.6,0.3-1,0.7-1.3,1.1c-0.3,0.4-0.4,0.8-0.4,0.9
							c0,0.1,0,0.2,0,0.2l12.3,21.4c0,0,0,0.1,0.2,0.1c0.1,0,0.3,0.1,0.6,0.1c0.6,0,1.4-0.2,2.2-0.7l1.4,2.4
							C1600.9,470.7,1600,471,1599.1,471.2z"/>
					</g>
				</g>
			</g>
		</g>
	</g>
	<circle class="st4" cx="29.5" cy="29.2" r="27"/>
	<circle class="st5" cx="1166.5" cy="372.4" r="27.1"/>
	<g class="st0">
		<g class="st1">
			<g>
				<path class="st6" d="M1186,372c0-1-0.8-1.9-2.3-2.6c-1-0.5-2.3-0.8-3.1-0.8h-6.2l-8.5-11.7h-5.2l5.1,11.7h-5.4l-4.1-3.6h-3.7
					l2.2,6.2h-2.3v1.7h2.3l-2.2,6.2h3.7l4.1-3.6h5.5l-5.1,11.7h5.2l8.5-11.7h6.1c0.8,0,2-0.3,3.1-0.8
					C1185.2,373.9,1186,373,1186,372z M1163.4,358.6h1.7l7.3,10h-4.6L1163.4,358.6z M1165.1,385.5h-1.7l4.4-10h4.6L1165.1,385.5z
					 M1183,373.1c-0.9,0.4-1.9,0.7-2.3,0.7h-20.8l-4.1,3.6h-0.6l1.6-4.5h2.1v-1.7h-2.1l-1.6-4.5h0.6l4.1,3.6h20.8
					c0.4,0,1.5,0.3,2.3,0.7c1,0.5,1.3,0.9,1.3,1C1184.3,372.1,1183.9,372.6,1183,373.1z"/>
			</g>
		</g>
	</g>
	<g>
		<g>
			<g>
				<path class="st6" d="M29.8,12.9c-6.1,0-11.1,5.1-11.1,11.3c0,3.5,1.8,7.7,5.2,12.6c2.5,3.5,5,6.1,5.1,6.2
					c0.2,0.2,0.5,0.3,0.7,0.3s0.5-0.1,0.7-0.3c0.1-0.1,2.6-2.5,5.2-6c3.5-4.8,5.2-9.1,5.2-12.7C40.9,17.9,35.9,12.9,29.8,12.9z
					 M29.8,40.8c-2.2-2.4-9.1-10.4-9.1-16.6c0-5.1,4.1-9.3,9.1-9.3s9.1,4.2,9.1,9.3C38.9,30.7,32,38.4,29.8,40.8z"/>
			</g>
		</g>
		<g>
			<g>
				<path class="st6" d="M29.8,18.2c-3,0-5.4,2.4-5.4,5.4s2.4,5.4,5.4,5.4s5.4-2.4,5.4-5.4S32.8,18.2,29.8,18.2z M29.8,27
					c-1.9,0-3.4-1.5-3.4-3.4s1.5-3.4,3.4-3.4s3.4,1.5,3.4,3.4S31.7,27,29.8,27z"/>
			</g>
		</g>
	</g>
</g>
</svg>
