<?xml version="1.0" encoding="utf-8"?>
<!-- Generator: Adobe Illustrator 24.0.1, SVG Export Plug-In . SVG Version: 6.00 Build 0)  -->
<svg version="1.1" id="Layer_1" xmlns="http://www.w3.org/2000/svg" xmlns:xlink="http://www.w3.org/1999/xlink" x="0px" y="0px"
	 viewBox="0 0 56.8 57.5" style="enable-background:new 0 0 56.8 57.5;" xml:space="preserve">
<style type="text/css">
	.st0{display:none;}
	.st1{display:inline;}
	.st2{fill:none;}
	.st3{fill-rule:evenodd;clip-rule:evenodd;fill:#396742;}
	.st4{fill:#396742;}
	.st5{display:none;fill:#396742;}
	.st6{fill:#FFFFFF;}
</style>
<g id="Layer_1_1_" class="st0">
	
		<image style="display:inline;overflow:visible;enable-background:new    ;" width="1365" height="768" xlink:href="B25A09EA.jpeg"  transform="matrix(1.4676 0 0 1.4676 -1554.7344 -836.6856)">
	</image>
</g>
<g id="Layer_2_1_">
	<g class="st0">
		<g class="st1">
			<g>
				<g>
					<g>
						<polygon class="st2" points="-1575.8,-503.3 -1570.6,-504.9 -1572.3,-510 -1577.4,-508.4 						"/>
						<path class="st3" d="M-1571.5-507.4c0.4,1.4-0.3,2.9-1.7,3.4s-2.9-0.3-3.4-1.7c-0.4-1.4,0.3-2.9,1.7-3.4
							C-1573.4-509.6-1571.9-508.9-1571.5-507.4z"/>
					</g>
				</g>
				<g>
					<g>
						<polygon class="st2" points="-1563.7,-507.1 -1558.6,-508.7 -1560.2,-513.8 -1565.3,-512.2 						"/>
						<path class="st3" d="M-1559.4-511.3c0.4,1.4-0.4,2.9-1.8,3.4s-2.9-0.3-3.4-1.8s0.3-2.9,1.8-3.4
							C-1561.3-513.5-1559.8-512.7-1559.4-511.3z"/>
					</g>
				</g>
				<g>
					<g>
						<polygon class="st2" points="-1553.9,-510.1 -1548.8,-511.7 -1550.4,-516.8 -1555.5,-515.3 						"/>
						<path class="st3" d="M-1549.6-514.3c0.4,1.4-0.4,2.9-1.8,3.4c-1.4,0.5-2.9-0.4-3.4-1.8c-0.4-1.4,0.4-2.9,1.8-3.4
							C-1551.6-516.6-1550-515.7-1549.6-514.3z"/>
					</g>
				</g>
				<g>
					<g>
						<polygon class="st2" points="-1544.2,-513.1 -1539,-514.7 -1540.6,-519.8 -1545.7,-518.3 						"/>
						<path class="st3" d="M-1539.8-517.3c0.4,1.4-0.4,2.9-1.8,3.3c-1.4,0.4-2.9-0.4-3.4-1.8c-0.4-1.3,0.4-2.8,1.8-3.3
							C-1541.7-519.5-1540.2-518.7-1539.8-517.3z"/>
					</g>
				</g>
				<g>
					<g>
						<polygon class="st2" points="-1534.4,-516.1 -1529.2,-517.6 -1530.8,-522.8 -1535.9,-521.2 						"/>
						<path class="st3" d="M-1530-520.2c0.4,1.4-0.4,2.9-1.8,3.3c-1.4,0.4-2.9-0.4-3.3-1.8c-0.4-1.4,0.4-2.9,1.8-3.3
							C-1531.9-522.4-1530.4-521.6-1530-520.2z"/>
					</g>
				</g>
				<g>
					<g>
						<polygon class="st2" points="-1524.6,-519 -1519.4,-520.5 -1520.9,-525.7 -1526.1,-524.2 						"/>
						<path class="st3" d="M-1520.2-523.1c0.4,1.4-0.4,2.9-1.8,3.3c-1.4,0.4-2.9-0.4-3.3-1.8c-0.4-1.4,0.4-2.9,1.8-3.3
							C-1522.1-525.3-1520.6-524.5-1520.2-523.1z"/>
					</g>
				</g>
				<g>
					<g>
						<polygon class="st2" points="-1514.8,-521.8 -1509.6,-523.3 -1511.1,-528.5 -1516.3,-527 						"/>
						<path class="st3" d="M-1510.4-525.9c0.4,1.4-0.4,2.9-1.8,3.3s-2.9-0.4-3.3-1.8c-0.4-1.4,0.4-2.9,1.8-3.3
							C-1512.2-528.2-1510.8-527.3-1510.4-525.9z"/>
					</g>
				</g>
				<g>
					<g>
						<polygon class="st2" points="-1504.9,-524.6 -1499.8,-526.1 -1501.2,-531.3 -1506.4,-529.8 						"/>
						<path class="st3" d="M-1500.5-528.7c0.4,1.4-0.4,2.9-1.9,3.3c-1.5,0.4-2.9-0.4-3.3-1.9s0.4-2.9,1.9-3.3
							C-1502.4-530.9-1500.9-530.1-1500.5-528.7z"/>
					</g>
				</g>
				<g>
					<g>
						<polygon class="st2" points="-1495.1,-527.4 -1489.9,-528.8 -1491.3,-534 -1496.5,-532.6 						"/>
						<path class="st3" d="M-1490.6-531.4c0.4,1.4-0.5,2.9-1.9,3.3c-1.4,0.4-2.9-0.4-3.3-1.9c-0.4-1.4,0.4-2.9,1.9-3.3
							C-1492.5-533.7-1491-532.8-1490.6-531.4z"/>
					</g>
				</g>
				<g>
					<g>
						<polygon class="st2" points="-1485.2,-530 -1480.1,-531.4 -1481.4,-536.6 -1486.6,-535.2 						"/>
						<path class="st3" d="M-1480.7-534c0.4,1.4-0.5,2.9-1.9,3.3c-1.4,0.4-2.9-0.5-3.3-1.9c-0.4-1.4,0.5-2.9,1.9-3.3
							C-1482.6-536.3-1481.1-535.4-1480.7-534z"/>
					</g>
				</g>
				<g>
					<g>
						<polygon class="st2" points="-1475.4,-532.6 -1470.2,-533.9 -1471.5,-539.1 -1476.7,-537.8 						"/>
						<path class="st3" d="M-1470.8-536.5c0.4,1.4-0.5,2.9-1.9,3.3c-1.4,0.4-2.9-0.5-3.3-1.9c-0.4-1.4,0.5-2.9,1.9-3.3
							C-1472.7-538.8-1471.2-538-1470.8-536.5z"/>
					</g>
				</g>
				<g>
					<g>
						<polygon class="st2" points="-1465.5,-535.1 -1460.3,-536.4 -1461.5,-541.6 -1466.8,-540.3 						"/>
						<path class="st3" d="M-1460.9-539c0.3,1.4-0.5,2.9-2,3.3c-1.5,0.4-2.9-0.5-3.2-2c-0.4-1.4,0.5-2.9,2-3.3
							C-1462.7-541.3-1461.2-540.5-1460.9-539z"/>
					</g>
				</g>
				<g>
					<g>
						<polygon class="st2" points="-1455.6,-537.5 -1450.3,-538.8 -1451.6,-544 -1456.8,-542.8 						"/>
						<path class="st3" d="M-1451-541.4c0.3,1.4-0.6,2.9-2,3.2c-1.4,0.3-2.9-0.6-3.2-2c-0.3-1.4,0.6-2.9,2-3.2
							S-1451.3-542.8-1451-541.4z"/>
					</g>
				</g>
				<g>
					<g>
						<polygon class="st2" points="-1445.6,-539.9 -1440.4,-541 -1441.6,-546.3 -1446.8,-545.1 						"/>
						<path class="st3" d="M-1441-543.6c0.3,1.4-0.6,2.9-2,3.2c-1.4,0.3-2.9-0.6-3.2-2c-0.3-1.4,0.6-2.9,2-3.2
							S-1441.3-545.1-1441-543.6z"/>
					</g>
				</g>
				<g>
					<g>
						<path class="st2" d="M-1435.6-542.1c1.7-0.4,3.5-0.8,5.2-1.1l-1.1-5.3c-1.8,0.4-3.5,0.7-5.3,1.1L-1435.6-542.1z"/>
						<path class="st3" d="M-1431-545.8c0.3,1.4-0.6,2.9-2.1,3.2c-1.4,0.3-2.9-0.6-3.2-2.1c-0.3-1.5,0.6-2.9,2.1-3.2
							S-1431.3-547.3-1431-545.8z"/>
					</g>
				</g>
				<g>
					<g>
						<polygon class="st2" points="-1425.7,-544.2 -1420.4,-545.2 -1421.5,-550.5 -1426.7,-549.4 						"/>
						<path class="st3" d="M-1421-547.9c0.3,1.4-0.7,2.9-2.1,3.2c-1.4,0.3-2.9-0.6-3.2-2.1c-0.3-1.5,0.6-2.9,2.1-3.2
							C-1422.7-550.3-1421.2-549.3-1421-547.9z"/>
					</g>
				</g>
				<g>
					<g>
						<polygon class="st2" points="-1415.7,-546.1 -1410.4,-547.1 -1411.4,-552.4 -1416.7,-551.4 						"/>
						<path class="st3" d="M-1410.9-549.8c0.3,1.5-0.7,2.9-2.1,3.1c-1.4,0.2-2.9-0.7-3.1-2.1c-0.3-1.4,0.7-2.9,2.1-3.1
							C-1412.5-552.2-1411.1-551.2-1410.9-549.8z"/>
					</g>
				</g>
				<g>
					<g>
						<polygon class="st2" points="-1405.6,-548 -1400.4,-548.8 -1401.2,-554.1 -1406.6,-553.3 						"/>
						<path class="st3" d="M-1400.8-551.5c0.2,1.5-0.8,2.9-2.2,3.1c-1.4,0.2-2.8-0.7-3.1-2.2c-0.3-1.5,0.7-2.8,2.2-3.1
							C-1402.4-554-1401-553-1400.8-551.5z"/>
					</g>
				</g>
				<g>
					<g>
						<polygon class="st2" points="-1395.6,-549.6 -1390.3,-550.4 -1391.1,-555.7 -1396.4,-554.9 						"/>
						<path class="st3" d="M-1390.7-553.1c0.2,1.5-0.8,2.8-2.3,3.1c-1.5,0.3-2.8-0.8-3.1-2.3c-0.2-1.5,0.8-2.8,2.3-3.1
							C-1392.3-555.5-1390.9-554.5-1390.7-553.1z"/>
					</g>
				</g>
				<g>
					<g>
						<polygon class="st2" points="-1385.5,-551.1 -1380.2,-551.8 -1380.9,-557.1 -1386.2,-556.4 						"/>
						<path class="st3" d="M-1380.5-554.4c0.2,1.5-0.9,2.8-2.3,3s-2.8-0.9-3-2.3c-0.2-1.4,0.8-2.8,2.3-3
							C-1382-556.9-1380.7-555.9-1380.5-554.4z"/>
					</g>
				</g>
				<g>
					<g>
						<polygon class="st2" points="-1375.4,-552.3 -1370.1,-552.9 -1370.6,-558.2 -1376,-557.7 						"/>
						<path class="st3" d="M-1370.4-555.6c0.1,1.5-0.9,2.8-2.4,2.9c-1.5,0.1-2.8-0.9-2.9-2.4c-0.2-1.5,0.9-2.8,2.4-2.9
							C-1371.8-558.1-1370.5-557-1370.4-555.6z"/>
					</g>
				</g>
				<g>
					<g>
						<polygon class="st2" points="-1365.3,-553.3 -1360,-553.7 -1360.4,-559.1 -1365.8,-558.7 						"/>
						<path class="st3" d="M-1360.2-556.4c0.1,1.5-1,2.8-2.5,2.9c-1.5,0.1-2.8-1-2.9-2.5s1-2.8,2.5-2.9
							C-1361.6-559-1360.3-557.9-1360.2-556.4z"/>
					</g>
				</g>
				<g>
					<g>
						<path class="st2" d="M-1355.2-554c1.8-0.1,3.5-0.2,5.3-0.2l-0.1-5.4c-1.8,0-3.6,0.2-5.4,0.2L-1355.2-554z"/>
						<path class="st3" d="M-1350-556.9c0,1.5-1.1,2.7-2.6,2.8s-2.7-1.1-2.8-2.6c-0.1-1.5,1.1-2.7,2.6-2.8
							C-1351.3-559.5-1350-558.4-1350-556.9z"/>
					</g>
				</g>
				<g>
					<g>
						<path class="st2" d="M-1345.1-554.3c1.8-0.1,3.5,0,5.3,0l0.1-5.4c-1.8,0-3.6-0.1-5.4,0V-554.3z"/>
						<path class="st3" d="M-1339.7-556.9c0,1.5-1.2,2.7-2.7,2.6c-1.5,0-2.7-1.2-2.7-2.7s1.2-2.7,2.7-2.7
							C-1340.9-559.6-1339.7-558.4-1339.7-556.9z"/>
					</g>
				</g>
				<g>
					<g>
						<polygon class="st2" points="-1335,-554.1 -1329.7,-553.8 -1329.3,-559.1 -1334.8,-559.5 						"/>
						<path class="st3" d="M-1329.5-556.4c-0.1,1.5-1.4,2.6-2.9,2.5c-1.4-0.1-2.6-1.4-2.5-2.8c0.1-1.5,1.3-2.6,2.9-2.5
							C-1330.5-559.2-1329.4-557.9-1329.5-556.4z"/>
					</g>
				</g>
				<g>
					<g>
						<polygon class="st2" points="-1325,-553.3 -1323.7,-553.1 -1322.4,-552.9 -1319.8,-552.6 -1318.9,-557.8 -1321.6,-558.3 
							-1323,-558.5 -1324.4,-558.6 						"/>
						<path class="st3" d="M-1319.4-555.2c-0.3,1.5-1.6,2.5-3,2.3c-1.4-0.3-2.5-1.5-2.3-3s1.5-2.6,3-2.3
							C-1320.1-558-1319.1-556.6-1319.4-555.2z"/>
					</g>
				</g>
				<g>
					<g>
						<path class="st2" d="M-1315.2-551.7c1.7,0.3,3.4,0.8,5,1.3l1.5-5.2c-1.8-0.5-3.6-1-5.4-1.4L-1315.2-551.7z"/>
						<path class="st3" d="M-1309.4-553c-0.4,1.4-1.9,2.3-3.2,1.9c-1.4-0.4-2.3-1.7-2-3.2c0.3-1.4,1.8-2.4,3.3-2
							C-1309.8-555.9-1309-554.4-1309.4-553z"/>
					</g>
				</g>
				<g>
					<g>
						<path class="st2" d="M-1305.7-549c0.8,0.3,1.6,0.6,2.4,1c0.8,0.4,1.6,0.6,2.3,1l2.4-4.8c-0.8-0.4-1.7-0.8-2.6-1.1
							c-0.9-0.4-1.7-0.8-2.6-1.1L-1305.7-549z"/>
						<path class="st3" d="M-1299.8-549.4c-0.6,1.3-2.2,1.9-3.5,1.4c-0.6-0.3-1.1-0.8-1.4-1.4c-0.3-0.6-0.3-1.3-0.1-2
							c0.3-0.7,0.8-1.2,1.4-1.5c0.6-0.3,1.4-0.3,2.1,0.1C-1299.8-552.3-1299.1-550.7-1299.8-549.4z"/>
					</g>
				</g>
				<g>
					<g>
						<path class="st2" d="M-1297-544.7c0.7,0.5,1.4,0.9,2.1,1.4l1.9,1.5l3.5-4.1l-2.3-1.8c-0.8-0.6-1.6-1.1-2.4-1.6L-1297-544.7z"
							/>
						<path class="st3" d="M-1291.3-543.8c-1,1.1-2.6,1.3-3.7,0.5c-1.1-0.8-1.4-2.4-0.6-3.7c0.8-1.2,2.5-1.6,3.8-0.6
							C-1290.5-546.6-1290.3-544.9-1291.3-543.8z"/>
					</g>
				</g>
				<g>
					<g>
						<path class="st2" d="M-1289.9-538.6l0.8,0.9c0.3,0.3,0.5,0.7,0.7,1c0.5,0.7,0.9,1.3,1.3,2.1l4.7-2.6c-0.4-0.9-1-1.7-1.6-2.5
							c-0.3-0.4-0.5-0.8-0.8-1.2l-0.9-1.1L-1289.9-538.6z"/>
						<path class="st3" d="M-1284.8-535.9c-0.6,0.4-1.4,0.4-2,0.3s-1.3-0.5-1.6-1c-0.3-0.5-0.5-1.2-0.4-1.9c0.1-0.6,0.4-1.3,1-1.8
							s1.3-0.7,2-0.6c0.7,0.1,1.4,0.5,1.8,1.2c0.5,0.7,0.6,1.4,0.5,2.1C-1283.8-536.9-1284.2-536.3-1284.8-535.9z"/>
					</g>
				</g>
				<g>
					<g>
						<path class="st2" d="M-1285.3-530.6l0.8,2.4c0.2,0.8,0.4,1.6,0.6,2.4l5.2-1.2c-0.2-0.9-0.5-1.9-0.7-2.8l-0.9-2.7
							L-1285.3-530.6z"/>
						<path class="st3" d="M-1281.2-526.4c-1.5,0.3-2.9-0.5-3.3-1.8c-0.4-1.3,0.3-2.8,1.7-3.3s2.9,0.3,3.4,1.8
							S-1279.8-526.7-1281.2-526.4z"/>
					</g>
				</g>
				<g>
					<g>
						<path class="st2" d="M-1283.1-521.3c0.2,1.7,0.3,3.4,0.4,5.1l5.4-0.2c-0.1-1.9-0.2-3.7-0.5-5.6L-1283.1-521.3z"/>
						<path class="st3" d="M-1279.9-516.2c-1.5,0-2.8-1.1-2.8-2.5c-0.1-1.4,0.9-2.7,2.4-2.9s2.8,0.9,3,2.4
							C-1277.3-517.6-1278.5-516.3-1279.9-516.2z"/>
					</g>
				</g>
				<g>
					<g>
						<path class="st2" d="M-1282.6-511.5c0,1.7-0.2,3.4-0.3,5.2l5.3,0.6c0.1-1.8,0.3-3.7,0.4-5.5L-1282.6-511.5z"/>
						<path class="st3" d="M-1280.3-506c-1.5-0.2-2.6-1.4-2.5-2.9s1.3-2.5,2.8-2.5s2.7,1.3,2.5,2.9
							C-1277.5-507-1278.8-505.9-1280.3-506z"/>
					</g>
				</g>
				<g>
					<g>
						<path class="st2" d="M-1283.6-501.6c-0.3,1.7-0.6,3.4-1,5.1l5.2,1.1c0.4-1.8,0.7-3.6,1-5.4L-1283.6-501.6z"/>
						<path class="st3" d="M-1281.9-495.9c-1.4-0.3-2.4-1.7-2.1-3.1c0.3-1.4,1.6-2.4,3.1-2.1c1.5,0.2,2.5,1.6,2.2,3.1
							C-1279.1-496.6-1280.5-495.6-1281.9-495.9z"/>
					</g>
				</g>
				<g>
					<g>
						<polygon class="st2" points="-1285.7,-491.9 -1286.4,-489.4 -1287.2,-486.9 -1282.1,-485.2 -1281.3,-487.8 -1280.5,-490.5 
													"/>
						<path class="st3" d="M-1284.6-486.1c-1.4-0.5-2.2-2-1.8-3.3c0.4-1.4,1.9-2.2,3.3-1.8s2.3,1.9,1.8,3.4
							C-1281.7-486.4-1283.3-485.6-1284.6-486.1z"/>
					</g>
				</g>
				<g>
					<g>
						<path class="st2" d="M-1288.8-482.4c-0.6,1.6-1.3,3.2-2,4.8l4.9,2.2c0.8-1.7,1.5-3.4,2.1-5.1L-1288.8-482.4z"/>
						<path class="st3" d="M-1288.4-476.5c-1.4-0.6-2-2.2-1.4-3.5c0.5-1.3,2.1-2,3.5-1.5s2,2.1,1.5,3.5
							C-1285.4-476.6-1287-475.9-1288.4-476.5z"/>
					</g>
				</g>
				<g>
					<g>
						<path class="st2" d="M-1292.9-473.4l-1.2,2.3c-0.4,0.8-0.9,1.5-1.3,2.2l4.6,2.8c0.5-0.8,1-1.6,1.4-2.4l1.3-2.4L-1292.9-473.4z
							"/>
						<path class="st3" d="M-1293.1-467.5c-1.3-0.8-1.7-2.4-1-3.6c0.7-1.3,2.3-1.7,3.6-1c1.3,0.7,1.8,2.3,1,3.7
							C-1290.2-467.1-1291.9-466.7-1293.1-467.5z"/>
					</g>
				</g>
				<g>
					<g>
						<path class="st2" d="M-1298-465c-1,1.4-2.1,2.7-3.2,4l4,3.6c1.2-1.4,2.4-2.9,3.5-4.4L-1298-465z"/>
						<path class="st3" d="M-1299.2-459.3c-1.1-1-1.3-2.7-0.4-3.7c0.9-1.1,2.5-1.3,3.7-0.5c1.2,0.9,1.5,2.6,0.5,3.8
							C-1296.4-458.4-1298.1-458.2-1299.2-459.3z"/>
					</g>
				</g>
				<g>
					<g>
						<path class="st2" d="M-1304.4-457.9c-0.6,0.6-1.3,1-1.9,1.5s-1.3,0.9-2,1.3l2.7,4.6c0.8-0.5,1.7-1.1,2.5-1.6
							c0.8-0.6,1.6-1.2,2.3-1.8L-1304.4-457.9z"/>
						<path class="st3" d="M-1307-452.7c-0.7-1.3-0.4-2.9,0.7-3.6c1-0.8,2.7-0.6,3.7,0.5c1,1.1,0.8,2.8-0.5,3.9
							C-1304.5-451-1306.3-451.4-1307-452.7z"/>
					</g>
				</g>
				<g>
					<g>
						<path class="st2" d="M-1312.2-453.4c-1.4,0.4-2.9,0.6-4.4,0.5l-0.3,5.4c2.1,0.1,4.2-0.1,6.2-0.7L-1312.2-453.4z"/>
						<path class="st3" d="M-1316.7-450.2c0-0.7,0.4-1.4,0.8-1.9c0.2-0.2,0.5-0.4,0.7-0.6c0.3-0.2,0.6-0.3,0.9-0.3
							c0.6,0,1.2,0.1,1.7,0.5c0.5,0.4,1,1,1.2,1.7c0.2,0.7,0.1,1.4-0.3,2s-1.1,1.1-2,1.1c-0.4,0-0.9,0-1.2-0.1
							c-0.4-0.1-0.7-0.3-1-0.6C-1316.5-448.8-1316.8-449.5-1316.7-450.2z"/>
					</g>
				</g>
				<g>
					<g>
						<path class="st2" d="M-1320.8-453.6c-1.5-0.4-3.1-1.1-4.5-1.8l-2.4,4.8c1.7,0.9,3.5,1.6,5.4,2.2L-1320.8-453.6z"/>
						<path class="st3" d="M-1326.5-453.1c0.7-1.3,2.2-1.9,3.4-1.4c0.6,0.2,1.1,0.7,1.4,1.3c0.3,0.6,0.4,1.3,0.2,2
							c-0.2,0.7-0.7,1.3-1.3,1.6c-0.6,0.3-1.4,0.3-2.2,0C-1326.6-450.1-1327.2-451.7-1326.5-453.1z"/>
					</g>
				</g>
				<g>
					<g>
						<path class="st2" d="M-1329.2-457.8c-1.4-0.9-2.8-2-4.1-3l-3.4,4.1c1.4,1.2,2.9,2.4,4.5,3.4L-1329.2-457.8z"/>
						<path class="st3" d="M-1335-458.7c1-1.1,2.6-1.3,3.7-0.5c1.1,0.9,1.4,2.4,0.6,3.7c-0.8,1.2-2.6,1.6-3.8,0.6
							C-1335.8-455.8-1335.9-457.6-1335-458.7z"/>
					</g>
				</g>
				<g>
					<g>
						<path class="st2" d="M-1336.7-463.9c-0.6-0.6-1.2-1.2-1.8-1.8c-0.6-0.6-1.1-1.3-1.7-1.9l-4.1,3.5c0.6,0.7,1.2,1.4,1.9,2.1
							c0.6,0.7,1.3,1.4,1.9,2L-1336.7-463.9z"/>
						<path class="st3" d="M-1342.2-465.9c1.1-0.9,2.8-0.9,3.8,0.2c1,1,0.9,2.7-0.1,3.8s-2.8,1-3.8-0.1
							C-1343.5-463.3-1343.4-465-1342.2-465.9z"/>
					</g>
				</g>
				<g>
					<g>
						<path class="st2" d="M-1343-471.3c-1-1.4-1.9-2.8-2.8-4.3l-4.7,2.7c0.9,1.6,2,3.2,3,4.7L-1343-471.3z"/>
						<path class="st3" d="M-1348.1-474.3c1.3-0.7,2.9-0.3,3.6,0.9c0.7,1.2,0.4,2.8-0.8,3.7c-1.2,0.9-2.9,0.6-3.8-0.8
							C-1349.8-471.9-1349.4-473.6-1348.1-474.3z"/>
					</g>
				</g>
				<g>
					<g>
						<path class="st2" d="M-1347.8-479.7c-0.4-0.8-0.6-1.6-0.9-2.3c-0.2-0.8-0.6-1.6-0.8-2.4l-5.2,1.4c0.2,0.9,0.6,1.8,0.9,2.8
							c0.4,0.9,0.7,1.8,1.1,2.6L-1347.8-479.7z"/>
						<path class="st3" d="M-1352.1-483.7c0.7-0.2,1.4-0.1,2,0.2c0.6,0.3,1.1,0.8,1.3,1.4c0.5,1.3-0.2,2.8-1.5,3.4
							c-1.4,0.6-3-0.1-3.5-1.6c-0.3-0.8-0.2-1.5,0.1-2.2C-1353.4-483-1352.8-483.5-1352.1-483.7z"/>
					</g>
				</g>
				<g>
					<g>
						<path class="st2" d="M-1350.3-488.7c-0.1-1.6-0.1-3.1,0.2-4.6l-5.3-1.1c-0.4,2.1-0.4,4.1-0.3,6.1L-1350.3-488.7z"/>
						<path class="st3" d="M-1352.8-493.8c0.7,0.1,1.3,0.6,1.7,1.1s0.7,1.1,0.6,1.7c-0.1,1.2-1.2,2.4-2.6,2.6
							c-1.5,0.2-2.8-1.1-2.7-2.8c0.1-0.9,0.4-1.6,1-2.1S-1353.5-494-1352.8-493.8z"/>
					</g>
				</g>
				<g>
					<g>
						<path class="st2" d="M-1348.7-496.9l0.6-0.9c0.2-0.3,0.5-0.6,0.7-0.9c0.3-0.3,0.5-0.6,0.8-0.9l0.9-0.8l-3.6-4l-1.1,1
							c-0.4,0.4-0.7,0.8-1,1.1c-0.3,0.4-0.7,0.8-1,1.2l-0.9,1.3L-1348.7-496.9z"/>
						<path class="st3" d="M-1347.5-502.4c0.5,0.6,0.7,1.2,0.8,1.9c0,0.6-0.2,1.3-0.6,1.8c-0.2,0.2-0.5,0.4-0.8,0.6
							c-0.3,0.1-0.6,0.2-0.9,0.3c-0.6,0.1-1.4,0-2-0.4c-0.6-0.4-1-1-1.1-1.7c-0.1-0.4,0-0.8,0.1-1.1c0.1-0.4,0.3-0.7,0.6-1
							c0.6-0.7,1.3-1,2-1C-1348.7-503.2-1348-502.9-1347.5-502.4z"/>
					</g>
				</g>
				<g>
					<g>
						<path class="st2" d="M-1342.2-503c0.7-0.4,1.4-0.9,2.1-1.2c0.8-0.4,1.5-0.8,2.3-1.1l-2.2-4.9c-0.9,0.4-1.7,0.8-2.6,1.3
							c-0.9,0.4-1.7,0.9-2.5,1.4L-1342.2-503z"/>
						<path class="st3" d="M-1338.9-507.8c0.3,0.7,0.3,1.4,0.1,2c-0.2,0.6-0.6,1.2-1.2,1.5c-0.6,0.3-1.3,0.4-1.9,0.2
							c-0.6-0.2-1.3-0.6-1.6-1.2c-0.4-0.6-0.5-1.4-0.3-2c0.2-0.7,0.7-1.3,1.4-1.7c0.7-0.4,1.5-0.4,2.1-0.2
							C-1339.8-509-1339.2-508.5-1338.9-507.8z"/>
					</g>
				</g>
				<g>
					<g>
						<path class="st2" d="M-1333.5-507.1c0.8-0.3,1.6-0.5,2.4-0.8c0.8-0.3,1.6-0.5,2.5-0.7l-1.4-5.2c-0.9,0.2-1.8,0.5-2.7,0.8
							s-1.8,0.5-2.6,0.9L-1333.5-507.1z"/>
						<path class="st3" d="M-1329.3-511.2c0.4,1.4-0.4,2.9-1.8,3.3c-1.4,0.4-2.9-0.4-3.4-1.7c-0.5-1.4,0.3-2.9,1.8-3.4
							S-1329.7-512.7-1329.3-511.2z"/>
					</g>
				</g>
				<g>
					<g>
						<path class="st2" d="M-1324-509.8c1.7-0.4,3.4-0.7,5.1-1l-0.9-5.3c-1.8,0.3-3.6,0.6-5.4,1.1L-1324-509.8z"/>
						<path class="st3" d="M-1319.3-513.4c0.2,1.4-0.7,2.9-2.1,3.1c-1.4,0.3-2.8-0.7-3.1-2.1c-0.3-1.4,0.6-2.9,2.1-3.2
							S-1319.5-514.9-1319.3-513.4z"/>
					</g>
				</g>
				<g>
					<g>
						<polygon class="st2" points="-1314.1,-511.5 -1311.5,-511.8 -1308.9,-512 -1309.4,-517.4 -1312.1,-517.1 -1314.8,-516.8 
													"/>
						<path class="st3" d="M-1309.1-514.7c0.1,1.5-0.9,2.8-2.4,2.9c-1.4,0.2-2.8-0.9-3-2.3c-0.2-1.5,0.9-2.8,2.4-3
							S-1309.3-516.2-1309.1-514.7z"/>
					</g>
				</g>
				<g>
					<g>
						<path class="st2" d="M-1304.1-512.4c1.8-0.1,3.5-0.2,5.3-0.2l-0.2-5.4c-1.8,0.1-3.6,0.1-5.5,0.3L-1304.1-512.4z"/>
						<path class="st3" d="M-1298.9-515.3c0,1.5-1.1,2.7-2.6,2.8c-1.5,0.1-2.7-1.1-2.8-2.5c-0.1-1.5,1-2.8,2.6-2.8
							C-1300.2-518-1299-516.8-1298.9-515.3z"/>
					</g>
				</g>
				<g>
					<g>
						<path class="st2" d="M-1294-512.7c1.8,0,3.5,0,5.3,0.1l0.1-5.4c-1.8-0.1-3.6,0-5.4-0.1V-512.7z"/>
						<path class="st3" d="M-1288.7-515.3c0,1.5-1.3,2.6-2.7,2.6c-1.5,0-2.6-1.2-2.6-2.7s1.2-2.7,2.7-2.7
							S-1288.6-516.8-1288.7-515.3z"/>
					</g>
				</g>
				<g>
					<g>
						<path class="st2" d="M-1284-512.5c1.8,0.1,3.5,0.2,5.3,0.3l0.4-5.4c-1.8-0.2-3.6-0.3-5.4-0.3L-1284-512.5z"/>
						<path class="st3" d="M-1278.5-514.8c-0.1,1.5-1.4,2.6-2.9,2.5s-2.6-1.4-2.5-2.8c0.1-1.5,1.4-2.6,2.9-2.5
							C-1279.5-517.6-1278.4-516.3-1278.5-514.8z"/>
					</g>
				</g>
				<g>
					<g>
						<path class="st2" d="M-1273.9-511.7c1.8,0.2,3.5,0.4,5.3,0.6l0.7-5.3c-1.8-0.2-3.6-0.4-5.4-0.6L-1273.9-511.7z"/>
						<path class="st3" d="M-1268.3-513.8c-0.2,1.5-1.5,2.5-3,2.3c-1.5-0.2-2.5-1.5-2.4-2.9c0.1-1.4,1.5-2.6,3-2.4
							S-1268.1-515.2-1268.3-513.8z"/>
					</g>
				</g>
				<g>
					<g>
						<path class="st2" d="M-1263.9-510.4c1.8,0.2,3.5,0.6,5.2,0.9l1-5.3c-1.8-0.3-3.6-0.6-5.4-0.9L-1263.9-510.4z"/>
						<path class="st3" d="M-1258.2-512.2c-0.3,1.5-1.6,2.4-3.1,2.2c-1.4-0.3-2.4-1.6-2.2-3.1c0.2-1.4,1.6-2.5,3.1-2.2
							C-1258.9-515.1-1257.9-513.7-1258.2-512.2z"/>
					</g>
				</g>
				<g>
					<g>
						<path class="st2" d="M-1254-508.7c1.7,0.4,3.4,0.8,5.2,1.2l1.3-5.2c-1.8-0.4-3.5-0.8-5.3-1.2L-1254-508.7z"/>
						<path class="st3" d="M-1248.2-510.1c-0.4,1.4-1.8,2.3-3.2,2c-1.4-0.3-2.3-1.8-2-3.2c0.3-1.5,1.7-2.4,3.2-2
							C-1248.7-513-1247.8-511.6-1248.2-510.1z"/>
					</g>
				</g>
				<g>
					<g>
						<path class="st2" d="M-1244.2-506.3c1.7,0.5,3.4,0.9,5,1.5l1.6-5.1c-1.7-0.6-3.5-1-5.2-1.6L-1244.2-506.3z"/>
						<path class="st3" d="M-1238.3-507.4c-0.5,1.4-1.9,2.2-3.3,1.8c-1.4-0.4-2.2-1.9-1.8-3.3c0.4-1.4,1.9-2.3,3.3-1.8
							C-1238.7-510.3-1237.9-508.8-1238.3-507.4z"/>
					</g>
				</g>
				<g>
					<g>
						<polygon class="st2" points="-1234.6,-503.3 -1229.7,-501.4 -1227.7,-506.4 -1232.8,-508.3 						"/>
						<path class="st3" d="M-1228.7-503.9c-0.6,1.4-2.1,2.1-3.5,1.6s-2-2.1-1.6-3.5c0.5-1.4,2-2.1,3.5-1.6
							C-1228.8-506.8-1228.1-505.3-1228.7-503.9z"/>
					</g>
				</g>
				<g>
					<g>
						<polygon class="st2" points="-1225.3,-499.5 -1220.5,-497.3 -1218.2,-502.1 -1223.1,-504.4 						"/>
						<path class="st3" d="M-1219.3-499.8c-0.7,1.3-2.3,1.9-3.6,1.3c-1.3-0.6-1.9-2.2-1.3-3.6s2.2-1.9,3.6-1.3
							C-1219.3-502.7-1218.7-501.1-1219.3-499.8z"/>
					</g>
				</g>
				<g>
					<g>
						<polygon class="st2" points="-1216.3,-495.1 -1211.7,-492.6 -1209,-497.2 -1213.8,-499.9 						"/>
						<path class="st3" d="M-1210.3-494.9c-0.8,1.3-2.4,1.8-3.7,1.1c-1.3-0.7-1.7-2.3-1-3.6c0.7-1.3,2.3-1.8,3.7-1.1
							C-1210-497.8-1209.6-496.2-1210.3-494.9z"/>
					</g>
				</g>
				<g>
					<g>
						<path class="st2" d="M-1207.6-490.1c1.5,1,3,1.9,4.4,2.9l3-4.4c-1.5-1.1-3.1-2-4.6-3L-1207.6-490.1z"/>
						<path class="st3" d="M-1201.7-489.4c-0.4,0.6-1,1-1.7,1.1c-0.7,0.1-1.4,0-2-0.4c-1.2-0.8-1.6-2.4-0.8-3.7
							c0.8-1.3,2.5-1.6,3.8-0.8c0.6,0.4,1,1,1.2,1.7C-1201.1-490.8-1201.3-490-1201.7-489.4z"/>
					</g>
				</g>
				<g>
					<g>
						<path class="st2" d="M-1199.4-484.4c1.4,1,2.9,2,4.2,3.2l3.3-4.2c-1.4-1.2-2.9-2.2-4.4-3.3L-1199.4-484.4z"/>
						<path class="st3" d="M-1193.5-483.3c-0.9,1.2-2.5,1.3-3.7,0.5c-1.2-0.9-1.4-2.5-0.5-3.7c0.9-1.2,2.6-1.4,3.8-0.6
							C-1192.7-486.2-1192.6-484.4-1193.5-483.3z"/>
					</g>
				</g>
				<g>
					<g>
						<path class="st2" d="M-1191.5-478.1c0.7,0.6,1.4,1.1,2,1.7l1.9,1.8l3.6-4l-2-1.9c-0.7-0.6-1.4-1.2-2.1-1.8L-1191.5-478.1z"/>
						<path class="st3" d="M-1185.7-476.7c-1,1.1-2.7,1.2-3.7,0.2c-1.1-0.9-1.3-2.6-0.3-3.7s2.7-1.3,3.8-0.3
							S-1184.7-477.8-1185.7-476.7z"/>
					</g>
				</g>
				<g>
					<g>
						<path class="st2" d="M-1184-471.4c0.7,0.6,1.3,1.2,1.9,1.8l1.9,1.9l3.8-3.8l-1.9-1.9c-0.6-0.7-1.3-1.3-2-1.9L-1184-471.4z"/>
						<path class="st3" d="M-1178.3-469.6c-1.1,1-2.8,1-3.8,0c-1-1.1-1.1-2.7,0-3.8c1-1.1,2.8-1.1,3.8,0
							C-1177.3-472.3-1177.3-470.6-1178.3-469.6z"/>
					</g>
				</g>
				<g>
					<g>
						<polygon class="st2" points="-1176.9,-464.3 -1173.4,-460.3 -1169.4,-463.8 -1173,-467.9 						"/>
						<path class="st3" d="M-1171.4-462.1c-1.1,1-2.8,0.9-3.8-0.2c-1-1.1-0.9-2.8,0.2-3.8c1.1-1,2.8-0.9,3.8,0.2
							C-1170.2-464.8-1170.3-463.1-1171.4-462.1z"/>
					</g>
				</g>
				<g>
					<g>
						<polygon class="st2" points="-1170.3,-456.7 -1166.9,-452.6 -1162.7,-455.9 -1166.1,-460.1 						"/>
						<path class="st3" d="M-1164.8-454.2c-1.2,0.9-2.9,0.7-3.8-0.4c-0.9-1.1-0.7-2.8,0.4-3.8c1.1-0.9,2.8-0.8,3.8,0.4
							C-1163.5-456.8-1163.7-455.1-1164.8-454.2z"/>
					</g>
				</g>
				<g>
					<g>
						<polygon class="st2" points="-1164,-448.8 -1160.9,-444.5 -1156.5,-447.6 -1159.7,-452 						"/>
						<path class="st3" d="M-1158.7-446.1c-1.2,0.9-2.9,0.6-3.8-0.6c-0.9-1.2-0.6-2.9,0.6-3.8c1.2-0.9,2.9-0.6,3.8,0.6
							C-1157.2-448.6-1157.5-446.9-1158.7-446.1z"/>
					</g>
				</g>
				<g>
					<g>
						<polygon class="st2" points="-1158.1,-440.5 -1155.1,-436.2 -1150.6,-439.1 -1153.7,-443.6 						"/>
						<path class="st3" d="M-1152.9-437.6c-1.2,0.8-2.9,0.5-3.7-0.7c-0.8-1.2-0.5-2.9,0.7-3.7c1.2-0.8,2.9-0.5,3.7,0.7
							C-1151.3-440.1-1151.6-438.4-1152.9-437.6z"/>
					</g>
				</g>
				<g>
					<g>
						<path class="st2" d="M-1152.6-432.1c0.9,1.5,1.9,3,2.8,4.5l4.6-2.8c-0.9-1.6-1.9-3.1-2.8-4.6L-1152.6-432.1z"/>
						<path class="st3" d="M-1147.5-428.9c-1.3,0.8-2.9,0.3-3.7-0.9c-0.8-1.2-0.4-2.9,0.9-3.7c1.3-0.8,2.9-0.4,3.7,0.9
							C-1145.8-431.4-1146.2-429.7-1147.5-428.9z"/>
					</g>
				</g>
				<g>
					<g>
						<path class="st2" d="M-1147.4-423.4c0.9,1.5,1.8,3.1,2.6,4.6l4.7-2.6c-0.9-1.6-1.7-3.2-2.6-4.7L-1147.4-423.4z"/>
						<path class="st3" d="M-1142.4-420c-1.3,0.7-2.9,0.2-3.6-1.1c-0.7-1.3-0.3-2.9,1-3.6c1.3-0.7,3-0.3,3.7,1
							C-1140.6-422.4-1141.1-420.7-1142.4-420z"/>
					</g>
				</g>
				<g>
					<g>
						<path class="st2" d="M-1142.5-414.5c0.8,1.6,1.6,3.2,2.4,4.7l4.8-2.4c-0.8-1.6-1.6-3.2-2.5-4.8L-1142.5-414.5z"/>
						<path class="st3" d="M-1137.7-411c-1.3,0.7-2.9,0.1-3.6-1.2c-0.7-1.3-0.1-2.9,1.2-3.6c1.3-0.7,3-0.2,3.6,1.2
							C-1135.8-413.2-1136.4-411.6-1137.7-411z"/>
					</g>
				</g>
				<g>
					<g>
						<polygon class="st2" points="-1137.9,-405.4 -1135.7,-400.6 -1130.8,-402.9 -1133.1,-407.8 						"/>
						<path class="st3" d="M-1133.3-401.7c-1.4,0.6-3,0-3.6-1.3c-0.6-1.3,0-2.9,1.3-3.6c1.3-0.6,2.9-0.1,3.6,1.3
							C-1131.3-403.9-1131.9-402.4-1133.3-401.7z"/>
					</g>
				</g>
				<g>
					<g>
						<polygon class="st2" points="-1133.7,-396.2 -1131.6,-391.3 -1126.6,-393.4 -1128.8,-398.4 						"/>
						<path class="st3" d="M-1129.1-392.4c-1.4,0.6-3,0-3.5-1.4s0-2.9,1.4-3.5s2.9,0,3.5,1.4C-1127.1-394.5-1127.7-393-1129.1-392.4
							z"/>
					</g>
				</g>
				<g>
					<g>
						<path class="st2" d="M-1129.7-386.9c0.7,1.6,1.4,3.3,2,5l5-2c-0.6-1.7-1.3-3.4-2-5L-1129.7-386.9z"/>
						<path class="st3" d="M-1125.3-382.9c-1.4,0.5-2.9-0.1-3.5-1.5s0.1-2.9,1.5-3.5s2.9,0.1,3.5,1.5
							C-1123.2-385-1123.9-383.4-1125.3-382.9z"/>
					</g>
				</g>
				<g>
					<g>
						<path class="st2" d="M-1126-377.4c0.6,1.7,1.2,3.3,1.8,5l5-1.8c-0.6-1.7-1.2-3.4-1.9-5.1L-1126-377.4z"/>
						<path class="st3" d="M-1121.7-373.3c-1.4,0.5-2.9-0.2-3.4-1.6c-0.5-1.4,0.2-2.9,1.6-3.4c1.4-0.5,3,0.2,3.5,1.6
							C-1119.6-375.4-1120.3-373.8-1121.7-373.3z"/>
					</g>
				</g>
				<g>
					<g>
						<polygon class="st2" points="-1122.6,-367.9 -1120.9,-362.8 -1115.8,-364.5 -1117.5,-369.6 						"/>
						<path class="st3" d="M-1118.4-363.7c-1.4,0.5-2.9-0.3-3.4-1.7s0.3-2.9,1.7-3.4s2.9,0.3,3.4,1.7
							C-1116.2-365.6-1116.9-364.1-1118.4-363.7z"/>
					</g>
				</g>
				<g>
					<g>
						<path class="st2" d="M-1119.4-358.2c0.5,1.7,1.1,3.4,1.6,5.1l5.1-1.5c-0.5-1.7-1-3.5-1.6-5.2L-1119.4-358.2z"/>
						<path class="st3" d="M-1115.3-353.9c-1.4,0.4-2.9-0.4-3.3-1.8c-0.4-1.4,0.3-2.9,1.8-3.4c1.4-0.4,2.9,0.3,3.4,1.8
							C-1113.1-355.8-1113.9-354.3-1115.3-353.9z"/>
					</g>
				</g>
				<g>
					<g>
						<polygon class="st2" points="-1116.5,-348.5 -1115.1,-343.3 -1109.9,-344.7 -1111.3,-350 						"/>
						<path class="st3" d="M-1112.5-344.1c-1.4,0.4-2.9-0.5-3.3-1.9s0.4-2.9,1.9-3.3c1.5-0.4,2.9,0.4,3.3,1.9
							S-1111-344.4-1112.5-344.1z"/>
					</g>
				</g>
				<g>
					<g>
						<polygon class="st2" points="-1113.8,-338.7 -1112.5,-333.5 -1107.3,-334.8 -1108.6,-340 						"/>
						<path class="st3" d="M-1109.9-334.1c-1.4,0.4-2.9-0.5-3.3-2c-0.4-1.4,0.5-2.9,2-3.3c1.4-0.4,2.9,0.5,3.3,2
							C-1107.6-336-1108.5-334.5-1109.9-334.1z"/>
					</g>
				</g>
				<g>
					<g>
						<path class="st2" d="M-1111.4-328.8c0.4,1.7,0.8,3.5,1.2,5.2l5.3-1.1c-0.4-1.8-0.8-3.5-1.2-5.3L-1111.4-328.8z"/>
						<path class="st3" d="M-1107.6-324.2c-1.5,0.3-2.9-0.6-3.2-2c-0.3-1.4,0.6-2.9,2-3.2c1.4-0.3,2.9,0.6,3.2,2
							C-1105.2-325.9-1106.1-324.5-1107.6-324.2z"/>
					</g>
				</g>
				<g>
					<g>
						<path class="st4" d="M-1121.9-316.1c0.2-0.9,0.5-1.6,1.1-2.3c0.4-0.4,1-0.8,1.6-0.9l24.2-5.1c0.6-0.1,1.3,0,1.9,0.2
							c0.5,0.3,1,0.6,1.4,1.1c0.8,0.9,1.4,2.1,1.6,3.5l0,0l-2.7,0.5c-0.1-0.7-0.4-1.3-0.7-1.7c-0.3-0.4-0.6-0.7-0.8-0.8
							c-0.1,0-0.1,0-0.2,0l-24.2,4.9c0,0-0.1,0-0.1,0.1c-0.1,0.1-0.2,0.3-0.3,0.5c-0.2,0.5-0.3,1.3-0.1,2.1l-2.7,0.5
							C-1122.1-314.3-1122.1-315.2-1121.9-316.1z"/>
					</g>
				</g>
			</g>
		</g>
	</g>
	<g class="st0">
		<g class="st1">
			<g>
				<g>
					<g>
						<path class="st2" d="M32.9,38.2c1.2,1.3,2.4,2.7,3.7,4l3.9-3.7c-1.2-1.3-2.4-2.6-3.6-3.9L32.9,38.2z"/>
						<path class="st3" d="M38.5,40.3c-1.1,1-2.8,1-3.8-0.1s-0.9-2.8,0.2-3.8s2.8-0.9,3.8,0.2C39.6,37.6,39.5,39.3,38.5,40.3z"/>
					</g>
				</g>
				<g>
					<g>
						<polygon class="st2" points="41.5,47.4 45.3,51.3 49.1,47.5 45.4,43.7 						"/>
						<path class="st3" d="M47.2,49.4c-1,1-2.7,1-3.8,0s-1-2.8,0-3.8c1.1-1,2.8-1,3.8,0C48.3,46.6,48.3,48.3,47.2,49.4z"/>
					</g>
				</g>
				<g>
					<g>
						<path class="st2" d="M48.8,54.7c1.3,1.3,2.6,2.5,3.9,3.7l3.7-3.9c-1.3-1.2-2.6-2.4-3.8-3.7L48.8,54.7z"/>
						<path class="st3" d="M54.6,56.5c-1,1.1-2.7,1.1-3.8,0.1c-1.1-1-1.1-2.8-0.1-3.8c1-1.1,2.7-1.1,3.8-0.1
							C55.5,53.7,55.6,55.4,54.6,56.5z"/>
					</g>
				</g>
				<g>
					<g>
						<polygon class="st2" points="56.3,61.8 60.3,65.3 63.9,61.3 59.9,57.8 						"/>
						<path class="st3" d="M62.1,63.3c-1,1.1-2.7,1.2-3.8,0.2c-1.1-1-1.2-2.7-0.2-3.8s2.7-1.2,3.8-0.2C63,60.5,63.1,62.2,62.1,63.3z
							"/>
					</g>
				</g>
				<g>
					<g>
						<path class="st2" d="M64,68.5c1.4,1.2,2.7,2.3,4.1,3.5l3.4-4.2c-1.4-1.1-2.7-2.3-4.1-3.4L64,68.5z"/>
						<path class="st3" d="M69.9,69.9c-0.9,1.1-2.7,1.3-3.8,0.3c-1.1-1-1.3-2.7-0.3-3.8s2.7-1.3,3.8-0.3
							C70.6,67.1,70.8,68.8,69.9,69.9z"/>
					</g>
				</g>
				<g>
					<g>
						<path class="st2" d="M72,75.1c1.4,1.1,2.8,2.2,4.3,3.3l3.3-4.3c-1.4-1.1-2.8-2.1-4.2-3.2L72,75.1z"/>
						<path class="st3" d="M77.9,76.3c-0.9,1.2-2.6,1.4-3.8,0.5c-1.2-0.9-1.4-2.6-0.5-3.8s2.6-1.4,3.8-0.5
							C78.5,73.4,78.8,75.1,77.9,76.3z"/>
					</g>
				</g>
				<g>
					<g>
						<path class="st2" d="M80.2,81.3c1.5,1,2.9,2.1,4.4,3.2l3.1-4.4c-1.5-1-2.9-2-4.3-3.1L80.2,81.3z"/>
						<path class="st3" d="M86.1,82.3c-0.8,1.2-2.6,1.5-3.8,0.6c-1.2-0.9-1.5-2.6-0.6-3.8s2.5-1.5,3.7-0.6
							C86.6,79.4,86.9,81,86.1,82.3z"/>
					</g>
				</g>
				<g>
					<g>
						<polygon class="st2" points="88.6,87.2 93.1,90.2 96,85.7 91.6,82.8 						"/>
						<path class="st3" d="M94.6,87.9c-0.8,1.3-2.4,1.6-3.7,0.8c-1.3-0.8-1.6-2.5-0.8-3.7c0.8-1.2,2.5-1.6,3.7-0.8
							C95,85,95.4,86.7,94.6,87.9z"/>
					</g>
				</g>
				<g>
					<g>
						<path class="st2" d="M97.3,92.8c1.5,1,3.1,1.8,4.7,2.7l2.6-4.7c-1.5-0.9-3.1-1.7-4.6-2.7L97.3,92.8z"/>
						<path class="st3" d="M103.3,93.2c-0.7,1.3-2.4,1.7-3.7,1c-1.3-0.8-1.7-2.4-0.9-3.7c0.8-1.3,2.4-1.7,3.7-0.9
							C103.6,90.2,104,91.9,103.3,93.2z"/>
					</g>
				</g>
				<g>
					<g>
						<path class="st2" d="M106.3,97.9c1.6,0.8,3.2,1.7,4.8,2.5l2.4-4.8c-1.6-0.7-3.1-1.6-4.7-2.4L106.3,97.9z"/>
						<path class="st3" d="M112.3,97.9c-0.6,1.3-2.3,1.9-3.6,1.2c-1.3-0.7-1.8-2.3-1.1-3.6s2.3-1.8,3.6-1.1
							C112.4,95,113,96.6,112.3,97.9z"/>
					</g>
				</g>
				<g>
					<g>
						<path class="st2" d="M115.6,102.5c1.7,0.7,3.3,1.5,5,2.2l2.1-5c-1.6-0.7-3.2-1.4-4.8-2.1L115.6,102.5z"/>
						<path class="st3" d="M121.6,102.1c-0.6,1.4-2.2,2-3.5,1.4c-1.4-0.6-2-2.2-1.4-3.5s2.2-2,3.5-1.4S122.2,100.8,121.6,102.1z"/>
					</g>
				</g>
				<g>
					<g>
						<path class="st2" d="M125.2,106.4c1.7,0.6,3.4,1.2,5.2,1.8l1.7-5.1c-1.7-0.5-3.3-1.2-4.9-1.7L125.2,106.4z"/>
						<path class="st3" d="M131.2,105.7c-0.5,1.4-2,2.2-3.4,1.7s-2.2-2-1.6-3.4c0.5-1.4,2.1-2.1,3.4-1.6
							C130.9,102.8,131.6,104.3,131.2,105.7z"/>
					</g>
				</g>
				<g>
					<g>
						<path class="st2" d="M135.1,109.7c1.8,0.4,3.5,1,5.3,1.3l1.2-5.2c-1.7-0.3-3.4-0.8-5.1-1.3L135.1,109.7z"/>
						<path class="st3" d="M141,108.4c-0.3,1.5-1.8,2.4-3.3,2s-2.3-1.8-1.9-3.3c0.4-1.4,1.9-2.3,3.2-1.9
							C140.4,105.5,141.3,106.9,141,108.4z"/>
					</g>
				</g>
				<g>
					<g>
						<path class="st2" d="M145.3,112c1.8,0.3,3.6,0.6,5.5,0.8l0.6-5.3c-1.7-0.1-3.4-0.4-5.1-0.7L145.3,112z"/>
						<path class="st3" d="M151,110c-0.1,1.5-1.5,2.6-3,2.3c-1.5-0.2-2.5-1.6-2.3-3.1s1.6-2.5,3-2.2
							C150.2,107.3,151.2,108.6,151,110z"/>
					</g>
				</g>
				<g>
					<g>
						<path class="st2" d="M155.8,113.1c1.8,0.1,3.7,0,5.6,0l-0.2-5.4c-1.7,0-3.4,0.1-5.1,0L155.8,113.1z"/>
						<path class="st3" d="M161.2,110.4c0.1,1.5-1.1,2.7-2.7,2.7c-0.8,0-1.5-0.3-1.9-0.8c-0.5-0.5-0.8-1.2-0.7-1.9s0.3-1.4,0.8-1.9
							s1.1-0.7,1.8-0.8C159.9,107.7,161.1,108.9,161.2,110.4z"/>
					</g>
				</g>
				<g>
					<g>
						<path class="st2" d="M166.4,112.7c1.8-0.3,3.7-0.5,5.5-1l-1.2-5.2c-1.6,0.4-3.3,0.6-5,0.9L166.4,112.7z"/>
						<path class="st3" d="M171.3,109.1c0.2,0.7,0,1.4-0.4,2s-1,1.1-1.8,1.2c-1.6,0.2-2.9-0.8-3.1-2.2s0.8-2.8,2.2-3
							c0.7-0.1,1.4,0,1.9,0.4C170.7,107.7,171.1,108.3,171.3,109.1z"/>
					</g>
				</g>
				<g>
					<g>
						<path class="st2" d="M176.8,110.3c0.9-0.3,1.8-0.7,2.7-1c0.9-0.4,1.8-0.7,2.6-1.1l-2.3-4.8c-0.7,0.4-1.5,0.7-2.3,1
							s-1.5,0.7-2.3,0.9L176.8,110.3z"/>
						<path class="st3" d="M180.9,105.7c0.3,0.7,0.3,1.4,0.1,2.1c-0.3,0.6-0.8,1.2-1.5,1.5s-1.5,0.3-2.1,0c-0.7-0.3-1.2-0.8-1.4-1.5
							s-0.2-1.4,0.1-2c0.3-0.6,0.7-1.2,1.4-1.4c0.6-0.3,1.3-0.2,2,0C180,104.6,180.6,105.1,180.9,105.7z"/>
					</g>
				</g>
				<g>
					<g>
						<path class="st2" d="M186.6,105.7c1.6-1,3.1-2.1,4.6-3.3l-3.3-4.2c-1.3,1.1-2.7,2-4.1,2.9L186.6,105.7z"/>
						<path class="st3" d="M189.5,100.3c0.9,1.2,0.7,2.9-0.6,3.8c-1.3,0.9-3,0.6-3.8-0.7s-0.5-2.9,0.7-3.7
							C186.9,98.9,188.6,99.1,189.5,100.3z"/>
					</g>
				</g>
				<g>
					<g>
						<path class="st2" d="M195,99.1c1.4-1.3,2.7-2.6,3.9-4l-4-3.6c-1.2,1.3-2.4,2.5-3.6,3.6L195,99.1z"/>
						<path class="st3" d="M196.9,93.4c1.1,1,1.1,2.7,0.1,3.8c-1.1,1.1-2.8,1.1-3.8,0s-1-2.8,0-3.7
							C194.2,92.4,195.9,92.4,196.9,93.4z"/>
					</g>
				</g>
				<g>
					<g>
						<path class="st2" d="M202.2,91.3c1.1-1.5,2.3-2.9,3.3-4.5l-4.4-3c-1,1.4-2,2.8-3.1,4.2L202.2,91.3z"/>
						<path class="st3" d="M203.3,85.4c1.2,0.8,1.5,2.5,0.6,3.8s-2.6,1.5-3.8,0.5c-1.2-0.9-1.4-2.6-0.5-3.7
							C200.4,84.8,202,84.5,203.3,85.4z"/>
					</g>
				</g>
				<g>
					<g>
						<path class="st2" d="M208.2,82.6c0.5-0.8,0.9-1.6,1.3-2.4c0.4-0.8,0.9-1.6,1.3-2.5l-4.8-2.3c-0.4,0.8-0.8,1.5-1.2,2.3
							c-0.4,0.8-0.8,1.5-1.3,2.2L208.2,82.6z"/>
						<path class="st3" d="M208.4,76.5c1.3,0.6,1.9,2.3,1.2,3.7c-0.7,1.4-2.4,1.8-3.7,1.1c-1.3-0.8-1.7-2.3-1.1-3.6
							C205.5,76.4,207,75.9,208.4,76.5z"/>
					</g>
				</g>
				<g>
					<g>
						<path class="st2" d="M212.8,73.1c0.7-1.7,1.3-3.5,1.8-5.3l-5.2-1.5c-0.5,1.6-1,3.2-1.7,4.8L212.8,73.1z"/>
						<path class="st3" d="M212,67.1c1.4,0.4,2.2,2,1.7,3.4c-0.5,1.5-2.1,2.2-3.5,1.6c-1.4-0.5-2.1-2-1.6-3.4
							C209.1,67.4,210.6,66.6,212,67.1z"/>
					</g>
				</g>
				<g>
					<g>
						<path class="st2" d="M215.8,62.9c0.2-0.9,0.3-1.8,0.5-2.8c0.1-0.9,0.2-1.9,0.3-2.8l-5.3-0.4c-0.1,0.8-0.2,1.7-0.3,2.5
							c-0.1,0.8-0.3,1.7-0.4,2.5L215.8,62.9z"/>
						<path class="st3" d="M213.9,57c1.5,0.1,2.6,1.5,2.4,3c-0.3,1.5-1.6,2.6-3.1,2.3c-1.4-0.3-2.4-1.6-2.2-3
							C211.1,58,212.4,56.9,213.9,57z"/>
					</g>
				</g>
				<g>
					<g>
						<path class="st2" d="M216.7,52.1c-0.1-1-0.1-1.9-0.2-2.8l-0.2-1.4l-0.2-1.4l-5.3,0.9l0.2,1.2l0.1,1.2c0.1,0.8,0.1,1.7,0.2,2.5
							L216.7,52.1z"/>
						<path class="st3" d="M213.5,46.9c1.4-0.3,2.9,0.8,3,2.4c0.2,1.6-1,2.9-2.5,2.9s-2.7-1-2.8-2.4C211.1,48.5,212,47.2,213.5,46.9
							z"/>
					</g>
				</g>
				<g>
					<g>
						<path class="st2" d="M214.9,41.4c-0.6-1.8-1.3-3.6-2.1-5.3l-4.8,2.3c0.7,1.5,1.3,3,1.8,4.6L214.9,41.4z"/>
						<path class="st3" d="M210.4,37.2c0.7-0.3,1.4-0.3,2.1-0.1c0.6,0.3,1.2,0.8,1.5,1.5c0.3,0.8,0.2,1.5-0.1,2.2
							c-0.3,0.6-0.9,1.1-1.6,1.3s-1.4,0.1-2-0.2s-1.1-0.8-1.3-1.4c-0.3-0.6-0.2-1.3,0-2C209.3,38.1,209.8,37.5,210.4,37.2z"/>
					</g>
				</g>
				<g>
					<g>
						<path class="st2" d="M210.4,31.5c-1-1.6-2.1-3.2-3.2-4.6l-4.2,3.3c1.1,1.3,2,2.7,2.9,4.1L210.4,31.5z"/>
						<path class="st3" d="M205,28.6c1.2-0.9,2.9-0.7,3.8,0.6s0.5,3-0.7,3.8c-1.3,0.8-2.9,0.4-3.7-0.7
							C203.7,31.1,203.9,29.5,205,28.6z"/>
					</g>
				</g>
				<g>
					<g>
						<path class="st2" d="M203.9,23.1c-1.3-1.4-2.6-2.7-4.1-3.9l-3.5,4c1.3,1.1,2.5,2.3,3.7,3.5L203.9,23.1z"/>
						<path class="st3" d="M198,21.2c1-1.1,2.7-1.2,3.8-0.1s1.1,2.8,0,3.8s-2.7,1-3.7,0C197.2,24,197.1,22.3,198,21.2z"/>
					</g>
				</g>
				<g>
					<g>
						<path class="st2" d="M195.8,16c-1.5-1.1-3.1-2.1-4.8-3l-2.6,4.7c1.5,0.8,2.9,1.7,4.3,2.7L195.8,16z"/>
						<path class="st3" d="M189.7,15.3c0.7-1.3,2.4-1.8,3.7-0.9c1.3,0.8,1.7,2.6,0.8,3.8c-0.9,1.2-2.5,1.5-3.7,0.8
							C189.4,18.2,189,16.7,189.7,15.3z"/>
					</g>
				</g>
				<g>
					<g>
						<path class="st2" d="M186.3,10.8c-1.8-0.7-3.7-1.2-5.7-1.5l-0.8,5.3c1.5,0.2,3.1,0.7,4.6,1.3L186.3,10.8z"/>
						<path class="st3" d="M180.2,11.9c0.2-1.5,1.7-2.5,3.3-2c0.8,0.2,1.4,0.7,1.7,1.4c0.3,0.6,0.4,1.4,0.1,2s-0.8,1.2-1.4,1.5
							s-1.3,0.4-1.9,0.2C180.8,14.7,180,13.4,180.2,11.9z"/>
					</g>
				</g>
				<g>
					<g>
						<path class="st2" d="M175,9.1c-2.1,0.3-4.3,1.1-6.1,2.3l3,4.4c1.1-0.8,2.4-1.2,3.8-1.4L175,9.1z"/>
						<path class="st3" d="M170.4,13.6c-0.4-0.6-0.5-1.3-0.3-2.1c0.3-0.7,0.9-1.4,1.7-1.7c0.4-0.2,0.9-0.2,1.3-0.2s0.8,0.1,1.1,0.3
							c0.6,0.4,1,1,1.1,1.7s-0.1,1.5-0.4,2c-0.2,0.3-0.3,0.5-0.5,0.7s-0.4,0.3-0.7,0.4c-0.5,0.2-1.1,0.2-1.7-0.1
							C171.4,14.7,170.8,14.3,170.4,13.6z"/>
					</g>
				</g>
				<g>
					<g>
						<path class="st2" d="M164.8,15.4c-1.2,1.6-2.2,3.3-3.1,5l4.8,2.3c0.7-1.5,1.5-2.9,2.5-4.1L164.8,15.4z"/>
						<path class="st3" d="M164.2,21.6c-1.3-0.6-1.9-2.3-1-3.7c0.4-0.7,1.1-1.2,1.8-1.3c0.7-0.2,1.4,0,2,0.5s0.9,1.1,1.1,1.7
							c0.1,0.6,0.1,1.3-0.3,1.9C167,21.7,165.5,22.2,164.2,21.6z"/>
					</g>
				</g>
				<g>
					<g>
						<path class="st2" d="M159.8,25.2c-0.6,1.8-1.1,3.6-1.6,5.4l5.2,1.3c0.4-1.7,0.9-3.3,1.4-4.9L159.8,25.2z"/>
						<path class="st3" d="M160.8,31.2c-1.4-0.3-2.3-1.8-1.9-3.3s2-2.3,3.4-1.8s2.2,2,1.8,3.3C163.7,30.7,162.3,31.5,160.8,31.2z"/>
					</g>
				</g>
				<g>
					<g>
						<path class="st2" d="M157.2,35.4c-0.3,1.8-0.6,3.6-0.8,5.4l5.3,0.6c0.2-1.7,0.4-3.4,0.8-5.1L157.2,35.4z"/>
						<path class="st3" d="M159,41.2c-1.5-0.2-2.5-1.5-2.3-3s1.6-2.5,3.1-2.3c1.5,0.3,2.4,1.6,2.2,3C161.8,40.4,160.5,41.4,159,41.2
							z"/>
					</g>
				</g>
				<g>
					<g>
						<path class="st2" d="M155.9,45.8c-0.1,1.8-0.2,3.6-0.3,5.5l5.4,0.2c0.1-1.8,0.2-3.5,0.3-5.2L155.9,45.8z"/>
						<path class="st3" d="M158.3,51.4c-1.5,0-2.7-1.3-2.6-2.8s1.4-2.6,2.8-2.5c1.5,0.1,2.6,1.4,2.5,2.8
							C161,50.3,159.8,51.4,158.3,51.4z"/>
					</g>
				</g>
				<g>
					<g>
						<path class="st2" d="M155.5,56.2c0,1.8,0.1,3.6,0.1,5.5l5.4-0.2c-0.1-1.8-0.1-3.5-0.1-5.3H155.5z"/>
						<path class="st3" d="M158.3,61.6c-1.5,0.1-2.7-1.1-2.8-2.6s1.2-2.7,2.7-2.7s2.7,1.2,2.7,2.6C160.9,60.3,159.8,61.5,158.3,61.6
							z"/>
					</g>
				</g>
				<g>
					<g>
						<path class="st2" d="M155.9,66.6c0.1,1.8,0.3,3.6,0.5,5.4l5.3-0.6c-0.2-1.7-0.3-3.5-0.5-5.2L155.9,66.6z"/>
						<path class="st3" d="M159,71.7c-1.5,0.2-2.8-0.9-2.9-2.4s1-2.8,2.5-2.9c1.5-0.1,2.8,1,2.9,2.4C161.6,70.3,160.5,71.6,159,71.7
							z"/>
					</g>
				</g>
				<g>
					<g>
						<path class="st2" d="M157,76.9c0.2,1.8,0.5,3.6,0.8,5.4l5.3-0.9c-0.3-1.7-0.6-3.5-0.8-5.2L157,76.9z"/>
						<path class="st3" d="M160.4,81.8c-1.5,0.3-2.8-0.8-3.1-2.2c-0.2-1.5,0.8-2.8,2.3-3s2.8,0.8,3,2.3
							C162.9,80.2,161.9,81.6,160.4,81.8z"/>
					</g>
				</g>
				<g>
					<g>
						<path class="st2" d="M158.7,87.1c0.3,1.8,0.7,3.5,1.1,5.3l5.2-1.2c-0.4-1.7-0.8-3.4-1.1-5.1L158.7,87.1z"/>
						<path class="st3" d="M162.4,91.8c-1.4,0.3-2.9-0.6-3.2-2c-0.3-1.5,0.6-2.9,2.1-3.2c1.4-0.3,2.9,0.6,3.2,2
							C164.8,90.1,163.9,91.5,162.4,91.8z"/>
					</g>
				</g>
				<g>
					<g>
						<path class="st2" d="M161,97.2c0.5,1.8,1,3.5,1.5,5.2l5.1-1.6c-0.5-1.7-1-3.4-1.4-5L161,97.2z"/>
						<path class="st3" d="M165,101.7c-1.4,0.4-2.9-0.4-3.3-1.8c-0.4-1.5,0.4-2.9,1.9-3.3c1.4-0.4,2.9,0.5,3.3,1.8
							C167.3,99.8,166.5,101.2,165,101.7z"/>
					</g>
				</g>
				<g>
					<g>
						<path class="st2" d="M164,107.1c0.6,1.7,1.2,3.4,1.9,5.1l5-1.9c-0.6-1.6-1.2-3.3-1.8-4.9L164,107.1z"/>
						<path class="st3" d="M168.4,111.3c-1.4,0.5-2.9-0.2-3.5-1.6c-0.5-1.4,0.2-3,1.6-3.4c1.4-0.5,2.9,0.3,3.4,1.6
							S169.8,110.8,168.4,111.3z"/>
					</g>
				</g>
				<g>
					<g>
						<path class="st2" d="M167.8,116.8c0.7,1.7,1.5,3.3,2.3,5l4.8-2.3c-0.8-1.6-1.5-3.2-2.2-4.8L167.8,116.8z"/>
						<path class="st3" d="M172.4,120.6c-1.3,0.7-3,0.1-3.6-1.3c-0.6-1.4,0-3,1.3-3.6s2.9,0,3.5,1.3
							C174.3,118.4,173.8,120,172.4,120.6z"/>
					</g>
				</g>
				<g>
					<g>
						<path class="st2" d="M172.3,126.2c0.9,1.6,1.8,3.2,2.8,4.8l4.6-2.8c-0.9-1.5-1.8-3-2.6-4.5L172.3,126.2z"/>
						<path class="st3" d="M177.4,129.6c-1.3,0.8-2.9,0.4-3.7-1c-0.8-1.3-0.3-3,1-3.7s2.9-0.3,3.6,1S178.6,128.8,177.4,129.6z"/>
					</g>
				</g>
				<g>
					<g>
						<path class="st2" d="M177.8,135.2c1,1.5,2.2,3,3.3,4.4l4.2-3.3c-1.1-1.4-2.1-2.7-3.1-4.2L177.8,135.2z"/>
						<path class="st3" d="M183.2,137.9c-1.2,0.9-2.9,0.7-3.8-0.5s-0.6-2.9,0.6-3.8c1.2-0.8,2.9-0.6,3.7,0.6
							C184.6,135.3,184.3,137,183.2,137.9z"/>
					</g>
				</g>
				<g>
					<g>
						<polygon class="st2" points="184.3,143.4 188.2,147.4 191.9,143.5 188.3,139.8 						"/>
						<path class="st3" d="M190.1,145.4c-1,1.1-2.7,1.1-3.8,0c-1.1-1.1-1.1-2.8,0.1-3.8c1.1-1,2.8-1,3.8,0
							C191.1,142.7,191.1,144.4,190.1,145.4z"/>
					</g>
				</g>
				<g>
					<g>
						<path class="st2" d="M192,150.7c0.7,0.6,1.4,1.2,2.1,1.8l2.2,1.6l3.2-4.3l-2.1-1.5c-0.7-0.5-1.3-1.1-2-1.7L192,150.7z"/>
						<path class="st3" d="M197.9,151.9c-0.9,1.2-2.6,1.5-3.8,0.5c-1.2-0.9-1.3-2.7-0.4-3.8c1-1.1,2.6-1.3,3.7-0.4
							C198.5,149.1,198.8,150.7,197.9,151.9z"/>
					</g>
				</g>
				<g>
					<g>
						<path class="st2" d="M200.4,156.9l2.3,1.5c0.8,0.5,1.6,1,2.4,1.4l2.6-4.7c-0.8-0.4-1.5-0.9-2.2-1.3l-2.2-1.4L200.4,156.9z"/>
						<path class="st3" d="M206.5,157.4c-0.4,0.7-0.9,1.1-1.6,1.3s-1.4,0.1-2.1-0.3c-1.3-0.8-1.7-2.5-0.9-3.7
							c0.8-1.2,2.4-1.6,3.7-0.9c0.6,0.4,1,1,1.2,1.6C206.9,156.1,206.8,156.8,206.5,157.4z"/>
					</g>
				</g>
				<g>
					<g>
						<path class="st2" d="M209.6,162.1c1.6,0.8,3.3,1.5,5,2.3l2.1-4.9c-1.6-0.7-3.2-1.3-4.8-2.1L209.6,162.1z"/>
						<path class="st3" d="M215.7,161.9c-0.6,1.4-2.2,2-3.6,1.4c-0.7-0.3-1.2-0.8-1.4-1.5c-0.2-0.7-0.2-1.4,0.1-2.1
							c0.3-0.7,0.9-1.1,1.5-1.3c0.6-0.3,1.4-0.3,2,0C215.6,158.9,216.2,160.5,215.7,161.9z"/>
					</g>
				</g>
				<g>
					<g>
						<path class="st2" d="M219.2,166.2c1.7,0.6,3.4,1.3,5.2,1.8l1.6-5.1c-1.7-0.5-3.3-1.1-4.9-1.7L219.2,166.2z"/>
						<path class="st3" d="M225.2,165.4c-0.4,1.4-2,2.3-3.4,1.7c-1.4-0.5-2.2-2.1-1.7-3.5s2-2.1,3.4-1.6
							C224.9,162.5,225.7,164,225.2,165.4z"/>
					</g>
				</g>
				<g>
					<g>
						<path class="st2" d="M229.2,169.4c1.8,0.5,3.5,0.9,5.3,1.3l1.2-5.2c-1.7-0.4-3.4-0.8-5.1-1.2L229.2,169.4z"/>
						<path class="st3" d="M235,168c-0.3,1.5-1.8,2.3-3.3,2c-0.7-0.2-1.3-0.6-1.7-1.2c-0.3-0.6-0.5-1.3-0.3-2s0.7-1.3,1.2-1.6
							c0.6-0.4,1.3-0.5,2-0.3C234.5,165.1,235.4,166.6,235,168z"/>
					</g>
				</g>
				<g>
					<g>
						<path class="st2" d="M239.3,171.6c1.8,0.3,3.6,0.7,5.4,1l0.8-5.3c-1.7-0.3-3.4-0.6-5.2-0.9L239.3,171.6z"/>
						<path class="st3" d="M245.1,169.9c-0.2,1.5-1.6,2.5-3.1,2.2s-2.5-1.7-2.2-3.1c0.3-1.5,1.7-2.4,3.1-2.2
							C244.3,167.1,245.3,168.5,245.1,169.9z"/>
					</g>
				</g>
				<g>
					<g>
						<polygon class="st2" points="249.5,173.2 252.3,173.6 254.9,173.8 255.4,168.4 252.8,168.2 250.2,167.9 						"/>
						<path class="st3" d="M255.2,171.1c-0.1,1.5-1.4,2.6-2.9,2.5c-1.5-0.2-2.6-1.5-2.4-3s1.5-2.5,2.9-2.3
							C254.2,168.3,255.3,169.6,255.2,171.1z"/>
					</g>
				</g>
				<g>
					<g>
						<polygon class="st2" points="259.9,174.2 265.3,174.4 265.4,169 260.2,168.8 						"/>
						<path class="st3" d="M265.4,171.7c0,1.5-1.3,2.6-2.8,2.6s-2.6-1.3-2.6-2.8c0.1-1.5,1.3-2.6,2.8-2.6
							C264.3,169,265.4,170.2,265.4,171.7z"/>
					</g>
				</g>
				<g>
					<g>
						<polygon class="st2" points="270.2,174.5 275.6,174.4 275.5,169.1 270.2,169.1 						"/>
						<path class="st3" d="M275.5,171.8c0,1.5-1.2,2.7-2.7,2.7s-2.7-1.2-2.7-2.7s1.2-2.7,2.7-2.7
							C274.3,169.1,275.5,170.3,275.5,171.8z"/>
					</g>
				</g>
				<g>
					<g>
						<path class="st2" d="M280.5,174.3c1.8-0.1,3.6-0.1,5.4-0.3l-0.3-5.4c-1.8,0.1-3.5,0.2-5.3,0.3L280.5,174.3z"/>
						<path class="st3" d="M285.7,171.3c0.1,1.5-1,2.8-2.5,2.8c-1.5,0.1-2.8-1.1-2.8-2.6c-0.1-1.5,1.1-2.7,2.5-2.8
							C284.4,168.7,285.6,169.9,285.7,171.3z"/>
					</g>
				</g>
				<g>
					<g>
						<path class="st2" d="M290.8,173.6c1.8-0.2,3.6-0.3,5.4-0.5l-0.6-5.3c-1.8,0.2-3.5,0.4-5.3,0.5L290.8,173.6z"/>
						<path class="st3" d="M295.9,170.4c0.2,1.5-0.9,2.8-2.4,3c-1.5,0.1-2.8-1-2.9-2.5s0.9-2.8,2.4-2.9
							C294.4,167.9,295.7,168.9,295.9,170.4z"/>
					</g>
				</g>
				<g>
					<g>
						<path class="st2" d="M301,172.5c1.8-0.2,3.6-0.5,5.3-0.7l-0.8-5.3c-1.8,0.3-3.5,0.5-5.3,0.7L301,172.5z"/>
						<path class="st3" d="M306,169.1c0.2,1.5-0.8,2.8-2.3,3.1c-1.5,0.2-2.8-0.9-3-2.3c-0.2-1.5,0.8-2.8,2.3-3
							C304.4,166.7,305.8,167.7,306,169.1z"/>
					</g>
				</g>
				<g>
					<g>
						<path class="st2" d="M311.2,171c1.8-0.2,3.5-0.6,5.3-0.9l-1-5.3c-1.7,0.3-3.5,0.7-5.2,0.9L311.2,171z"/>
						<path class="st3" d="M316.1,167.5c0.3,1.5-0.7,2.9-2.2,3.1c-1.5,0.3-2.9-0.8-3.1-2.2c-0.2-1.5,0.7-2.8,2.2-3.1
							C314.4,165,315.8,166,316.1,167.5z"/>
					</g>
				</g>
				<g>
					<g>
						<path class="st2" d="M321.3,169.2c1.8-0.3,3.5-0.8,5.3-1.1l-1.1-5.3c-1.7,0.4-3.4,0.8-5.2,1.1L321.3,169.2z"/>
						<path class="st3" d="M326,165.5c0.3,1.5-0.6,2.9-2.1,3.2s-2.9-0.6-3.2-2.1c-0.3-1.4,0.7-2.8,2.1-3.2
							C324.3,163.1,325.7,164,326,165.5z"/>
					</g>
				</g>
				<g>
					<g>
						<polygon class="st2" points="331.4,167.1 336.6,165.8 335.3,160.6 330.2,161.8 						"/>
						<path class="st3" d="M336,163.2c0.4,1.4-0.5,2.9-2,3.3c-1.4,0.4-2.9-0.5-3.2-2c-0.3-1.4,0.6-2.9,2-3.2
							C334.2,160.9,335.6,161.7,336,163.2z"/>
					</g>
				</g>
				<g>
					<g>
						<polygon class="st2" points="341.4,164.6 346.6,163.2 345.1,158 340,159.4 						"/>
						<path class="st3" d="M345.8,160.6c0.4,1.4-0.4,2.9-1.9,3.3c-1.4,0.4-2.9-0.4-3.3-1.9c-0.4-1.4,0.5-2.9,1.9-3.3
							C344,158.3,345.4,159.1,345.8,160.6z"/>
					</g>
				</g>
				<g>
					<g>
						<polygon class="st2" points="351.3,161.8 356.4,160.3 354.8,155.1 349.8,156.7 						"/>
						<path class="st3" d="M355.6,157.7c0.4,1.4-0.4,2.9-1.8,3.4s-2.9-0.4-3.3-1.8c-0.4-1.4,0.4-2.9,1.8-3.3
							C353.7,155.5,355.2,156.3,355.6,157.7z"/>
					</g>
				</g>
				<g>
					<g>
						<polygon class="st2" points="361.1,158.8 366.2,157.1 364.5,152 359.4,153.7 						"/>
						<path class="st3" d="M365.3,154.6c0.5,1.4-0.3,2.9-1.7,3.4c-1.4,0.5-2.9-0.3-3.4-1.7c-0.4-1.4,0.3-2.9,1.7-3.4
							C363.3,152.4,364.9,153.2,365.3,154.6z"/>
					</g>
				</g>
				<g>
					<g>
						<path class="st2" d="M370.8,155.6c1.7-0.6,3.4-1.2,5.1-1.8l-1.8-5c-1.7,0.6-3.3,1.2-5,1.8L370.8,155.6z"/>
						<path class="st3" d="M374.9,151.2c0.5,1.4-0.2,2.9-1.6,3.5c-1.4,0.5-2.9-0.2-3.4-1.6s0.3-2.9,1.6-3.4
							C372.9,149.1,374.4,149.8,374.9,151.2z"/>
					</g>
				</g>
				<g>
					<g>
						<path class="st2" d="M380.4,152.1c1.7-0.6,3.3-1.3,5-1.9l-1.9-5c-1.7,0.7-3.3,1.3-5,1.9L380.4,152.1z"/>
						<path class="st3" d="M384.5,147.6c0.5,1.4-0.1,2.9-1.5,3.5c-1.4,0.5-2.9-0.2-3.5-1.6c-0.5-1.4,0.2-2.9,1.5-3.5
							C382.4,145.6,383.9,146.2,384.5,147.6z"/>
					</g>
				</g>
				<g>
					<g>
						<path class="st2" d="M390,148.3c1.7-0.7,3.3-1.3,5-2l-2.1-5c-1.6,0.7-3.3,1.4-4.9,2L390,148.3z"/>
						<path class="st3" d="M393.9,143.8c0.6,1.4-0.1,3-1.4,3.5c-1.4,0.5-2.9-0.1-3.5-1.5s0.1-2.9,1.5-3.5
							C391.8,141.8,393.4,142.4,393.9,143.8z"/>
					</g>
				</g>
				<g>
					<g>
						<path class="st2" d="M399.5,144.4c1.7-0.7,3.3-1.4,4.9-2.1l-2.2-4.9c-1.6,0.8-3.3,1.4-4.9,2.1L399.5,144.4z"/>
						<path class="st3" d="M403.3,139.8c0.6,1.3,0,3-1.4,3.5c-1.4,0.6-2.9-0.1-3.5-1.4c-0.6-1.4,0-2.9,1.4-3.5
							C401.2,137.9,402.7,138.4,403.3,139.8z"/>
					</g>
				</g>
				<g>
					<g>
						<polygon class="st2" points="408.8,140.2 413.7,138 411.5,133.2 406.6,135.4 						"/>
						<path class="st3" d="M412.6,135.6c0.6,1.3,0,2.9-1.3,3.5s-2.9,0-3.6-1.3c-0.6-1.3,0-2.9,1.3-3.5
							C410.4,133.7,412,134.3,412.6,135.6z"/>
					</g>
				</g>
				<g>
					<g>
						<polygon class="st2" points="418.1,135.9 423,133.6 420.6,128.8 415.8,131.1 						"/>
						<path class="st3" d="M421.8,131.2c0.7,1.3,0.1,2.9-1.2,3.6c-1.3,0.6-2.9,0.1-3.6-1.3s-0.1-2.9,1.2-3.6
							C419.5,129.3,421.1,129.9,421.8,131.2z"/>
					</g>
				</g>
				<g>
					<g>
						<polygon class="st2" points="427.3,131.4 432.1,129 429.7,124.2 424.9,126.6 						"/>
						<path class="st3" d="M430.9,126.6c0.7,1.3,0.2,2.9-1.2,3.6c-1.3,0.7-2.9,0.2-3.6-1.2c-0.7-1.3-0.1-2.9,1.2-3.6
							C428.6,124.7,430.2,125.3,430.9,126.6z"/>
					</g>
				</g>
				<g>
					<g>
						<polygon class="st2" points="436.4,126.7 441.2,124.2 438.6,119.5 433.9,122 						"/>
						<path class="st3" d="M439.9,121.8c0.7,1.3,0.2,2.9-1.1,3.6c-1.3,0.7-2.9,0.2-3.6-1.1s-0.2-2.9,1.1-3.6
							C437.6,120,439.2,120.5,439.9,121.8z"/>
					</g>
				</g>
				<g>
					<g>
						<path class="st2" d="M445.5,121.9c1.6-0.8,3.1-1.8,4.7-2.6l-2.6-4.7c-1.6,0.9-3.1,1.8-4.6,2.6L445.5,121.9z"/>
						<path class="st3" d="M448.8,116.9c0.7,1.3,0.3,2.9-1,3.7s-2.9,0.3-3.6-1s-0.3-2.9,1-3.7C446.5,115.2,448.1,115.6,448.8,116.9z
							"/>
					</g>
				</g>
				<g>
					<g>
						<path class="st4" d="M461.1,128c-0.9,0.1-1.8,0.1-2.7-0.3c-0.6-0.3-1.1-0.7-1.4-1.3l-12.2-21.5c-0.3-0.6-0.4-1.2-0.4-1.8
							c0.1-0.6,0.2-1.1,0.5-1.6c0.6-1,1.4-1.9,2.6-2.5l0,0l1.4,2.4c-0.6,0.3-1,0.7-1.3,1.1c-0.3,0.4-0.4,0.8-0.4,0.9
							c0,0.1,0,0.2,0,0.2l12.3,21.4c0,0,0,0.1,0.2,0.1c0.1,0,0.3,0.1,0.6,0.1c0.6,0,1.4-0.2,2.2-0.7l1.4,2.4
							C462.9,127.5,462,127.8,461.1,128z"/>
					</g>
				</g>
			</g>
		</g>
	</g>
	<circle class="st5" cx="-1108.5" cy="-314" r="27"/>
	<circle class="st4" cx="28.5" cy="29.2" r="27.1"/>
	<g>
		<g>
			<g>
				<path class="st6" d="M48,28.8c0-1-0.8-1.9-2.3-2.6c-1-0.5-2.3-0.8-3.1-0.8h-6.2l-8.5-11.7h-5.2l5.1,11.7h-5.4l-4.1-3.6h-3.7
					l2.2,6.2h-2.3v1.7h2.3l-2.2,6.2h3.7l4.1-3.6h5.5L22.8,44H28l8.5-11.7h6.1c0.8,0,2-0.3,3.1-0.8C47.2,30.7,48,29.8,48,28.8z
					 M25.4,15.4h1.7l7.3,10h-4.6L25.4,15.4z M27.1,42.3h-1.7l4.4-10h4.6L27.1,42.3z M45,29.9c-0.9,0.4-1.9,0.7-2.3,0.7H21.9
					l-4.1,3.6h-0.6l1.6-4.5h2.1V28h-2.1l-1.6-4.5h0.6l4.1,3.6h20.8c0.4,0,1.5,0.3,2.3,0.7c1,0.5,1.3,0.9,1.3,1
					C46.3,28.9,45.9,29.4,45,29.9z"/>
			</g>
		</g>
	</g>
	<g class="st0">
		<g class="st1">
			<g>
				<path class="st6" d="M-1108.2-330.3c-6.1,0-11.1,5.1-11.1,11.3c0,3.5,1.8,7.7,5.2,12.6c2.5,3.5,5,6.1,5.1,6.2
					c0.2,0.2,0.5,0.3,0.7,0.3c0.2,0,0.5-0.1,0.7-0.3c0.1-0.1,2.6-2.5,5.2-6c3.5-4.8,5.2-9.1,5.2-12.7
					C-1097.1-325.3-1102.1-330.3-1108.2-330.3z M-1108.2-302.4c-2.2-2.4-9.1-10.4-9.1-16.6c0-5.1,4.1-9.3,9.1-9.3s9.1,4.2,9.1,9.3
					C-1099.1-312.5-1106-304.8-1108.2-302.4z"/>
			</g>
		</g>
		<g class="st1">
			<g>
				<path class="st6" d="M-1108.2-325c-3,0-5.4,2.4-5.4,5.4s2.4,5.4,5.4,5.4s5.4-2.4,5.4-5.4S-1105.2-325-1108.2-325z
					 M-1108.2-316.2c-1.9,0-3.4-1.5-3.4-3.4s1.5-3.4,3.4-3.4s3.4,1.5,3.4,3.4S-1106.3-316.2-1108.2-316.2z"/>
			</g>
		</g>
	</g>
</g>
</svg>
