<?xml version="1.0" encoding="utf-8"?>
<!-- Generator: Adobe Illustrator 24.0.1, SVG Export Plug-In . SVG Version: 6.00 Build 0)  -->
<svg version="1.1" id="Layer_2" xmlns="http://www.w3.org/2000/svg" xmlns:xlink="http://www.w3.org/1999/xlink" x="0px" y="0px"
	 viewBox="0 0 1920 843" style="enable-background:new 0 0 1920 843;" xml:space="preserve">
<style type="text/css">
	.st0{fill:none;}
	.st1{fill-rule:evenodd;clip-rule:evenodd;fill:#4E7756;}
</style>
<g>
	<g>
		<g>
			<g>
				<g>
					<polygon class="st0" points="-2.1,35.4 0.6,33.5 3.4,31.6 -0.3,25.9 -3.2,27.8 -6.1,29.9 					"/>
					<path class="st1" d="M1.5,28.8c1,1.6,0.6,3.7-0.9,4.7c-1.5,1-3.6,0.7-4.7-0.8c-1.1-1.5-0.7-3.7,0.8-4.8
						C-1.6,26.8,0.5,27.2,1.5,28.8z"/>
				</g>
			</g>
			<g>
				<g>
					<path class="st0" d="M11.1,27c1.9-1,3.9-2.1,5.9-3.1l-3-6.1c-2.1,1-4.1,2.1-6.2,3.2L11.1,27z"/>
					<path class="st1" d="M15.4,20.9c0.8,1.7,0.1,3.7-1.4,4.6c-1.6,0.8-3.7,0.2-4.6-1.4c-0.9-1.7-0.3-3.7,1.4-4.6
						C12.5,18.5,14.6,19.2,15.4,20.9z"/>
				</g>
			</g>
			<g>
				<g>
					<path class="st0" d="M22.4,21.4c2-0.8,4.1-1.7,6.1-2.4l-2.3-6.4c-2.2,0.8-4.3,1.7-6.5,2.6L22.4,21.4z"/>
					<path class="st1" d="M27.3,15.8c0.6,1.8-0.2,3.7-1.9,4.4c-1.7,0.7-3.7-0.2-4.4-1.9c-0.8-1.7,0.1-3.7,1.9-4.5
						C24.7,13.1,26.7,14,27.3,15.8z"/>
				</g>
			</g>
			<g>
				<g>
					<path class="st0" d="M34.2,17.1c2.1-0.6,4.2-1.2,6.4-1.7l-1.6-6.6c-2.3,0.5-4.5,1.2-6.8,1.8L34.2,17.1z"/>
					<path class="st1" d="M39.7,12c0.4,1.8-0.6,3.6-2.4,4.1c-1.7,0.5-3.6-0.6-4.2-2.4c-0.6-1.8,0.5-3.7,2.4-4.2
						C37.4,9,39.3,10.2,39.7,12z"/>
				</g>
			</g>
			<g>
				<g>
					<polygon class="st0" points="46.3,14.1 49.6,13.5 52.8,13.1 52.1,6.3 48.6,6.8 45.1,7.4 					"/>
					<path class="st1" d="M52.4,9.7c0.2,1.9-1.1,3.6-2.9,3.8c-1.8,0.3-3.5-1-3.9-2.8c-0.3-1.8,0.9-3.6,2.8-3.9
						C50.5,6.5,52.2,7.9,52.4,9.7z"/>
				</g>
			</g>
			<g>
				<g>
					<path class="st0" d="M58.8,12.6c2.2-0.1,4.4-0.1,6.5-0.1l0.1-6.8c-2.3,0-4.7,0-7,0.1L58.8,12.6z"/>
					<path class="st1" d="M65.4,9.1c0,0.9-0.4,1.8-1,2.4c-0.6,0.6-1.4,1-2.3,1c-1.8,0-3.3-1.4-3.5-3.3c-0.1-1.9,1.4-3.5,3.3-3.5
						c1,0,1.9,0.4,2.5,1C65,7.3,65.4,8.2,65.4,9.1z"/>
				</g>
			</g>
			<g>
				<g>
					<path class="st0" d="M71.2,12.8c2.2,0.2,4.3,0.5,6.5,0.8l1.1-6.7c-2.3-0.4-4.7-0.7-7-0.9L71.2,12.8z"/>
					<path class="st1" d="M78.2,10.3c-0.3,1.9-2,3.1-3.8,2.9c-1.8-0.2-3.1-1.9-2.9-3.8c0.2-1.9,1.9-3.2,3.8-3
						C77.3,6.6,78.6,8.5,78.2,10.3z"/>
				</g>
			</g>
			<g>
				<g>
					<path class="st0" d="M83.4,14.9c1,0.3,2.1,0.5,3.1,0.9c1,0.3,2.1,0.6,3.1,1l2.3-6.4c-1.1-0.4-2.2-0.7-3.4-1.1
						c-1.1-0.4-2.3-0.6-3.4-0.9L83.4,14.9z"/>
					<path class="st1" d="M90.8,13.5c-0.3,0.9-0.9,1.6-1.7,2c-0.8,0.4-1.7,0.5-2.5,0.3c-0.9-0.3-1.5-0.9-1.9-1.6
						c-0.4-0.7-0.6-1.7-0.3-2.6c0.2-0.9,0.8-1.6,1.6-2.1c0.8-0.5,1.7-0.6,2.7-0.3c0.9,0.3,1.7,0.9,2.1,1.7
						C91,11.7,91.1,12.6,90.8,13.5z"/>
				</g>
			</g>
			<g>
				<g>
					<polygon class="st0" points="95.1,18.9 98,20.3 100.8,21.8 104.2,15.9 101.1,14.2 97.9,12.7 					"/>
					<path class="st1" d="M102.5,18.9c-1,1.6-3,2.3-4.5,1.4c-1.6-0.8-2.3-2.8-1.5-4.5c0.8-1.7,2.8-2.4,4.6-1.6
						C102.8,15.1,103.5,17.2,102.5,18.9z"/>
				</g>
			</g>
			<g>
				<g>
					<path class="st0" d="M105.8,25c0.9,0.6,1.7,1.3,2.6,1.9c0.8,0.7,1.7,1.3,2.5,2l4.5-5.1c-0.9-0.8-1.8-1.5-2.8-2.3
						c-1-0.7-1.9-1.5-2.9-2.2L105.8,25z"/>
					<path class="st1" d="M113,26.4c-0.6,0.7-1.5,1.1-2.3,1.2c-0.9,0.1-1.7-0.1-2.4-0.6c-0.7-0.5-1.1-1.3-1.2-2.2
						c-0.1-0.8,0.1-1.7,0.6-2.5c0.5-0.8,1.4-1.3,2.2-1.4c0.9-0.1,1.8,0.1,2.6,0.7c0.8,0.6,1.3,1.5,1.3,2.3
						C113.9,24.8,113.7,25.7,113,26.4z"/>
				</g>
			</g>
			<g>
				<g>
					<path class="st0" d="M115,33l1.1,1.2c0.4,0.4,0.7,0.8,1,1.2c0.7,0.8,1.4,1.6,2,2.5l5.4-4.2c-0.7-1-1.5-1.8-2.3-2.8
						c-0.4-0.5-0.8-0.9-1.2-1.4l-1.2-1.3L115,33z"/>
					<path class="st1" d="M121.9,35.8c-1.5,1.1-3.6,0.9-4.8-0.4c-1.1-1.4-1-3.4,0.3-4.7c1.3-1.3,3.6-1.2,4.9,0.3
						C123.6,32.5,123.4,34.6,121.9,35.8z"/>
				</g>
			</g>
			<g>
				<g>
					<path class="st0" d="M122.6,42.7l0.9,1.4l0.8,1.4c0.5,0.9,1.1,1.9,1.6,2.8l6-3.2c-0.5-1.1-1.2-2.1-1.7-3.1l-0.9-1.5l-1-1.5
						L122.6,42.7z"/>
					<path class="st1" d="M128.9,46.7c-0.8,0.4-1.8,0.5-2.6,0.3c-0.8-0.2-1.6-0.7-2-1.5c-0.9-1.6-0.4-3.6,1.2-4.6
						c1.6-1,3.8-0.6,4.7,1.2c0.5,0.8,0.6,1.8,0.4,2.6C130.3,45.5,129.7,46.2,128.9,46.7z"/>
				</g>
			</g>
			<g>
				<g>
					<path class="st0" d="M128.5,53.6c0.9,2,1.7,4,2.5,6.1l6.4-2.4c-0.8-2.2-1.7-4.4-2.6-6.5L128.5,53.6z"/>
					<path class="st1" d="M134.1,58.5c-1.8,0.6-3.7-0.2-4.4-1.9c-0.7-1.7,0.1-3.6,1.8-4.4c1.7-0.8,3.8,0,4.5,1.8
						C136.8,55.8,135.9,57.9,134.1,58.5z"/>
				</g>
			</g>
			<g>
				<g>
					<path class="st0" d="M132.9,65.3c0.7,2.1,1.3,4.2,1.8,6.4l6.6-1.7c-0.6-2.2-1.2-4.5-1.9-6.7L132.9,65.3z"/>
					<path class="st1" d="M138,70.9c-1.8,0.5-3.7-0.6-4.2-2.3c-0.5-1.8,0.5-3.6,2.3-4.2c1.8-0.6,3.7,0.5,4.2,2.3
						C140.9,68.5,139.8,70.4,138,70.9z"/>
				</g>
			</g>
			<g>
				<g>
					<path class="st0" d="M136.1,77.6c0.5,2.1,0.9,4.3,1.3,6.5l6.7-1.1c-0.4-2.3-0.8-4.6-1.3-6.9L136.1,77.6z"/>
					<path class="st1" d="M140.8,83.5c-1.9,0.3-3.6-0.9-4-2.7c-0.3-1.8,0.8-3.6,2.7-4c1.8-0.4,3.7,0.8,4,2.7
						C143.9,81.4,142.6,83.2,140.8,83.5z"/>
				</g>
			</g>
			<g>
				<g>
					<path class="st0" d="M138.2,90c0.3,2.2,0.5,4.4,0.6,6.6l6.8-0.5c-0.2-2.3-0.4-4.6-0.7-6.9L138.2,90z"/>
					<path class="st1" d="M142.3,96.3c-1.9,0.1-3.5-1.3-3.7-3.1c-0.2-1.8,1.2-3.5,3-3.7c1.9-0.2,3.6,1.1,3.8,3.1
						C145.6,94.6,144.1,96.2,142.3,96.3z"/>
				</g>
			</g>
			<g>
				<g>
					<path class="st0" d="M139.1,102.6c0,2.2,0,4.4,0,6.6l6.8,0.2c0.1-2.3,0.1-4.7,0-7L139.1,102.6z"/>
					<path class="st1" d="M142.5,109.3c-1.9-0.1-3.4-1.6-3.4-3.4c0-1.8,1.5-3.3,3.4-3.4c1.9-0.1,3.4,1.5,3.4,3.4
						C146,107.8,144.4,109.4,142.5,109.3z"/>
				</g>
			</g>
			<g>
				<g>
					<path class="st0" d="M138.8,115.1c-0.2,2.2-0.4,4.4-0.8,6.5l6.7,1c0.3-2.3,0.6-4.6,0.8-7L138.8,115.1z"/>
					<path class="st1" d="M141.4,122.2c-1.9-0.3-3.2-2-2.9-3.8c0.2-1.8,1.9-3.1,3.7-3c1.9,0.1,3.3,1.8,3.1,3.8
						C145,121.1,143.2,122.5,141.4,122.2z"/>
				</g>
			</g>
			<g>
				<g>
					<path class="st0" d="M136.9,127.5c-0.2,1.1-0.5,2.1-0.7,3.2l-0.9,3.1l6.5,2l1-3.4c0.3-1.1,0.6-2.3,0.8-3.4L136.9,127.5z"/>
					<path class="st1" d="M138.6,134.8c-1.8-0.6-2.9-2.4-2.4-4.1c0.4-1.7,2.3-2.8,4.1-2.5c1.9,0.4,3,2.2,2.5,4.2
						C142.3,134.3,140.4,135.4,138.6,134.8z"/>
				</g>
			</g>
			<g>
				<g>
					<path class="st0" d="M133.4,139.3c-0.4,1-0.8,2-1.3,2.9c-0.5,0.9-0.9,1.9-1.4,2.9l6,3.2c0.6-1,1.1-2.1,1.6-3.2
						c0.5-1.1,1-2.2,1.4-3.3L133.4,139.3z"/>
					<path class="st1" d="M133.6,146.7c-0.8-0.5-1.4-1.2-1.7-2c-0.3-0.8-0.3-1.7,0.1-2.5c0.7-1.6,2.7-2.4,4.5-1.7
						c1.7,0.7,2.6,2.7,1.7,4.6c-0.4,0.9-1.2,1.5-2,1.8C135.4,147.3,134.5,147.2,133.6,146.7z"/>
				</g>
			</g>
			<g>
				<g>
					<path class="st0" d="M127.6,150c-0.6,0.9-1.2,1.7-1.9,2.5c-0.3,0.4-0.7,0.8-1,1.2l-1.1,1.1l4.9,4.7l1.3-1.3
						c0.4-0.5,0.8-0.9,1.2-1.4c0.8-0.9,1.5-1.9,2.2-2.9L127.6,150z"/>
					<path class="st1" d="M126.1,157.2c-0.7-0.7-1-1.5-1.1-2.4c0-0.8,0.2-1.7,0.7-2.4c0.6-0.7,1.3-1,2.2-1.2
						c0.8-0.1,1.8,0.1,2.5,0.6c0.8,0.5,1.2,1.3,1.4,2.2c0.1,0.9-0.1,1.9-0.8,2.6c-0.6,0.8-1.5,1.2-2.4,1.3
						C127.7,158.2,126.8,157.9,126.1,157.2z"/>
				</g>
			</g>
			<g>
				<g>
					<path class="st0" d="M119.4,158.6c-0.8,0.7-1.7,1.2-2.5,1.8c-0.9,0.6-1.8,1.1-2.7,1.6l3.2,6c1.1-0.6,2.1-1.2,3.2-1.9
						c1-0.7,2.1-1.4,3-2.1L119.4,158.6z"/>
					<path class="st1" d="M115.9,165c-0.9-1.6-0.4-3.7,1.1-4.6c0.7-0.5,1.6-0.6,2.4-0.4c0.8,0.2,1.6,0.6,2.2,1.3
						c0.6,0.7,0.8,1.7,0.6,2.5c-0.2,0.9-0.7,1.7-1.6,2.3C118.9,167.3,116.7,166.7,115.9,165z"/>
				</g>
			</g>
			<g>
				<g>
					<path class="st0" d="M109,164.4c-1,0.4-2,0.8-3,1l-1.5,0.5l-1.5,0.4l1.6,6.6l1.8-0.4l1.7-0.5c1.2-0.3,2.3-0.8,3.4-1.2
						L109,164.4z"/>
					<path class="st1" d="M103.8,169.6c-0.4-1.8,0.6-3.6,2.3-4.2c0.8-0.2,1.7-0.1,2.5,0.2c0.8,0.4,1.4,1,1.8,1.9
						c0.3,0.9,0.3,1.8-0.1,2.6c-0.4,0.8-1.1,1.5-2.1,1.8C106.1,172.6,104.2,171.4,103.8,169.6z"/>
				</g>
			</g>
			<g>
				<g>
					<path class="st0" d="M97.4,167.3c-2.1,0.3-4.2,0.3-6.2,0.2l-0.4,6.8c2.5,0.1,4.9,0.1,7.4-0.2L97.4,167.3z"/>
					<path class="st1" d="M90.9,170.9c0.1-0.9,0.5-1.8,1.1-2.4c0.6-0.6,1.4-0.9,2.2-1c0.9,0,1.7,0.3,2.3,0.9
						c0.6,0.5,1.1,1.4,1.2,2.3c0.1,0.9-0.2,1.8-0.8,2.5c-0.6,0.7-1.5,1.1-2.5,1.1c-1,0.1-2-0.4-2.6-1
						C91.2,172.7,90.9,171.8,90.9,170.9z"/>
				</g>
			</g>
			<g>
				<g>
					<path class="st0" d="M85.8,166.6c-0.9-0.3-1.9-0.5-2.8-1l-1.3-0.6l-1.2-0.7l-3.6,5.8l1.7,1l1.8,0.8c1.2,0.6,2.4,0.9,3.6,1.3
						L85.8,166.6z"/>
					<path class="st1" d="M78.7,167.2c0.5-0.8,1.3-1.3,2-1.6c0.7-0.2,1.6-0.3,2.3,0c0.7,0.4,1.3,0.9,1.6,1.7
						c0.3,0.8,0.5,1.7,0.2,2.6c-0.2,0.9-0.8,1.6-1.7,2c-0.8,0.4-1.9,0.5-2.9,0c-1-0.4-1.7-1.1-2-2.1C78.1,168.9,78.2,168,78.7,167.2
						z"/>
				</g>
			</g>
			<g>
				<g>
					<path class="st0" d="M76.5,161l-0.9-1.1l-0.4-0.6l-0.4-0.6l-0.8-1.2l-0.6-1.3l-6.2,2.9l0.8,1.7c0.3,0.6,0.7,1.1,1,1.7l0.5,0.8
						c0.2,0.3,0.4,0.5,0.6,0.8l1.2,1.5L76.5,161z"/>
					<path class="st1" d="M70.3,157.6c0.9-0.4,1.8-0.4,2.6-0.2c0.8,0.2,1.5,0.7,1.9,1.3c0.4,0.7,0.6,1.5,0.4,2.3
						c-0.1,0.8-0.6,1.7-1.3,2.3c-0.7,0.6-1.6,0.9-2.5,0.7c-0.9-0.2-1.9-0.7-2.4-1.6c-0.6-0.9-0.8-1.9-0.5-2.8
						C68.8,158.7,69.4,158,70.3,157.6z"/>
				</g>
			</g>
			<g>
				<g>
					<path class="st0" d="M71.6,151c-0.2-1-0.5-2-0.6-3l-0.2-1.5l-0.1-1.6l-6.8,0.4l0.1,1.8l0.2,1.8c0.1,1.2,0.4,2.4,0.7,3.7
						L71.6,151z"/>
					<path class="st1" d="M67.4,145.1c1.9-0.1,3.4,1.2,3.7,2.9c0.1,0.9-0.1,1.7-0.6,2.3c-0.5,0.7-1.2,1.2-2.2,1.5
						c-0.9,0.2-1.8,0-2.6-0.5c-0.7-0.5-1.3-1.4-1.4-2.4C64,146.9,65.5,145.1,67.4,145.1z"/>
				</g>
			</g>
			<g>
				<g>
					<path class="st0" d="M70.9,139.2c0.2-2.1,0.5-4.2,1-6.2l-6.6-1.7c-0.6,2.4-1,4.8-1.2,7.2L70.9,139.2z"/>
					<path class="st1" d="M68.6,132.2c1.8,0.5,2.9,2.2,2.7,3.9c-0.3,1.7-1.9,2.9-3.8,2.8c-1.9-0.1-3.2-1.9-2.9-3.9
						C64.9,133,66.8,131.8,68.6,132.2z"/>
				</g>
			</g>
			<g>
				<g>
					<path class="st0" d="M73.7,127.8c0.5-0.9,0.9-1.8,1.4-2.7c0.6-0.9,1.1-1.7,1.7-2.6l-5.6-4c-0.7,1-1.3,2.1-2,3.1
						c-0.6,1.1-1.1,2.2-1.7,3.3L73.7,127.8z"/>
					<path class="st1" d="M73.9,120.5c1.5,1.1,2,3.2,1.1,4.6c-0.8,1.5-2.8,2.1-4.5,1.3c-1.7-0.7-2.4-2.9-1.4-4.7
						C70.2,119.9,72.4,119.4,73.9,120.5z"/>
				</g>
			</g>
			<g>
				<g>
					<path class="st0" d="M80.3,118.2c0.7-0.8,1.5-1.4,2.3-2.1c0.8-0.7,1.6-1.3,2.5-2l-4.1-5.4c-0.9,0.8-1.9,1.5-2.8,2.3
						c-0.9,0.8-1.8,1.6-2.7,2.5L80.3,118.2z"/>
					<path class="st1" d="M83,111.4c1.1,1.5,0.9,3.6-0.4,4.7c-1.3,1.2-3.4,1-4.7-0.2c-1.4-1.3-1.3-3.5,0.2-4.9
						C79.6,109.6,81.9,109.9,83,111.4z"/>
				</g>
			</g>
			<g>
				<g>
					<path class="st0" d="M89.8,110.8c1.8-1.1,3.7-2.1,5.7-3.1l-3-6.1c-2.1,1.1-4.2,2.1-6.2,3.4L89.8,110.8z"/>
					<path class="st1" d="M94,104.6c0.8,1.7,0.2,3.7-1.4,4.6c-0.8,0.4-1.7,0.5-2.5,0.3c-0.8-0.2-1.6-0.8-2.1-1.6
						c-0.5-0.8-0.6-1.7-0.4-2.6c0.2-0.9,0.8-1.7,1.7-2.1C91.1,102.3,93.2,102.9,94,104.6z"/>
				</g>
			</g>
			<g>
				<g>
					<path class="st0" d="M100.9,105.3c1-0.4,2-0.8,3.1-1.2c1-0.4,2-0.8,3.1-1.1l-2.1-6.5c-1.1,0.3-2.2,0.8-3.3,1.2
						c-1.1,0.4-2.2,0.8-3.3,1.3L100.9,105.3z"/>
					<path class="st1" d="M106,99.8c0.3,0.9,0.2,1.8-0.2,2.6c-0.4,0.8-1,1.4-1.9,1.7c-1.7,0.6-3.6-0.2-4.3-2c-0.7-1.7,0.2-3.8,2-4.4
						c0.9-0.3,1.9-0.3,2.7,0.1C105.1,98.2,105.7,98.9,106,99.8z"/>
				</g>
			</g>
			<g>
				<g>
					<path class="st0" d="M112.8,101.4c1.1-0.3,2.1-0.6,3.2-0.8c1.1-0.3,2.1-0.5,3.2-0.8l-1.5-6.7c-1.1,0.2-2.3,0.5-3.4,0.8
						c-1.1,0.3-2.3,0.5-3.4,0.9L112.8,101.4z"/>
					<path class="st1" d="M118.5,96.4c0.4,1.8-0.7,3.7-2.5,4.1c-1.8,0.4-3.6-0.6-4.1-2.5c-0.5-1.8,0.6-3.7,2.5-4.2
						C116.3,93.5,118.1,94.6,118.5,96.4z"/>
				</g>
			</g>
			<g>
				<g>
					<path class="st0" d="M125.2,98.6c2.2-0.4,4.4-0.7,6.6-1l-0.9-6.8c-2.3,0.3-4.6,0.7-6.8,1.1L125.2,98.6z"/>
					<path class="st1" d="M131.3,94.2c0.2,1.9-1,3.6-2.8,3.9c-1.8,0.3-3.5-0.9-3.9-2.8c-0.3-1.8,0.9-3.7,2.8-3.9
						C129.3,91,131,92.3,131.3,94.2z"/>
				</g>
			</g>
			<g>
				<g>
					<polygon class="st0" points="137.7,96.9 141,96.6 144.4,96.4 143.9,89.5 140.5,89.8 137,90.1 					"/>
					<path class="st1" d="M144.2,92.9c0.1,1.9-1.3,3.5-3.1,3.6c-1.8,0.2-3.5-1.2-3.7-3.1c-0.2-1.9,1.2-3.5,3.1-3.7
						C142.4,89.6,144,91.1,144.2,92.9z"/>
				</g>
			</g>
			<g>
				<g>
					<path class="st0" d="M150.4,96.1c2.2,0,4.4-0.1,6.7-0.1l0-6.8c-2.3,0-4.6,0-6.9,0.1L150.4,96.1z"/>
					<path class="st1" d="M157.1,92.6c0,1.9-1.5,3.4-3.4,3.4c-1.8,0-3.4-1.5-3.4-3.4c-0.1-1.9,1.4-3.4,3.4-3.5
						C155.6,89.1,157.1,90.7,157.1,92.6z"/>
				</g>
			</g>
			<g>
				<g>
					<path class="st0" d="M163.1,96.1c2.2,0.1,4.4,0.2,6.7,0.4l0.5-6.8c-2.3-0.2-4.6-0.3-6.9-0.4L163.1,96.1z"/>
					<path class="st1" d="M170,93.1c-0.1,1.9-1.7,3.3-3.6,3.2c-1.8-0.1-3.3-1.7-3.2-3.6c0.1-1.9,1.7-3.4,3.6-3.2
						C168.7,89.6,170.2,91.2,170,93.1z"/>
				</g>
			</g>
			<g>
				<g>
					<path class="st0" d="M175.8,97c1.1,0.1,2.2,0.2,3.3,0.4c1.1,0.2,2.2,0.3,3.3,0.5l1-6.7c-1.1-0.2-2.3-0.3-3.4-0.5
						c-1.1-0.2-2.3-0.3-3.4-0.4L175.8,97z"/>
					<path class="st1" d="M182.9,94.5c-0.3,1.8-2,3.1-3.8,2.9c-1.8-0.3-3.1-1.9-2.9-3.8c0.2-1.9,1.9-3.2,3.8-3
						C181.9,90.9,183.2,92.7,182.9,94.5z"/>
				</g>
			</g>
			<g>
				<g>
					<path class="st0" d="M188.3,99c1.1,0.2,2.2,0.4,3.2,0.7c1.1,0.2,2.1,0.5,3.2,0.8l1.7-6.6c-1.1-0.3-2.3-0.6-3.4-0.8
						c-1.1-0.3-2.3-0.5-3.4-0.7L188.3,99z"/>
					<path class="st1" d="M195.6,97.1c-0.5,1.8-2.3,2.9-4.1,2.5c-1.8-0.4-2.9-2.2-2.6-4c0.4-1.8,2.2-3.1,4.1-2.6
						C194.9,93.4,196,95.3,195.6,97.1z"/>
				</g>
			</g>
			<g>
				<g>
					<path class="st0" d="M200.4,102.1c2.1,0.7,4.2,1.4,6.2,2.2l2.4-6.4c-2.2-0.8-4.4-1.5-6.6-2.3L200.4,102.1z"/>
					<path class="st1" d="M207.9,101.1c-0.7,1.7-2.6,2.7-4.3,2.1c-1.7-0.6-2.6-2.5-2.1-4.3c0.6-1.8,2.5-2.7,4.3-2.1
						C207.6,97.3,208.6,99.3,207.9,101.1z"/>
				</g>
			</g>
			<g>
				<g>
					<path class="st0" d="M212.2,106.5c2,0.9,4,1.9,6,2.8l3.1-6.1c-2.1-1-4.2-2.1-6.3-3L212.2,106.5z"/>
					<path class="st1" d="M219.7,106.3c-0.9,1.7-2.9,2.4-4.5,1.6c-1.6-0.8-2.3-2.8-1.6-4.5c0.8-1.7,2.8-2.5,4.5-1.6
						C219.9,102.6,220.6,104.7,219.7,106.3z"/>
				</g>
			</g>
			<g>
				<g>
					<polygon class="st0" points="223.4,112.2 224.9,113 226.3,113.9 229.1,115.7 232.8,109.9 229.8,108.1 228.3,107.2 226.8,106.3 
											"/>
					<path class="st1" d="M230.9,112.8c-1,1.6-3.1,2.1-4.6,1.1c-1.5-1-2.1-3-1.2-4.6c0.9-1.6,3.1-2.3,4.7-1.2
						C231.4,109.1,231.9,111.2,230.9,112.8z"/>
				</g>
			</g>
			<g>
				<g>
					<polygon class="st0" points="234,119 236.8,120.9 239.4,123 243.6,117.6 240.8,115.5 238,113.5 					"/>
					<path class="st1" d="M241.5,120.3c-1.2,1.5-3.3,1.8-4.7,0.6c-1.5-1.1-1.8-3.2-0.7-4.7c1.1-1.5,3.2-1.9,4.8-0.8
						C242.3,116.7,242.6,118.8,241.5,120.3z"/>
				</g>
			</g>
			<g>
				<g>
					<path class="st0" d="M244,126.8l2.5,2.2c0.8,0.7,1.7,1.4,2.5,2.2l4.6-5c-0.8-0.8-1.7-1.6-2.6-2.3l-2.6-2.3L244,126.8z"/>
					<path class="st1" d="M251.3,128.7c-1.3,1.4-3.4,1.5-4.8,0.3c-1.4-1.2-1.5-3.3-0.3-4.8c1.2-1.4,3.4-1.6,4.8-0.3
						C252.5,125.1,252.6,127.3,251.3,128.7z"/>
				</g>
			</g>
			<g>
				<g>
					<polygon class="st0" points="253.4,135.3 258,140.1 263,135.4 258.2,130.5 					"/>
					<path class="st1" d="M260.5,137.8c-1.4,1.3-3.5,1.3-4.8-0.1c-1.3-1.3-1.2-3.5,0.1-4.8c1.3-1.3,3.5-1.3,4.8,0.1
						C262,134.3,261.9,136.5,260.5,137.8z"/>
				</g>
			</g>
			<g>
				<g>
					<path class="st0" d="M262.1,144.6c1.5,1.6,2.9,3.4,4.3,5.1l5.3-4.3c-1.5-1.8-2.9-3.6-4.5-5.3L262.1,144.6z"/>
					<path class="st1" d="M269,147.5c-1.5,1.2-3.6,1-4.8-0.4c-1.2-1.4-1.1-3.5,0.4-4.8c1.4-1.2,3.6-1.1,4.8,0.4
						C270.7,144.2,270.5,146.3,269,147.5z"/>
				</g>
			</g>
			<g>
				<g>
					<path class="st0" d="M270.2,154.4c1.3,1.8,2.7,3.5,4,5.4l5.5-4c-1.3-1.9-2.8-3.7-4.1-5.5L270.2,154.4z"/>
					<path class="st1" d="M276.9,157.8c-1.5,1.1-3.6,0.8-4.8-0.7c-1.1-1.5-0.8-3.6,0.7-4.7c1.5-1.2,3.6-0.9,4.8,0.7
						C278.8,154.5,278.5,156.7,276.9,157.8z"/>
				</g>
			</g>
			<g>
				<g>
					<path class="st0" d="M277.7,164.7c1.3,1.8,2.4,3.7,3.7,5.6l5.7-3.7c-1.3-1.9-2.5-3.9-3.8-5.8L277.7,164.7z"/>
					<path class="st1" d="M284.2,168.5c-1.6,1-3.7,0.6-4.7-1c-1-1.6-0.6-3.6,1-4.7c1.6-1.1,3.7-0.7,4.7,0.9
						C286.2,165.4,285.8,167.5,284.2,168.5z"/>
				</g>
			</g>
			<g>
				<g>
					<path class="st0" d="M284.5,175.5c1.1,1.9,2.3,3.8,3.4,5.8l5.9-3.4c-1.1-2-2.3-3.9-3.5-5.9L284.5,175.5z"/>
					<path class="st1" d="M290.9,179.6c-1.6,0.9-3.7,0.4-4.7-1.2c-1-1.6-0.4-3.7,1.2-4.6c1.6-1,3.7-0.5,4.7,1.2
						C293.1,176.5,292.6,178.6,290.9,179.6z"/>
				</g>
			</g>
			<g>
				<g>
					<path class="st0" d="M290.9,186.6c1.1,1.9,2.1,4,3.1,5.9l6.1-3.1c-1.1-2-2.1-4.1-3.2-6.1L290.9,186.6z"/>
					<path class="st1" d="M297.1,190.9c-1.7,0.9-3.7,0.2-4.6-1.4c-0.8-1.7-0.2-3.7,1.4-4.6c1.7-0.9,3.8-0.3,4.6,1.4
						C299.4,188,298.7,190.1,297.1,190.9z"/>
				</g>
			</g>
			<g>
				<g>
					<polygon class="st0" points="296.8,197.9 299.7,204 305.9,201.2 302.9,195 					"/>
					<path class="st1" d="M302.8,202.6c-1.7,0.8-3.7,0.1-4.5-1.6c-0.8-1.7-0.1-3.7,1.6-4.5c1.7-0.8,3.7-0.1,4.5,1.6
						C305.2,199.8,304.5,201.8,302.8,202.6z"/>
				</g>
			</g>
			<g>
				<g>
					<path class="st0" d="M302.1,209.6c0.9,2,1.8,4.1,2.6,6.2l6.3-2.6c-0.9-2.1-1.7-4.2-2.7-6.3L302.1,209.6z"/>
					<path class="st1" d="M307.9,214.5c-1.7,0.7-3.7-0.1-4.4-1.8c-0.7-1.7,0-3.7,1.8-4.4c1.7-0.8,3.8,0,4.5,1.8
						C310.5,211.7,309.6,213.7,307.9,214.5z"/>
				</g>
			</g>
			<g>
				<g>
					<polygon class="st0" points="307,221.4 309.4,227.7 315.8,225.3 313.4,218.9 					"/>
					<path class="st1" d="M312.6,226.5c-1.8,0.7-3.7-0.2-4.4-2c-0.7-1.7,0.2-3.7,2-4.4c1.7-0.7,3.7,0.2,4.4,2
						C315.3,223.9,314.4,225.9,312.6,226.5z"/>
				</g>
			</g>
			<g>
				<g>
					<path class="st0" d="M311.5,233.4c0.7,2.1,1.5,4.2,2.2,6.4l6.5-2.1c-0.7-2.2-1.5-4.3-2.2-6.5L311.5,233.4z"/>
					<path class="st1" d="M316.9,238.7c-1.8,0.6-3.7-0.4-4.3-2.1c-0.6-1.8,0.3-3.7,2.1-4.3c1.8-0.6,3.7,0.3,4.3,2.1
						C319.7,236.2,318.7,238.1,316.9,238.7z"/>
				</g>
			</g>
			<g>
				<g>
					<path class="st0" d="M315.5,245.6c0.7,2.1,1.3,4.3,2,6.4l6.5-1.9c-0.6-2.2-1.3-4.4-2-6.6L315.5,245.6z"/>
					<path class="st1" d="M320.8,251.1c-1.8,0.5-3.7-0.5-4.2-2.3c-0.5-1.8,0.4-3.7,2.2-4.2c1.8-0.6,3.7,0.4,4.3,2.2
						C323.6,248.6,322.6,250.6,320.8,251.1z"/>
				</g>
			</g>
			<g>
				<g>
					<polygon class="st0" points="319.2,257.9 320.9,264.4 327.5,262.7 325.8,256.1 					"/>
					<path class="st1" d="M324.2,263.6c-1.8,0.5-3.7-0.6-4.2-2.4c-0.5-1.8,0.6-3.7,2.4-4.2c1.8-0.5,3.7,0.6,4.2,2.4
						S326.1,263.1,324.2,263.6z"/>
				</g>
			</g>
			<g>
				<g>
					<polygon class="st0" points="322.4,270.3 324,276.9 330.7,275.4 329.1,268.7 					"/>
					<path class="st1" d="M327.4,276.1c-1.8,0.4-3.7-0.7-4.1-2.5s0.7-3.6,2.5-4.1c1.8-0.5,3.7,0.7,4.1,2.5
						C330.3,273.9,329.2,275.7,327.4,276.1z"/>
				</g>
			</g>
			<g>
				<g>
					<path class="st0" d="M325.3,282.9c0.5,2.2,1,4.4,1.4,6.6l6.7-1.3c-0.4-2.2-0.9-4.5-1.4-6.7L325.3,282.9z"/>
					<path class="st1" d="M330.1,288.8c-1.9,0.4-3.6-0.8-4-2.6c-0.4-1.8,0.8-3.6,2.6-4c1.8-0.4,3.7,0.8,4.1,2.6
						C333.1,286.6,331.9,288.4,330.1,288.8z"/>
				</g>
			</g>
			<g>
				<path class="st1" d="M323.3,293.2l-7.4,1.4l4.5,3.7c1.5,1.2,3,2.5,4.5,3.7c3,2.5,6,5.1,8.9,7.7c2.1-3.4,4-6.8,5.9-10.3
					c1-1.7,2-3.5,2.9-5.2l2.8-5.3l-7.4,1.4L323.3,293.2z"/>
			</g>
		</g>
	</g>
</g>
<g>
	<g>
		<g>
			<g>
				<g>
					<path class="st0" d="M1925.7,787.9c-1.7,1.4-3.4,2.8-5.2,4.2l4.2,5.4c1.8-1.4,3.6-2.8,5.4-4.3L1925.7,787.9z"/>
					<path class="st1" d="M1922.6,794.8c-1.1-1.5-0.9-3.6,0.5-4.8c1.4-1.1,3.5-0.9,4.8,0.5c1.2,1.4,1,3.6-0.5,4.8
						C1925.9,796.5,1923.7,796.3,1922.6,794.8z"/>
				</g>
			</g>
			<g>
				<g>
					<path class="st0" d="M1913.2,797.4c-1.8,1.3-3.7,2.5-5.5,3.7l3.7,5.7c1.9-1.2,3.8-2.6,5.7-3.9L1913.2,797.4z"/>
					<path class="st1" d="M1909.5,804c-1-1.6-0.6-3.7,0.9-4.7c1.5-1,3.6-0.6,4.7,0.9c1.1,1.5,0.7,3.7-0.9,4.7
						C1912.7,806.1,1910.6,805.6,1909.5,804z"/>
				</g>
			</g>
			<g>
				<g>
					<path class="st0" d="M1902.6,804.4c-1.9,1.2-3.8,2.3-5.7,3.4l3.4,5.9c2-1.2,4-2.3,5.9-3.5L1902.6,804.4z"/>
					<path class="st1" d="M1898.5,810.8c-0.9-1.6-0.4-3.7,1.2-4.7c1.6-0.9,3.7-0.4,4.6,1.2c1,1.6,0.5,3.7-1.2,4.7
						C1901.6,813,1899.5,812.5,1898.5,810.8z"/>
				</g>
			</g>
			<g>
				<g>
					<path class="st0" d="M1891.6,810.8c-2,1-3.9,2.1-5.9,3l3,6.1c2.1-1,4.1-2.1,6.1-3.1L1891.6,810.8z"/>
					<path class="st1" d="M1887.1,816.9c-0.8-1.7-0.2-3.7,1.5-4.6c1.6-0.9,3.7-0.2,4.6,1.5c0.9,1.7,0.3,3.7-1.4,4.6
						C1890,819.3,1888,818.6,1887.1,816.9z"/>
				</g>
			</g>
			<g>
				<g>
					<polygon class="st0" points="1880.2,816.4 1877.1,817.8 1874.1,819.1 1876.7,825.4 1879.9,824 1883,822.6 					"/>
					<path class="st1" d="M1875.4,822.2c-0.7-1.7,0.1-3.7,1.8-4.4c1.7-0.8,3.7,0,4.4,1.7c0.8,1.7,0,3.7-1.7,4.5
						C1878.1,824.8,1876.1,824,1875.4,822.2z"/>
				</g>
			</g>
			<g>
				<g>
					<path class="st0" d="M1868.5,821.3c-2.1,0.8-4.2,1.5-6.3,2.2l2.1,6.5c2.2-0.7,4.4-1.5,6.5-2.3L1868.5,821.3z"/>
					<path class="st1" d="M1863.3,826.7c-0.6-1.8,0.3-3.7,2.1-4.3c1.7-0.6,3.6,0.3,4.3,2c0.7,1.7-0.2,3.8-2,4.4
						C1865.8,829.5,1863.8,828.5,1863.3,826.7z"/>
				</g>
			</g>
			<g>
				<g>
					<path class="st0" d="M1856.4,825.3c-1.1,0.3-2.1,0.6-3.2,0.9l-3.2,0.8l1.6,6.6l3.4-0.8c1.1-0.3,2.2-0.6,3.3-1L1856.4,825.3z"/>
					<path class="st1" d="M1850.9,830.3c-0.4-1.8,0.6-3.7,2.4-4.1c1.8-0.5,3.6,0.5,4.1,2.4c0.5,1.8-0.5,3.7-2.4,4.2
						C1853.2,833.3,1851.3,832.2,1850.9,830.3z"/>
				</g>
			</g>
			<g>
				<g>
					<polygon class="st0" points="1844.2,828.3 1840.9,829 1837.7,829.5 1838.7,836.3 1842.2,835.7 1845.6,835 					"/>
					<path class="st1" d="M1838.2,832.9c-0.3-1.9,0.9-3.6,2.7-3.9c1.8-0.4,3.5,0.8,3.9,2.7c0.4,1.8-0.8,3.7-2.7,4
						C1840.3,836,1838.5,834.8,1838.2,832.9z"/>
				</g>
			</g>
			<g>
				<g>
					<path class="st0" d="M1831.7,830.3c-2.2,0.2-4.4,0.5-6.6,0.6l0.5,6.8c2.3-0.1,4.6-0.4,6.9-0.6L1831.7,830.3z"/>
					<path class="st1" d="M1825.4,834.4c-0.1-1.9,1.3-3.5,3.1-3.6c1.8-0.2,3.5,1.2,3.7,3c0.2,1.9-1.1,3.6-3.1,3.8
						C1827.1,837.7,1825.5,836.2,1825.4,834.4z"/>
				</g>
			</g>
			<g>
				<g>
					<path class="st0" d="M1819.1,831.2l-3.3,0c-1.1,0-2.2,0-3.3,0l-0.2,6.8c1.2,0.1,2.3,0.1,3.5,0l3.5,0L1819.1,831.2z"/>
					<path class="st1" d="M1812.4,834.6c0.1-1.9,1.6-3.3,3.4-3.4c1.8,0,3.3,1.5,3.4,3.4c0.1,1.9-1.5,3.4-3.4,3.4
						C1813.9,838.1,1812.4,836.5,1812.4,834.6z"/>
				</g>
			</g>
			<g>
				<g>
					<polygon class="st0" points="1806.6,830.9 1800,830.3 1799.1,837 1806.1,837.7 					"/>
					<path class="st1" d="M1799.6,833.6c0.2-1.9,1.9-3.2,3.7-3c1.8,0.2,3.2,1.9,3,3.7c-0.1,1.9-1.8,3.2-3.7,3
						C1800.7,837.2,1799.3,835.5,1799.6,833.6z"/>
				</g>
			</g>
			<g>
				<g>
					<path class="st0" d="M1794.1,829.3l-1.6-0.3c-0.5-0.1-1.1-0.2-1.6-0.4l-3.2-0.7l-1.5,6.6l3.4,0.8c0.6,0.1,1.1,0.3,1.7,0.4
						l1.7,0.3L1794.1,829.3z"/>
					<path class="st1" d="M1786.9,831.3c0.4-1.8,2.2-3,4-2.6c1.8,0.4,3,2.1,2.6,4c-0.3,1.8-2.1,3.2-4,2.7
						C1787.6,835,1786.4,833.1,1786.9,831.3z"/>
				</g>
			</g>
			<g>
				<g>
					<path class="st0" d="M1781.8,826.5c-2.1-0.6-4.2-1.2-6.3-1.9l-2.2,6.5c2.2,0.8,4.4,1.4,6.6,2L1781.8,826.5z"/>
					<path class="st1" d="M1774.4,827.8c0.3-0.9,0.9-1.6,1.7-2c0.8-0.4,1.7-0.5,2.5-0.2c1.7,0.5,2.7,2.4,2.2,4.2
						c-0.5,1.8-2.4,2.9-4.3,2.3c-0.9-0.3-1.6-0.9-2-1.7C1774.2,829.6,1774.1,828.7,1774.4,827.8z"/>
				</g>
			</g>
			<g>
				<g>
					<polygon class="st0" points="1769.9,822.5 1766.8,821.3 1763.8,819.9 1761,826.2 1764.2,827.6 1767.4,828.9 					"/>
					<path class="st1" d="M1762.4,823.1c0.8-1.7,2.8-2.5,4.4-1.8c1.7,0.7,2.5,2.6,1.8,4.4c-0.7,1.8-2.7,2.6-4.5,1.9
						C1762.4,826.8,1761.6,824.8,1762.4,823.1z"/>
				</g>
			</g>
			<g>
				<g>
					<path class="st0" d="M1758.4,817.4c-2-0.9-3.9-2-5.9-3.1l-3.3,6c2,1.1,4,2.2,6.1,3.2L1758.4,817.4z"/>
					<path class="st1" d="M1750.9,817.3c0.9-1.6,3-2.3,4.6-1.4c1.6,0.9,2.3,2.8,1.4,4.6c-0.8,1.7-2.9,2.4-4.6,1.5
						C1750.6,821,1749.9,818.9,1750.9,817.3z"/>
				</g>
			</g>
			<g>
				<g>
					<path class="st0" d="M1747.3,811.3c-1.9-1.1-3.7-2.4-5.6-3.5l-3.8,5.7c2,1.2,3.9,2.5,5.9,3.7L1747.3,811.3z"/>
					<path class="st1" d="M1739.8,810.6c1-1.6,3.1-2,4.7-1.1c1.5,1,2,3.1,1,4.7c-1,1.6-3.1,2.1-4.7,1.1
						C1739.2,814.3,1738.8,812.2,1739.8,810.6z"/>
				</g>
			</g>
			<g>
				<g>
					<path class="st0" d="M1736.7,804.3c-1.8-1.3-3.6-2.6-5.3-4l-4.2,5.4c1.8,1.4,3.7,2.8,5.5,4.2L1736.7,804.3z"/>
					<path class="st1" d="M1729.3,803c1.2-1.5,3.3-1.8,4.7-0.7c1.5,1.1,1.8,3.2,0.7,4.8c-1.1,1.5-3.2,1.8-4.8,0.7
						C1728.4,806.7,1728.2,804.5,1729.3,803z"/>
				</g>
			</g>
			<g>
				<g>
					<path class="st0" d="M1726.8,796.5c-1.7-1.5-3.4-2.9-5-4.4l-4.6,5c1.7,1.6,3.5,3,5.2,4.6L1726.8,796.5z"/>
					<path class="st1" d="M1719.5,794.7c1.3-1.4,3.4-1.5,4.8-0.3c1.4,1.2,1.5,3.3,0.3,4.8c-1.2,1.4-3.4,1.6-4.8,0.3
						C1718.3,798.3,1718.2,796,1719.5,794.7z"/>
				</g>
			</g>
			<g>
				<g>
					<path class="st0" d="M1717.4,788l-2.4-2.3c-0.8-0.8-1.5-1.6-2.3-2.4l-5,4.7c0.8,0.8,1.6,1.7,2.4,2.5l2.5,2.4L1717.4,788z"/>
					<path class="st1" d="M1710.3,785.6c1.4-1.3,3.5-1.2,4.8,0.1c1.3,1.3,1.3,3.4,0,4.8c-1.3,1.3-3.5,1.3-4.8,0
						C1708.9,789,1708.9,786.8,1710.3,785.6z"/>
				</g>
			</g>
			<g>
				<g>
					<path class="st0" d="M1708.8,778.8c-1.5-1.6-2.8-3.4-4.2-5.1l-5.4,4.2c1.5,1.8,2.9,3.6,4.4,5.3L1708.8,778.8z"/>
					<path class="st1" d="M1701.9,775.8c1.5-1.2,3.6-1,4.8,0.5c1.1,1.4,1,3.5-0.4,4.8c-1.4,1.2-3.6,1.1-4.8-0.4
						C1700.2,779.1,1700.4,776.9,1701.9,775.8z"/>
				</g>
			</g>
			<g>
				<g>
					<path class="st0" d="M1700.9,768.9c-1.3-1.8-2.5-3.6-3.8-5.4l-5.7,3.7c1.3,1.9,2.6,3.8,3.9,5.7L1700.9,768.9z"/>
					<path class="st1" d="M1694.3,765.3c1.6-1,3.7-0.6,4.7,0.9c1,1.5,0.6,3.6-0.9,4.7c-1.5,1.1-3.7,0.8-4.8-0.8
						C1692.3,768.5,1692.7,766.3,1694.3,765.3z"/>
				</g>
			</g>
			<g>
				<g>
					<path class="st0" d="M1694,758.4c-1.1-1.9-2.2-3.8-3.2-5.8l-6.1,3.1c1,2.1,2.2,4.1,3.4,6.1L1694,758.4z"/>
					<path class="st1" d="M1687.8,754.2c1.7-0.9,3.7-0.2,4.6,1.3c0.9,1.6,0.3,3.6-1.3,4.6c-1.6,1-3.7,0.4-4.7-1.3
						C1685.4,757.1,1686.1,755,1687.8,754.2z"/>
				</g>
			</g>
			<g>
				<g>
					<path class="st0" d="M1688.2,747.2c-1-2-1.7-4-2.5-6.1l-6.4,2.4c0.9,2.2,1.7,4.4,2.7,6.5L1688.2,747.2z"/>
					<path class="st1" d="M1682.5,742.4c1.8-0.7,3.7,0.2,4.4,1.8c0.3,0.8,0.3,1.7,0,2.5c-0.3,0.8-0.9,1.5-1.8,1.9
						c-0.9,0.4-1.8,0.4-2.6,0.1c-0.8-0.3-1.5-1-1.9-1.9C1679.9,745,1680.7,743,1682.5,742.4z"/>
				</g>
			</g>
			<g>
				<g>
					<path class="st0" d="M1683.8,735.6c-0.6-2.1-1.2-4.2-1.7-6.3l-6.7,1.5c0.5,2.3,1.2,4.5,1.8,6.8L1683.8,735.6z"/>
					<path class="st1" d="M1678.8,730c0.9-0.2,1.8,0,2.6,0.4c0.7,0.4,1.3,1.1,1.5,2c0.5,1.7-0.6,3.6-2.4,4.1
						c-1.8,0.6-3.7-0.5-4.2-2.4c-0.3-0.9-0.1-1.9,0.4-2.6C1677.1,730.8,1677.9,730.2,1678.8,730z"/>
				</g>
			</g>
			<g>
				<g>
					<path class="st0" d="M1681,723.5c-0.2-1.1-0.3-2.1-0.4-3.2c-0.1-1.1-0.3-2.1-0.3-3.2l-6.8,0.4c0,1.2,0.2,2.4,0.3,3.5
						c0.1,1.2,0.2,2.4,0.4,3.5L1681,723.5z"/>
					<path class="st1" d="M1677,717.2c0.9,0,1.8,0.3,2.5,0.8c0.7,0.6,1.1,1.3,1.2,2.2c0.1,0.9-0.2,1.7-0.8,2.4
						c-0.5,0.7-1.3,1.2-2.2,1.3c-0.9,0.1-1.8-0.1-2.5-0.7c-0.7-0.5-1.1-1.4-1.3-2.4c-0.1-1,0.2-1.9,0.8-2.6
						C1675.2,717.7,1676,717.3,1677,717.2z"/>
				</g>
			</g>
			<g>
				<g>
					<path class="st0" d="M1680.3,711.2c0-2.1,0.3-4.3,0.6-6.4l-6.7-1c-0.3,2.4-0.6,4.7-0.7,7.1L1680.3,711.2z"/>
					<path class="st1" d="M1677.6,704.4c1.9,0.3,3.2,2,3,3.7c-0.1,0.9-0.5,1.6-1.2,2.2c-0.6,0.6-1.5,0.9-2.5,0.9
						c-0.9,0-1.8-0.5-2.4-1.1c-0.6-0.7-1-1.6-0.8-2.6C1674,705.4,1675.7,704.1,1677.6,704.4z"/>
				</g>
			</g>
			<g>
				<g>
					<path class="st0" d="M1682.1,699.2c0.5-2.1,1.2-4.1,2-6.1l-6.4-2.4c-0.8,2.2-1.6,4.5-2.2,6.8L1682.1,699.2z"/>
					<path class="st1" d="M1680.9,691.9c1.7,0.7,2.7,2.6,2.1,4.3c-0.5,1.7-2.4,2.7-4.2,2.2c-1.8-0.5-2.9-2.4-2.3-4.3
						C1677.1,692.2,1679.1,691.2,1680.9,691.9z"/>
				</g>
			</g>
			<g>
				<g>
					<path class="st0" d="M1686.4,687.8c0.9-1.9,2-3.8,3.1-5.7l-5.9-3.5c-1.2,2-2.3,4.1-3.4,6.2L1686.4,687.8z"/>
					<path class="st1" d="M1686.6,680.3c1.6,1,2.2,3,1.3,4.6c-0.8,1.6-2.8,2.2-4.5,1.4c-1.7-0.8-2.4-2.9-1.5-4.6
						C1682.8,679.9,1684.9,679.3,1686.6,680.3z"/>
				</g>
			</g>
			<g>
				<g>
					<path class="st0" d="M1692.7,677.1c1.2-1.8,2.6-3.5,4-5.1l-5.2-4.4c-1.5,1.8-3,3.7-4.3,5.6L1692.7,677.1z"/>
					<path class="st1" d="M1694.1,669.8c1.4,1.2,1.7,3.3,0.6,4.7c-1.1,1.4-3.2,1.7-4.7,0.6c-1.5-1.1-1.9-3.3-0.7-4.8
						C1690.4,668.8,1692.6,668.6,1694.1,669.8z"/>
				</g>
			</g>
			<g>
				<g>
					<path class="st0" d="M1700.6,667.7c1.5-1.5,3.1-3,4.8-4.3l-4.3-5.3c-1.8,1.5-3.6,3.1-5.3,4.8L1700.6,667.7z"/>
					<path class="st1" d="M1703.2,660.7c1.2,1.5,1,3.6-0.3,4.7c-1.3,1.2-3.4,1.1-4.7-0.2c-1.3-1.3-1.3-3.5,0.2-4.9
						C1699.8,659.1,1702,659.2,1703.2,660.7z"/>
				</g>
			</g>
			<g>
				<g>
					<path class="st0" d="M1710,660c1.8-1.1,3.6-2.2,5.5-3l-2.8-6.2c-2.3,1-4.4,2.2-6.4,3.5L1710,660z"/>
					<path class="st1" d="M1714.1,653.8c0.7,1.7,0.1,3.7-1.4,4.5c-1.5,0.8-3.5,0.3-4.6-1.3c-1-1.6-0.5-3.7,1.3-4.7
						C1711.2,651.4,1713.4,652.1,1714.1,653.8z"/>
				</g>
			</g>
			<g>
				<g>
					<path class="st0" d="M1720.7,655.2c1.9-0.5,3.9-0.7,5.8-0.7l0.2-6.8c-2.6-0.1-5.2,0.3-7.6,0.9L1720.7,655.2z"/>
					<path class="st1" d="M1726.6,651.1c0,0.9-0.4,1.8-1,2.4c-0.3,0.3-0.6,0.6-0.9,0.8c-0.3,0.2-0.7,0.3-1.1,0.4
						c-0.8,0.1-1.6-0.1-2.3-0.7c-0.7-0.5-1.2-1.2-1.5-2.1c-0.2-0.9-0.1-1.9,0.5-2.6c0.5-0.7,1.4-1.3,2.5-1.4c0.5-0.1,1,0,1.5,0.1
						c0.5,0.1,0.9,0.4,1.2,0.7C1726.3,649.3,1726.7,650.1,1726.6,651.1z"/>
				</g>
			</g>
			<g>
				<g>
					<path class="st0" d="M1731.6,655.3c1.8,0.6,3.6,1.5,5.2,2.6l3.8-5.7c-2.1-1.4-4.4-2.6-6.9-3.4L1731.6,655.3z"/>
					<path class="st1" d="M1738.7,655.1c-0.5,0.8-1.3,1.3-2.1,1.5c-0.8,0.2-1.6,0.2-2.3-0.1c-0.7-0.3-1.2-1-1.5-1.7
						c-0.3-0.8-0.4-1.7-0.1-2.6c0.3-0.9,0.9-1.6,1.8-1.9c0.9-0.4,1.9-0.3,2.9,0.1c1,0.5,1.6,1.3,1.9,2.2
						C1739.4,653.3,1739.3,654.3,1738.7,655.1z"/>
				</g>
			</g>
			<g>
				<g>
					<path class="st0" d="M1741.1,661.4c1.5,1.4,2.8,3,4,4.7l5.5-4c-1.4-2-3-3.8-4.8-5.6L1741.1,661.4z"/>
					<path class="st1" d="M1747.9,664.1c-0.8,0.6-1.7,0.7-2.5,0.7c-0.8-0.1-1.6-0.4-2.2-1.1c-0.6-0.6-0.8-1.5-0.7-2.3
						c0-0.8,0.4-1.7,1-2.4c0.7-0.7,1.5-1,2.4-1c0.9,0,1.8,0.5,2.5,1.2c0.6,0.8,0.9,1.7,0.8,2.6
						C1749.1,662.7,1748.6,663.6,1747.9,664.1z"/>
				</g>
			</g>
			<g>
				<g>
					<path class="st0" d="M1748.2,670.9c1,1.9,1.9,3.8,2.8,5.8l6.3-2.6c-0.9-2.2-1.9-4.4-3.1-6.5L1748.2,670.9z"/>
					<path class="st1" d="M1754.1,675.4c-1.8,0.7-3.7,0-4.5-1.6c-0.4-0.8-0.4-1.7-0.1-2.5c0.3-0.8,0.8-1.6,1.7-2
						c0.8-0.5,1.7-0.5,2.6-0.3c0.9,0.3,1.6,0.9,2,1.8C1756.7,672.6,1755.8,674.7,1754.1,675.4z"/>
				</g>
			</g>
			<g>
				<g>
					<path class="st0" d="M1752.9,682.2c0.7,2,1.2,4.1,1.6,6.2l6.7-1.4c-0.5-2.3-1.1-4.6-1.8-6.9L1752.9,682.2z"/>
					<path class="st1" d="M1757.9,687.7c-1.9,0.4-3.6-0.7-4.1-2.5c-0.4-1.7,0.6-3.5,2.4-4.1c1.8-0.6,3.7,0.5,4.2,2.4
						C1760.9,685.5,1759.7,687.4,1757.9,687.7z"/>
				</g>
			</g>
			<g>
				<g>
					<path class="st0" d="M1755.5,694.2c0.3,2.1,0.4,4.3,0.4,6.4l6.8-0.1c-0.1-2.4-0.2-4.8-0.5-7.1L1755.5,694.2z"/>
					<path class="st1" d="M1759.3,700.6c-1.9,0-3.4-1.4-3.5-3.2c-0.1-1.8,1.2-3.4,3.1-3.6c1.9-0.2,3.6,1.2,3.7,3.2
						C1762.7,698.9,1761.2,700.6,1759.3,700.6z"/>
				</g>
			</g>
			<g>
				<g>
					<path class="st0" d="M1755.6,706.4c-0.2,2.1-0.5,4.2-1,6.3l6.7,1.5c0.5-2.4,0.9-4.7,1.1-7.1L1755.6,706.4z"/>
					<path class="st1" d="M1758,713.4c-1.8-0.4-3-2.1-2.8-3.9c0.3-1.7,1.9-3,3.8-2.8c1.9,0.2,3.3,1.9,3,3.9
						C1761.7,712.6,1759.9,713.8,1758,713.4z"/>
				</g>
			</g>
			<g>
				<g>
					<polygon class="st0" points="1753.1,718.1 1751.9,721 1750.5,723.9 1756.5,727.1 1758.1,723.8 1759.5,720.4 					"/>
					<path class="st1" d="M1753.5,725.5c-1.6-0.9-2.4-2.9-1.6-4.4c0.6-1.6,2.6-2.4,4.4-1.8c1.8,0.6,2.6,2.7,1.8,4.5
						C1757.3,725.6,1755.2,726.4,1753.5,725.5z"/>
				</g>
			</g>
			<g>
				<g>
					<path class="st0" d="M1747.5,728.7c-1.2,1.7-2.5,3.4-4,5l5.1,4.6c1.6-1.8,3.1-3.7,4.5-5.6L1747.5,728.7z"/>
					<path class="st1" d="M1746.1,736c-0.7-0.6-1.1-1.5-1.2-2.3c-0.1-0.8,0.2-1.7,0.7-2.4c0.5-0.7,1.3-1.1,2.2-1.2
						c0.8-0.1,1.7,0.1,2.5,0.6c0.8,0.5,1.3,1.3,1.4,2.2c0.1,0.9-0.1,1.8-0.7,2.6c-0.6,0.8-1.5,1.2-2.4,1.3
						C1747.7,736.9,1746.8,736.6,1746.1,736z"/>
				</g>
			</g>
			<g>
				<g>
					<path class="st0" d="M1739.5,737.9c-0.8,0.7-1.6,1.5-2.4,2.1c-0.8,0.7-1.6,1.4-2.5,2l4.2,5.4c0.9-0.7,1.9-1.5,2.8-2.2
						c0.9-0.7,1.8-1.5,2.7-2.3L1739.5,737.9z"/>
					<path class="st1" d="M1736.6,744.7c-1.1-1.5-0.9-3.6,0.4-4.7c1.4-1.1,3.4-1,4.7,0.4c0.6,0.7,0.9,1.6,0.9,2.5
						c0,0.9-0.5,1.8-1.2,2.4C1739.9,746.5,1737.7,746.2,1736.6,744.7z"/>
				</g>
			</g>
			<g>
				<g>
					<path class="st0" d="M1729.7,745.4l-2.8,1.8l-2.8,1.7l3.4,5.9l3-1.8c1-0.6,2-1.3,3-1.9L1729.7,745.4z"/>
					<path class="st1" d="M1725.8,751.8c-0.9-1.6-0.4-3.7,1.1-4.6c1.5-1,3.6-0.5,4.6,1.1c1,1.6,0.6,3.7-1.1,4.7
						C1728.8,754,1726.7,753.5,1725.8,751.8z"/>
				</g>
			</g>
			<g>
				<g>
					<path class="st0" d="M1718.9,751.7c-2,1-4,1.9-6,2.8l2.7,6.3c2.1-0.9,4.2-1.9,6.3-2.9L1718.9,751.7z"/>
					<path class="st1" d="M1714.2,757.6c-0.7-1.7,0-3.7,1.7-4.5c1.6-0.8,3.7,0,4.5,1.6c0.9,1.7,0.1,3.7-1.6,4.6
						C1717,760.1,1715,759.3,1714.2,757.6z"/>
				</g>
			</g>
			<g>
				<g>
					<path class="st0" d="M1707.3,756.7c-2.1,0.8-4.1,1.5-6.2,2.2l2.2,6.5c2.2-0.7,4.4-1.5,6.5-2.3L1707.3,756.7z"/>
					<path class="st1" d="M1702.2,762.2c-0.6-1.8,0.3-3.7,2.1-4.3c1.7-0.6,3.7,0.3,4.3,2c0.7,1.8-0.2,3.7-2,4.4
						C1704.7,764.9,1702.7,764,1702.2,762.2z"/>
				</g>
			</g>
			<g>
				<g>
					<path class="st0" d="M1695.3,760.7c-2.1,0.6-4.3,1.2-6.4,1.8l1.7,6.6c2.2-0.6,4.5-1.2,6.7-1.8L1695.3,760.7z"/>
					<path class="st1" d="M1689.8,765.8c-0.5-1.8,0.6-3.7,2.4-4.2c1.8-0.5,3.6,0.6,4.2,2.4c0.5,1.8-0.5,3.7-2.4,4.2
						C1692.1,768.7,1690.2,767.6,1689.8,765.8z"/>
				</g>
			</g>
			<g>
				<g>
					<path class="st0" d="M1683,763.9c-2.2,0.5-4.3,0.9-6.5,1.3l1.1,6.7c2.3-0.4,4.6-0.8,6.8-1.3L1683,763.9z"/>
					<path class="st1" d="M1677.1,768.5c-0.3-1.8,0.9-3.6,2.7-4c1.8-0.3,3.6,0.8,4,2.7c0.4,1.8-0.7,3.7-2.7,4
						C1679.2,771.6,1677.4,770.4,1677.1,768.5z"/>
				</g>
			</g>
			<g>
				<g>
					<path class="st0" d="M1670.7,766l-3.3,0.3c-1.1,0.1-2.2,0.1-3.3,0.2l0.4,6.8c1.2-0.1,2.3-0.1,3.5-0.2l3.5-0.4L1670.7,766z"/>
					<path class="st1" d="M1664.3,769.9c-0.1-1.9,1.3-3.5,3.1-3.6c1.8-0.2,3.4,1.2,3.7,3.1c0.2,1.9-1.2,3.5-3.1,3.7
						C1666,773.2,1664.4,771.8,1664.3,769.9z"/>
				</g>
			</g>
			<g>
				<g>
					<path class="st0" d="M1658.1,766.7c-1.1,0-2.2,0-3.3,0c-1.1,0-2.2,0-3.3-0.1l-0.3,6.8c1.2,0.1,2.3,0.1,3.5,0.1
						c1.2,0,2.3,0.1,3.5,0L1658.1,766.7z"/>
					<path class="st1" d="M1651.4,769.9c0.1-1.9,1.7-3.3,3.5-3.3c0.9,0,1.7,0.4,2.3,1.1c0.6,0.6,1,1.5,1,2.4c0,0.9-0.4,1.8-1,2.4
						c-0.6,0.6-1.5,1-2.5,0.9C1652.7,773.4,1651.3,771.8,1651.4,769.9z"/>
				</g>
			</g>
			<g>
				<g>
					<polygon class="st0" points="1645.6,766.1 1642.3,765.7 1639,765.3 1638,772 1641.5,772.5 1644.9,772.9 					"/>
					<path class="st1" d="M1638.5,768.6c0.3-1.9,2-3.2,3.8-2.9c1.8,0.2,3.1,1.9,2.9,3.7c-0.2,1.9-1.9,3.2-3.8,3
						C1639.5,772.2,1638.2,770.5,1638.5,768.6z"/>
				</g>
			</g>
			<g>
				<g>
					<path class="st0" d="M1633.1,764.2c-2.2-0.5-4.3-0.9-6.5-1.4l-1.6,6.6c2.2,0.6,4.5,1,6.8,1.5L1633.1,764.2z"/>
					<path class="st1" d="M1625.8,766.1c0.4-1.8,2.2-2.9,4-2.6c1.8,0.4,2.9,2.2,2.6,4c-0.4,1.9-2.2,3-4,2.6
						C1626.5,769.8,1625.4,768,1625.8,766.1z"/>
				</g>
			</g>
			<g>
				<g>
					<path class="st0" d="M1620.8,761.3c-2.1-0.6-4.2-1.3-6.4-1.9l-2.1,6.5c2.2,0.7,4.4,1.4,6.6,2L1620.8,761.3z"/>
					<path class="st1" d="M1613.4,762.6c0.6-1.8,2.5-2.8,4.2-2.2c1.7,0.5,2.8,2.4,2.3,4.2c-0.5,1.8-2.4,2.9-4.2,2.3
						C1613.8,766.3,1612.8,764.4,1613.4,762.6z"/>
				</g>
			</g>
			<g>
				<g>
					<path class="st0" d="M1608.8,757.4c-2.1-0.8-4.2-1.5-6.2-2.4l-2.6,6.3c2.1,0.9,4.3,1.7,6.4,2.5L1608.8,757.4z"/>
					<path class="st1" d="M1601.3,758.2c0.7-1.7,2.7-2.6,4.4-1.9c1.7,0.7,2.6,2.6,1.9,4.4c-0.6,1.8-2.6,2.7-4.4,2
						C1601.4,761.9,1600.6,759.9,1601.3,758.2z"/>
				</g>
			</g>
			<g>
				<g>
					<path class="st0" d="M1597,752.6c-2-0.9-4.1-1.8-6.1-2.8l-2.9,6.2c2.1,1,4.1,2,6.3,2.9L1597,752.6z"/>
					<path class="st1" d="M1589.5,752.9c0.8-1.7,2.8-2.4,4.5-1.7c1.7,0.8,2.4,2.8,1.7,4.5c-0.8,1.7-2.8,2.5-4.5,1.7
						C1589.4,756.7,1588.6,754.6,1589.5,752.9z"/>
				</g>
			</g>
			<g>
				<g>
					<path class="st0" d="M1585.5,747.2c-2-1-4-2.1-5.9-3.1l-3.3,6c2,1.1,4,2.2,6.1,3.2L1585.5,747.2z"/>
					<path class="st1" d="M1578,747c0.9-1.6,3-2.3,4.6-1.4c1.6,0.9,2.3,2.9,1.4,4.6c-0.9,1.7-2.9,2.3-4.6,1.4
						C1577.7,750.8,1577.1,748.7,1578,747z"/>
				</g>
			</g>
			<g>
				<g>
					<path class="st0" d="M1574.3,741.1c-1.9-1.1-3.8-2.3-5.8-3.4l-3.6,5.8c2,1.2,3.9,2.4,5.9,3.5L1574.3,741.1z"/>
					<path class="st1" d="M1566.8,740.5c1-1.6,3.1-2.1,4.6-1.2c1.6,0.9,2.1,3,1.2,4.6c-0.9,1.6-3,2.2-4.7,1.2
						C1566.3,744.2,1565.8,742.1,1566.8,740.5z"/>
				</g>
			</g>
			<g>
				<g>
					<path class="st0" d="M1563.4,734.4c-1.9-1.2-3.7-2.4-5.6-3.7l-3.8,5.7c1.9,1.3,3.8,2.5,5.7,3.8L1563.4,734.4z"/>
					<path class="st1" d="M1555.9,733.5c1.1-1.6,3.2-2,4.7-1c1.5,1,2,3.1,1,4.7c-1,1.6-3.1,2-4.7,1
						C1555.3,737.2,1554.9,735.1,1555.9,733.5z"/>
				</g>
			</g>
			<g>
				<g>
					<path class="st0" d="M1552.8,727.3c-1.8-1.3-3.7-2.6-5.5-3.9l-4,5.5c1.8,1.4,3.7,2.7,5.6,4L1552.8,727.3z"/>
					<path class="st1" d="M1545.4,726.1c1.1-1.5,3.2-1.9,4.7-0.8c1.5,1.1,1.9,3.2,0.8,4.7c-1.1,1.5-3.2,1.9-4.8,0.8
						C1544.6,729.7,1544.3,727.6,1545.4,726.1z"/>
				</g>
			</g>
			<g>
				<g>
					<path class="st0" d="M1542.5,719.7c-1.8-1.4-3.5-2.7-5.3-4.1l-4.2,5.4c1.8,1.4,3.6,2.8,5.4,4.2L1542.5,719.7z"/>
					<path class="st1" d="M1535.1,718.3c1.2-1.5,3.3-1.7,4.8-0.6c1.5,1.1,1.7,3.3,0.6,4.8c-1.1,1.5-3.3,1.8-4.8,0.6
						C1534.2,721.9,1533.9,719.7,1535.1,718.3z"/>
				</g>
			</g>
			<g>
				<g>
					<path class="st0" d="M1532.5,711.8c-1.7-1.4-3.5-2.8-5.2-4.3l-4.4,5.2c1.7,1.5,3.5,2.9,5.3,4.4L1532.5,711.8z"/>
					<path class="st1" d="M1525.1,710.1c1.2-1.4,3.4-1.6,4.8-0.4c1.4,1.2,1.6,3.3,0.4,4.8c-1.2,1.5-3.3,1.7-4.8,0.5
						C1524.1,713.7,1523.9,711.5,1525.1,710.1z"/>
				</g>
			</g>
			<g>
				<g>
					<path class="st0" d="M1522.7,703.5c-1.7-1.5-3.4-3-5-4.5l-4.6,5.1c1.7,1.5,3.4,3,5.1,4.5L1522.7,703.5z"/>
					<path class="st1" d="M1515.3,701.6c1.3-1.4,3.4-1.5,4.8-0.3c1.4,1.2,1.5,3.4,0.3,4.8c-1.2,1.4-3.4,1.6-4.8,0.3
						C1514.2,705.2,1514.1,703,1515.3,701.6z"/>
				</g>
			</g>
			<g>
				<g>
					<polygon class="st0" points="1513.1,694.9 1508.2,690.4 1503.5,695.3 1508.5,700 					"/>
					<path class="st1" d="M1505.8,692.8c1.3-1.4,3.4-1.4,4.8-0.2c1.4,1.3,1.4,3.4,0.2,4.8c-1.3,1.4-3.4,1.5-4.8,0.2
						C1504.6,696.4,1504.6,694.2,1505.8,692.8z"/>
				</g>
			</g>
			<g>
				<g>
					<path class="st0" d="M1503.8,686.1c-1.6-1.6-3.2-3.1-4.8-4.7l-4.8,4.8c1.6,1.6,3.2,3.2,4.9,4.8L1503.8,686.1z"/>
					<path class="st1" d="M1496.6,683.8c1.3-1.3,3.5-1.3,4.8,0c1.3,1.3,1.3,3.5,0,4.8c-1.3,1.3-3.5,1.4-4.8,0.1
						C1495.3,687.3,1495.3,685.1,1496.6,683.8z"/>
				</g>
			</g>
			<g>
				<g>
					<polygon class="st0" points="1494.7,677.1 1490,672.2 1485.1,676.9 1489.8,681.8 					"/>
					<path class="st1" d="M1487.6,674.6c1.4-1.3,3.5-1.3,4.8,0.1c1.3,1.3,1.2,3.5-0.1,4.8c-1.3,1.3-3.5,1.3-4.8-0.1
						C1486.1,678,1486.2,675.9,1487.6,674.6z"/>
				</g>
			</g>
			<g>
				<g>
					<polygon class="st0" points="1485.8,667.8 1481.3,662.8 1476.2,667.4 1480.9,672.4 					"/>
					<path class="st1" d="M1478.8,665.1c1.4-1.3,3.5-1.2,4.8,0.2c1.3,1.4,1.2,3.5-0.2,4.8c-1.4,1.3-3.5,1.2-4.8-0.2
						C1477.3,668.5,1477.4,666.4,1478.8,665.1z"/>
				</g>
			</g>
			<g>
				<g>
					<polygon class="st0" points="1477.2,658.3 1472.8,653.2 1467.6,657.7 1472.1,662.8 					"/>
					<path class="st1" d="M1470.2,655.4c1.4-1.2,3.6-1.1,4.8,0.3c1.2,1.4,1.1,3.5-0.3,4.8c-1.4,1.2-3.6,1.1-4.8-0.3
						C1468.6,658.8,1468.8,656.7,1470.2,655.4z"/>
				</g>
			</g>
			<g>
				<path class="st1" d="M1473.9,648.2l5.7-4.9c-7.6-1.2-15.3-2.6-23-4.3c-0.1,7.9-0.1,15.8,0.2,23.8l5.7-4.9L1473.9,648.2z"/>
			</g>
		</g>
	</g>
</g>
</svg>
